<?xml version="1.0" encoding="UTF-8"?>
<svg version="1.1" xmlns="http://www.w3.org/2000/svg" width="512" height="512">
<path d="M0 0 C7.25285708 3.21245268 10.66709287 8.275592 14.12890625 15.19921875 C14.07452393 16.02550781 14.0201416 16.85179688 13.96411133 17.703125 C13.8158678 21.24063925 14.01982677 23.82253755 15.12890625 27.19921875 C19.18415628 31.10635607 23.87182297 33.57227543 28.81640625 36.19921875 C30.11227801 36.92568495 31.40592914 37.65612732 32.69726562 38.390625 C35.08408066 39.74476605 37.47969719 41.06773315 39.89331055 42.375 C43.12890625 44.19921875 43.12890625 44.19921875 46.41308594 46.4375 C48.88848962 48.42427246 48.88848962 48.42427246 51.2578125 48.07421875 C53.22200971 47.15567976 55.15693138 46.22768838 57.06640625 45.19921875 C64.20029574 41.57315338 71.3378009 41.32707211 79.06640625 43.19921875 C86.40531725 45.60782899 92.10839344 50.64798514 95.62890625 57.51171875 C98.7164931 65.10203643 99.76863289 73.21444978 97.15234375 81.16796875 C94.95336076 85.6468789 92.25820987 89.32123765 89.12890625 93.19921875 C89.49242187 94.03694824 89.8559375 94.87467773 90.23046875 95.73779297 C91.57516619 98.84137189 92.91661123 101.94631403 94.25585938 105.05224609 C94.83658776 106.39721044 95.4186137 107.74161528 96.00195312 109.08544922 C96.8393437 111.01515029 97.67207458 112.94680359 98.50390625 114.87890625 C99.00664062 116.04147949 99.509375 117.20405273 100.02734375 118.40185547 C101.12890625 121.19921875 101.12890625 121.19921875 101.12890625 123.19921875 C101.74636719 123.20179687 102.36382812 123.204375 103 123.20703125 C110.0813204 123.53037921 114.87710165 125.38247488 120.12890625 130.19921875 C124.76901336 135.96889848 126.5072318 141.33793329 126.41015625 148.69140625 C125.75040765 154.57416457 123.78836182 159.79228903 119.25390625 163.63671875 C116.87643317 165.94211399 116.87643317 165.94211399 117.15234375 168.51953125 C117.66363549 171.46155419 118.39519773 174.30514623 119.12890625 177.19921875 C119.26039063 178.25753906 119.391875 179.31585938 119.52734375 180.40625 C120.02559656 183.71840598 120.55861261 186.23310855 122.12890625 189.19921875 C125.06814458 190.99566044 127.9066682 192.00034917 131.17578125 193.0703125 C136.84309706 195.2367864 139.12457242 199.42489564 142.00390625 204.51171875 C144.31941505 212.10144204 143.669197 218.6898774 140.46875 225.93359375 C137.47639391 230.99355449 133.28948453 233.61892961 128.12890625 236.19921875 C128.12890625 252.36921875 128.12890625 268.53921875 128.12890625 285.19921875 C130.76890625 286.51921875 133.40890625 287.83921875 136.12890625 289.19921875 C138.87890625 291.63671875 138.87890625 291.63671875 141.12890625 294.19921875 C141.85078125 295.00359375 142.57265625 295.80796875 143.31640625 296.63671875 C148.28001487 303.65423438 147.93409443 311.95032284 147.12890625 320.19921875 C144.97143748 328.02266134 139.8342432 333.78195886 133.12890625 338.19921875 C128.12528747 340.40735363 123.59039208 341.35415452 118.12890625 341.19921875 C117.87496094 342.441875 117.62101562 343.68453125 117.359375 344.96484375 C115.84616714 351.78696708 113.61049484 358.38994322 111.43164062 365.0234375 C111.12162109 366.00441406 110.81160156 366.98539062 110.4921875 367.99609375 C110.20641846 368.87620117 109.92064941 369.75630859 109.6262207 370.66308594 C108.91980636 374.26555634 109.38988542 376.97583968 111.28515625 380.11328125 C111.72859375 380.67789062 112.17203125 381.2425 112.62890625 381.82421875 C117.34480899 387.88360541 116.71079118 394.80682142 116.12890625 402.19921875 C114.18380636 409.37941607 109.56552538 413.0268741 103.453125 416.890625 C99.91415481 418.28375663 97.77358142 418.11245605 94.0637207 417.59765625 C88.83357063 416.96128818 84.30635904 416.80382773 79.74707031 419.72558594 C73.6560524 424.86655829 68.61177199 430.98925575 63.54663086 437.11181641 C59.91325142 441.40088942 56.00505091 445.26268217 51.90625 449.09765625 C50.20609028 450.70854703 48.50770943 452.32129284 46.80981445 453.93457031 C45.64073667 455.03406988 44.46215913 456.12354929 43.2746582 457.203125 C36.26392185 463.07543545 36.26392185 463.07543545 32.81933594 471.04003906 C33.34398083 473.60064769 34.15986949 475.77940611 35.12890625 478.19921875 C36.08942566 486.54751344 34.37276785 493.54218971 29.55078125 500.46484375 C25.099131 505.87901297 20.16411693 509.84198342 13.12890625 511.19921875 C4.07628449 511.99730883 -3.41166809 511.74530819 -10.87109375 506.19921875 C-16.62568048 501.11354125 -20.45770549 495.82294934 -21.87109375 488.19921875 C-22.05859375 484.63671875 -22.05859375 484.63671875 -21.87109375 482.19921875 C-22.43770721 482.10523804 -23.00432068 482.01125732 -23.58810425 481.91442871 C-31.05408438 480.56034732 -38.07467705 478.27808481 -45.25390625 475.85546875 C-47.82748536 475.0122875 -50.40160951 474.17098588 -52.9765625 473.33203125 C-57.00389861 472.01801883 -61.02658878 470.69316876 -65.03662109 469.32714844 C-67.67082886 468.43068104 -70.31025331 467.55521409 -72.95895386 466.70251465 C-75.44203253 465.90291671 -77.91589294 465.07395295 -80.37820435 464.21252441 C-86.38641728 462.13893388 -86.38641728 462.13893388 -92.36956787 463.28930664 C-94.38800479 464.80400521 -96.09987864 466.40858894 -97.87109375 468.19921875 C-101.66487365 470.18643679 -104.60765849 470.39751806 -108.87109375 470.19921875 C-109.29068359 471.30910156 -109.29068359 471.30910156 -109.71875 472.44140625 C-115.58374747 486.47763749 -128.91794892 498.28627363 -142.83007812 504.00439453 C-162.27550082 511.3128357 -184.12044037 512.25308279 -203.31640625 503.65625 C-212.02531029 499.24117916 -220.41325473 494.12259652 -225.68359375 485.76171875 C-227.58535326 483.43533836 -228.99739098 482.35573607 -231.97802734 481.82177734 C-235.54954004 481.52562381 -239.10655743 481.45855852 -242.68896484 481.41479492 C-260.20832253 481.19112412 -275.5859594 474.50571607 -288.87109375 463.19921875 C-290.32515625 462.11640625 -290.32515625 462.11640625 -291.80859375 461.01171875 C-294.01749163 459.07056607 -295.06405599 458.0238509 -295.87109375 455.19921875 C-295.6946698 451.84716364 -295.43378662 449.22530574 -293.80859375 446.26171875 C-290.38131942 444.38224573 -287.5483934 444.14505952 -283.87109375 445.19921875 C-281.10550796 447.19259552 -278.62565744 449.41590101 -276.0703125 451.671875 C-272.57619839 454.58904099 -268.74813894 456.62146053 -264.68359375 458.63671875 C-263.70422852 459.13075195 -263.70422852 459.13075195 -262.70507812 459.63476562 C-256.67615665 462.54297649 -250.55994914 464.19713856 -243.87109375 464.82421875 C-243.10796875 464.89898437 -242.34484375 464.97375 -241.55859375 465.05078125 C-241.00171875 465.09976562 -240.44484375 465.14875 -239.87109375 465.19921875 C-240.14824219 464.26980469 -240.42539063 463.34039062 -240.7109375 462.3828125 C-241.25427734 460.52849609 -241.25427734 460.52849609 -241.80859375 458.63671875 C-242.16824219 457.41855469 -242.52789062 456.20039063 -242.8984375 454.9453125 C-244.7822237 447.69008774 -246.79454326 439.1262615 -243.37109375 432.13671875 C-240.34188616 429.78908287 -238.60243508 429.64010028 -234.87109375 429.6328125 C-231.81701003 430.49773855 -230.74684247 431.62255331 -228.87109375 434.19921875 C-228.07406919 437.16331911 -227.76751692 440.15287601 -227.43359375 443.19921875 C-225.85965782 454.89115576 -222.47782425 464.07114215 -214.87109375 473.19921875 C-214.29359375 474.04484375 -213.71609375 474.89046875 -213.12109375 475.76171875 C-204.24047316 485.38239105 -190.46131716 491.8729041 -177.390625 492.53515625 C-161.57353755 492.84000375 -147.88828021 489.6752996 -135.484375 479.1796875 C-131.69354534 475.51498525 -128.58155049 471.71664665 -125.87109375 467.19921875 C-126.89585436 465.09223431 -127.95732335 463.05498015 -129.16015625 461.04296875 C-132.9386383 454.41405287 -134.08004917 448.77267501 -132.87109375 441.19921875 C-130.75170345 433.9993761 -127.21052599 430.02421786 -120.859375 426.16015625 C-118.87109375 425.19921875 -118.87109375 425.19921875 -116.87109375 425.19921875 C-116.7931051 417.8706022 -116.76384859 410.54347287 -116.79593563 403.21446037 C-116.80932509 399.81063466 -116.80624928 396.40851853 -116.76489258 393.00488281 C-116.71802529 389.08726647 -116.74394047 385.17172114 -116.7734375 381.25390625 C-116.73657082 379.43014969 -116.73657082 379.43014969 -116.69895935 377.56954956 C-116.66533302 371.27081072 -116.66533302 371.27081072 -119.86233521 366.15264893 C-122.23356281 364.5226975 -122.23356281 364.5226975 -124.70289612 363.31521606 C-128.06899203 361.58264615 -129.27332306 359.58649261 -130.87109375 356.19921875 C-131.53857037 353.40314291 -132.05055819 350.6278392 -132.4765625 347.78515625 C-132.67185547 346.50511719 -132.67185547 346.50511719 -132.87109375 345.19921875 C-132.94175049 344.54985352 -133.01240723 343.90048828 -133.08520508 343.23144531 C-134.24369259 340.23571682 -136.04327211 339.60064463 -138.83984375 338.09765625 C-140.39638672 337.2463916 -140.39638672 337.2463916 -141.984375 336.37792969 C-143.66080078 335.48509277 -143.66080078 335.48509277 -145.37109375 334.57421875 C-147.67394877 333.31781965 -149.97603071 332.06000254 -152.27734375 330.80078125 C-153.40785156 330.1862207 -154.53835937 329.57166016 -155.703125 328.93847656 C-159.80624962 326.68580549 -163.84856722 324.34215859 -167.87109375 321.94921875 C-168.52924072 321.55774658 -169.1873877 321.16627441 -169.86547852 320.76293945 C-171.18017515 319.98074119 -172.49471074 319.19827218 -173.80908203 318.41552734 C-176.06875424 317.08262574 -178.34159857 315.77427999 -180.6171875 314.46875 C-181.40158203 314.0159668 -182.18597656 313.56318359 -182.99414062 313.09667969 C-184.49890433 312.22874214 -186.00657824 311.36582392 -187.51757812 310.50878906 C-190.76553868 308.62634212 -192.75741317 307.36973962 -194.87109375 304.19921875 C-195.12836266 302.31074619 -195.12836266 302.31074619 -195.13851929 300.14491272 C-195.14704926 299.32198227 -195.15557922 298.49905182 -195.16436768 297.65118408 C-195.1634613 296.75188171 -195.16255493 295.85257935 -195.16162109 294.92602539 C-195.16833832 293.97616257 -195.17505554 293.02629974 -195.18197632 292.0476532 C-195.20100523 288.90150755 -195.20488286 285.75557464 -195.20703125 282.609375 C-195.21345532 280.42606009 -195.22018338 278.24274606 -195.22720337 276.05943298 C-195.23918807 271.48043827 -195.24288292 266.90151907 -195.24169922 262.32250977 C-195.24149586 256.44985657 -195.26881035 250.57768638 -195.30324364 244.70514774 C-195.32545993 240.19532539 -195.32953839 235.6856203 -195.32847977 231.17574883 C-195.33084321 229.01036348 -195.33970826 226.84497525 -195.3551445 224.67964363 C-195.37469945 221.65335178 -195.36900776 218.6281148 -195.35693359 215.60180664 C-195.36817261 214.7045285 -195.37941162 213.80725037 -195.39099121 212.88278198 C-195.32928005 206.80838141 -195.32928005 206.80838141 -193.00396729 203.71685791 C-190.49163311 201.92921478 -187.95972332 200.34623233 -185.26953125 198.8359375 C-184.1513501 198.20316895 -183.03316895 197.57040039 -181.88110352 196.91845703 C-180.66949286 196.24110492 -179.45782152 195.56386133 -178.24609375 194.88671875 C-176.36332579 193.82559034 -174.48179546 192.76228928 -172.60029602 191.69891357 C-171.30783623 190.96868673 -170.01493362 190.23924315 -168.72160339 189.51055908 C-164.2675382 186.99886949 -159.83450462 184.4531731 -155.4140625 181.8828125 C-154.82171814 181.53874863 -154.22937378 181.19468475 -153.61907959 180.8401947 C-150.78945615 179.1959481 -147.96176624 177.54847948 -145.13623047 175.8972168 C-144.12189941 175.30851807 -143.10756836 174.71981934 -142.0625 174.11328125 C-140.73520874 173.33911865 -140.73520874 173.33911865 -139.38110352 172.54931641 C-136.92865573 171.2301805 -134.47564119 170.17837192 -131.87109375 169.19921875 C-132.07734375 168.37421875 -132.28359375 167.54921875 -132.49609375 166.69921875 C-133.21789825 159.96237676 -130.9615638 154.85240587 -127.67578125 149.15625 C-125.87109375 147.19921875 -125.87109375 147.19921875 -123.97232056 146.40063477 C-121.41696315 145.26855406 -119.78673805 144.2510628 -117.87109375 142.19921875 C-116.71094162 137.59948885 -116.94097833 133.08475089 -117.08984375 128.3671875 C-117.10477653 127.00673251 -117.11615868 125.64623432 -117.12414551 124.28572083 C-117.15460201 120.71546333 -117.23309604 117.14783584 -117.32177734 113.57861328 C-117.40381673 109.93232811 -117.44019477 106.28561516 -117.48046875 102.63867188 C-117.56610616 95.49111551 -117.7025259 88.34533936 -117.87109375 81.19921875 C-118.55381348 80.87526123 -119.2365332 80.55130371 -119.93994141 80.2175293 C-120.8376123 79.782229 -121.7352832 79.34692871 -122.66015625 78.8984375 C-123.54912598 78.47135498 -124.4380957 78.04427246 -125.35400391 77.60424805 C-131.55772012 74.14135893 -134.80760118 68.48872761 -137.17578125 61.94140625 C-139.12377064 54.25888629 -138.62440934 47.17894581 -135.02734375 40.11328125 C-133.51606511 37.61150242 -131.82930855 35.36724228 -129.87109375 33.19921875 C-132.0941881 27.68981101 -136.92793383 25.1320685 -141.87109375 22.19921875 C-143.64452573 21.44639435 -145.43626863 20.73477806 -147.24609375 20.07421875 C-151.35524574 18.54056675 -153.8627502 17.31154126 -155.87109375 13.19921875 C-155.87109375 9.42011259 -155.70399089 7.19228842 -153.24609375 4.26171875 C-148.82430707 2.28355103 -145.63776291 2.65407512 -141.13671875 4.04296875 C-130.84489433 7.98905687 -120.79208385 14.4594019 -113.87109375 23.19921875 C-113.87109375 23.85921875 -113.87109375 24.51921875 -113.87109375 25.19921875 C-112.9275 25.14701172 -112.9275 25.14701172 -111.96484375 25.09375 C-102.60855235 24.79784319 -96.86526415 27.11749383 -89.4375 32.69921875 C-87.87109375 34.19921875 -87.87109375 34.19921875 -86.87109375 37.19921875 C-81.4123323 35.56408992 -75.95376363 33.92831952 -70.49536133 32.29199219 C-68.6441753 31.73713466 -66.79293961 31.18244281 -64.94165039 30.62792969 C-63.60058228 30.22622559 -63.60058228 30.22622559 -62.23242188 29.81640625 C-61.3459346 29.55100037 -60.45944733 29.28559448 -59.5460968 29.012146 C-57.78187958 28.48244188 -56.01835237 27.95043392 -54.25553894 27.41607666 C-50.42665283 26.25607964 -46.59899429 25.11254104 -42.73754883 24.06542969 C-41.56732178 23.73833008 -40.39709473 23.41123047 -39.19140625 23.07421875 C-38.19512207 22.80867188 -37.19883789 22.543125 -36.17236328 22.26953125 C-33.72040986 21.38862437 -33.72040986 21.38862437 -32.59985352 19.10522461 C-31.88923872 16.93258892 -31.88923872 16.93258892 -31.453125 14.578125 C-30.27179548 9.74973791 -26.99397243 5.72946047 -22.99609375 2.84765625 C-21.33207513 1.88391213 -19.60416272 1.03242499 -17.87109375 0.19921875 C-12.73883017 -2.36691304 -5.36752412 -1.49706455 0 0 Z M-15.87109375 19.19921875 C-16.94752084 21.0877223 -16.94752084 21.0877223 -16.87109375 23.19921875 C-15.23032883 26.64482509 -14.08596933 28.05596837 -10.87109375 30.19921875 C-7.46669545 30.05736882 -5.55746757 29.81695518 -2.99609375 27.51171875 C-1.51298771 24.4631119 -1.38217718 22.55178951 -1.87109375 19.19921875 C-3.37109375 16.69921875 -3.37109375 16.69921875 -5.87109375 15.19921875 C-10.7531512 14.38554251 -12.9124825 15.25440374 -15.87109375 19.19921875 Z M-35.79150391 38.49682617 C-36.76576324 38.78099899 -37.74002258 39.06517181 -38.74380493 39.35795593 C-39.78870087 39.67037735 -40.8335968 39.98279877 -41.91015625 40.3046875 C-42.98735931 40.62576981 -44.06456238 40.94685211 -45.17440796 41.27766418 C-47.4499439 41.95956632 -49.72446918 42.64484887 -51.99804688 43.33325195 C-55.48438341 44.38319208 -58.97811217 45.40549904 -62.47265625 46.42773438 C-64.68150269 47.09335172 -66.88985416 47.76061427 -69.09765625 48.4296875 C-70.14660065 48.73198776 -71.19554504 49.03428802 -72.27627563 49.3457489 C-73.24423065 49.64568253 -74.21218567 49.94561615 -75.20947266 50.25463867 C-76.06344635 50.510009 -76.91742004 50.76537933 -77.79727173 51.02848816 C-80.61123779 52.61705078 -80.97167504 54.15564976 -81.87109375 57.19921875 C-82.95804457 60.66635569 -82.95804457 60.66635569 -82.87109375 64.19921875 C-80.83130089 66.88431239 -80.83130089 66.88431239 -77.74609375 69.01171875 C-77.2042041 69.4298584 -76.66231445 69.84799805 -76.10400391 70.27880859 C-74.95626361 71.1604444 -73.80022397 72.03136627 -72.63671875 72.89208984 C-70.91536932 74.16644062 -69.21866341 75.46738582 -67.52734375 76.78125 C-65.3618205 78.46212228 -63.18894172 80.13240016 -61.0078125 81.79296875 C-56.57425089 85.19405711 -52.21699542 88.68718083 -47.87109375 92.19921875 C-46.81341797 91.75449219 -46.81341797 91.75449219 -45.734375 91.30078125 C-42.86787114 90.19797895 -40.02616843 89.36080481 -37.05859375 88.57421875 C-36.08277344 88.31382813 -35.10695313 88.0534375 -34.1015625 87.78515625 C-32.99748047 87.49511719 -32.99748047 87.49511719 -31.87109375 87.19921875 C-30.39254636 81.15275813 -28.93225779 75.1022896 -27.48876953 69.04736328 C-26.99507973 66.98788808 -26.49640785 64.92960058 -25.99267578 62.87255859 C-25.26975613 59.91671553 -24.56482076 56.95707386 -23.86328125 53.99609375 C-23.63422089 53.07616638 -23.40516052 52.15623901 -23.16915894 51.20843506 C-22.96880035 50.34784485 -22.76844177 49.48725464 -22.56201172 48.60058594 C-22.2888765 47.46807404 -22.2888765 47.46807404 -22.01022339 46.31268311 C-21.79111351 42.98426997 -23.2446461 40.99651576 -25.24609375 38.44921875 C-28.49878969 35.94714495 -32.19946648 37.44137053 -35.79150391 38.49682617 Z M-120.80859375 47.38671875 C-122.36710156 51.51218061 -122.12345954 54.99157514 -120.87109375 59.19921875 C-118.0736117 62.85148699 -115.36941702 65.10206673 -110.87109375 66.19921875 C-105.44630499 66.08379771 -102.65059481 63.97871981 -98.87109375 60.19921875 C-96.97298284 57.06320942 -96.86430432 55.38932273 -96.99609375 51.69921875 C-98.12663266 47.1770631 -99.91589779 44.6150503 -103.68359375 41.88671875 C-110.99618622 39.5884754 -115.88865927 41.83195402 -120.80859375 47.38671875 Z M2.31640625 42.63671875 C-0.54937967 44.04151577 -2.76924871 44.65679084 -5.87109375 45.19921875 C-8.73680904 55.62368176 -11.27880056 66.08390049 -13.62109375 76.63671875 C-13.93982487 78.06191145 -14.25883423 79.48704195 -14.578125 80.91210938 C-15.34563614 84.34043946 -16.10945117 87.76957948 -16.87109375 91.19921875 C-14.26668879 94.49572439 -11.96810575 96.16311489 -7.87109375 97.19921875 C-0.8348171 95.9163133 5.72134547 92.0367368 12.06640625 88.88671875 C13.86604026 88.03071427 15.66746299 87.17845967 17.47070312 86.33007812 C22.38309702 84.00529802 27.26157797 81.61670841 32.12890625 79.19921875 C33.27762207 78.63025879 34.42633789 78.06129883 35.60986328 77.47509766 C37.78682366 76.39064248 39.96068392 75.30100855 42.12890625 74.19921875 C42.90099238 70.19630197 43.25662783 67.18522083 42.12890625 63.19921875 C38.67781462 59.89546437 34.65978825 57.77511302 30.48876953 55.52099609 C25.83865356 52.91643083 21.38211116 49.98518954 16.87890625 47.13671875 C15.06481367 45.99423845 13.24734387 44.85709456 11.42578125 43.7265625 C10.64557617 43.23921631 9.86537109 42.75187012 9.06152344 42.24975586 C6.07581478 40.62677653 5.39558758 41.06291496 2.31640625 42.63671875 Z M59.75390625 63.32421875 C57.4624907 67.37826165 57.12833632 70.65399409 58.12890625 75.19921875 C60.01152903 79.02129821 62.26979256 81.56646777 66.35546875 82.95703125 C70.02643468 83.53407272 72.47066783 83.46251412 75.94140625 82.07421875 C79.96579623 78.62474163 81.94038039 76.68385991 82.62890625 71.26171875 C82.3872523 66.99249898 80.98372626 64.42967297 78.12890625 61.19921875 C71.05083209 56.7754224 65.8715862 57.85050511 59.75390625 63.32421875 Z M-100.87109375 80.19921875 C-100.87109375 100.65921875 -100.87109375 121.11921875 -100.87109375 142.19921875 C-98.56109375 143.51921875 -96.25109375 144.83921875 -93.87109375 146.19921875 C-90.09977353 143.84583142 -86.32912994 141.49136201 -82.55859375 139.13671875 C-81.50607422 138.47994141 -80.45355469 137.82316406 -79.36914062 137.14648438 C-77.25253694 135.82442115 -75.13778795 134.49938397 -73.02490234 133.17138672 C-70.91120634 131.84963131 -68.78896305 130.54145303 -66.65869141 129.24658203 C-65.66272949 128.63411621 -64.66676758 128.02165039 -63.640625 127.390625 C-62.74577393 126.84736572 -61.85092285 126.30410645 -60.92895508 125.74438477 C-58.58526031 124.28964756 -58.58526031 124.28964756 -57.87109375 121.19921875 C-57.8031731 118.45692254 -57.87315912 115.73050264 -57.93359375 112.98828125 C-57.87250366 110.26213598 -57.43832199 107.85838029 -56.87109375 105.19921875 C-62.15297151 100.46395598 -67.57770293 96.02436422 -73.24609375 91.76171875 C-78.9383794 87.45929434 -84.53702943 83.09821038 -89.98828125 78.4921875 C-94.19207301 75.60535125 -96.34091217 77.93412796 -100.87109375 80.19921875 Z M48.12890625 89.19921875 C42.45455347 91.68918489 36.78032281 94.17942906 31.10620117 96.66992188 C29.17915073 97.51569994 27.25206795 98.36140433 25.32495117 99.20703125 C22.54206812 100.42818769 19.7593046 101.64961615 16.9765625 102.87109375 C16.12618912 103.24417664 15.27581573 103.61725952 14.39967346 104.00164795 C12.77172975 104.71634763 11.14509238 105.43403206 9.51992798 106.1550293 C7.87525024 106.87328088 6.22116509 107.57024734 4.55990601 108.24926758 C3.33903793 108.75768188 3.33903793 108.75768188 2.09350586 109.27636719 C1.36191757 109.57267029 0.63032928 109.86897339 -0.12342834 110.17425537 C-2.22330054 111.16957502 -2.22330054 111.16957502 -3.15234375 114.29296875 C-3.22453125 115.41703125 -3.29671875 116.54109375 -3.37109375 117.69921875 C-3.46390625 118.82328125 -3.55671875 119.94734375 -3.65234375 121.10546875 C-3.72453125 122.12640625 -3.79671875 123.14734375 -3.87109375 124.19921875 C-4.16739042 125.54126837 -4.48329323 126.88069698 -4.87109375 128.19921875 C-4.40960938 128.60011719 -3.948125 129.00101563 -3.47265625 129.4140625 C0.36884381 132.76208923 4.17329036 136.14372604 7.94140625 139.57421875 C16.44627957 147.71306564 16.44627957 147.71306564 26.12890625 154.19921875 C28.05229957 153.49397453 29.97534787 152.78359177 31.86328125 151.98828125 C34.58622354 151.03994618 37.28513104 150.6475967 40.12890625 150.19921875 C41.62545661 144.9388983 43.11860806 139.67762805 44.60888672 134.41552734 C45.11418395 132.63304891 45.62034024 130.85081373 46.12744141 129.06884766 C49.3267011 117.82392495 52.37789784 106.56260039 55.12890625 95.19921875 C54.34515625 94.58046875 53.56140625 93.96171875 52.75390625 93.32421875 C50.12890625 91.19921875 50.12890625 91.19921875 48.12890625 89.19921875 Z M70.12890625 99.19921875 C68.12610063 106.36836818 66.13331235 113.54024723 64.14746094 120.71411133 C63.47072954 123.15420491 62.79170822 125.59366461 62.11035156 128.0324707 C61.13133549 131.53823307 60.16057946 135.04619315 59.19140625 138.5546875 C58.88517334 139.64444382 58.57894043 140.73420013 58.26342773 141.85697937 C57.98313721 142.87766006 57.70284668 143.89834076 57.4140625 144.94995117 C57.165354 145.84485764 56.91664551 146.7397641 56.66040039 147.66178894 C56.1112397 150.28356142 55.91224112 152.52971433 56.12890625 155.19921875 C57.7250663 157.20887649 57.7250663 157.20887649 60.12890625 158.19921875 C66.99503747 157.40509325 73.64549264 154.30827294 79.12890625 150.19921875 C80.43803991 147.03475658 80.67940429 144.52976263 80.83203125 141.12109375 C81.16369714 137.85680317 81.95966586 136.56550791 83.94140625 134.01171875 C85.83399645 131.37661122 85.83399645 131.37661122 85.84228516 128.24487305 C85.57851074 127.55304932 85.31473633 126.86122559 85.04296875 126.1484375 C84.74849854 125.36041748 84.45402832 124.57239746 84.15063477 123.76049805 C83.81346436 122.91527588 83.47629395 122.07005371 83.12890625 121.19921875 C82.78722412 120.31468018 82.44554199 119.4301416 82.09350586 118.51879883 C80.99516144 115.72959183 79.84955328 112.96407726 78.69140625 110.19921875 C78.30919922 109.24660156 77.92699219 108.29398438 77.53320312 107.3125 C77.15357422 106.40886719 76.77394531 105.50523438 76.3828125 104.57421875 C76.04580322 103.75695312 75.70879395 102.9396875 75.36157227 102.09765625 C74.29375918 100.00396488 74.29375918 100.00396488 72.05186462 99.58056641 C71.41728836 99.45472168 70.7827121 99.32887695 70.12890625 99.19921875 Z M-41.80859375 109.38671875 C-43.36568547 113.50843213 -43.1297733 116.99599189 -41.87109375 121.19921875 C-39.38199102 124.36105194 -36.79506082 127.0780853 -32.87109375 128.19921875 C-27.93833121 128.12092093 -25.86247978 127.99663795 -21.99609375 124.88671875 C-18.7945107 120.83765784 -17.82758068 119.56988034 -17.99609375 114.26171875 C-18.62131682 110.31178003 -19.96347918 108.02375862 -22.87109375 105.19921875 C-29.73678317 100.22751262 -36.78161399 103.71109644 -41.80859375 109.38671875 Z M-54.7578125 138.984375 C-56.38689431 140.03335941 -57.98678865 141.12871188 -59.55859375 142.26171875 C-61.28599235 143.4173635 -63.01386428 144.57230103 -64.7421875 145.7265625 C-65.59538574 146.31550293 -66.44858398 146.90444336 -67.32763672 147.51123047 C-69.73770391 149.11069337 -72.17322466 150.51987711 -74.71875 151.890625 C-75.46358643 152.30368896 -76.20842285 152.71675293 -76.97583008 153.14233398 C-78.36976032 153.9102885 -79.77691869 154.654868 -81.19799805 155.37133789 C-83.381278 156.53106267 -83.381278 156.53106267 -85.87109375 159.19921875 C-86.42579098 162.60495462 -86.27326685 165.78240243 -85.87109375 169.19921875 C-84.69305176 169.87126343 -84.69305176 169.87126343 -83.49121094 170.55688477 C-80.51634028 172.25434439 -77.54176826 173.95232517 -74.56738281 175.65063477 C-73.29145639 176.37902678 -72.01541866 177.10722386 -70.73925781 177.83520508 C-62.4236085 182.57905384 -54.13066921 187.35815789 -45.87109375 192.19921875 C-42.40609375 190.21921875 -42.40609375 190.21921875 -38.87109375 188.19921875 C-38.87109375 173.01921875 -38.87109375 157.83921875 -38.87109375 142.19921875 C-48.7688919 136.14940406 -48.7688919 136.14940406 -54.7578125 138.984375 Z M96.12890625 142.19921875 C94.7923048 145.55514738 94.7923048 145.55514738 95.12890625 149.19921875 C96.96223958 152.36588542 96.96223958 152.36588542 100.12890625 154.19921875 C103.97164455 154.26547286 106.12091341 154.01821294 109.12890625 151.57421875 C110.61300791 148.0494773 110.18545614 145.83110899 109.12890625 142.19921875 C104.4208515 138.35843724 100.836961 138.35843724 96.12890625 142.19921875 Z M-22.87109375 143.19921875 C-23.0741359 149.51579787 -23.21410888 155.83153503 -23.31054688 162.15063477 C-23.35074995 164.29939211 -23.4053238 166.44793099 -23.47460938 168.59594727 C-23.57180491 171.68690821 -23.61704995 174.77497613 -23.65234375 177.8671875 C-23.69363403 178.82570114 -23.73492432 179.78421478 -23.77746582 180.77177429 C-23.8455205 185.86640396 -23.8455205 185.86640396 -21.13725281 189.94656372 C-18.00488838 191.98818552 -15.78631889 193.16917032 -12.015625 193.29296875 C-7.40262665 191.68844759 -2.98859974 189.75067672 1.44140625 187.69921875 C2.35986328 187.28285156 3.27832031 186.86648437 4.22460938 186.4375 C8.46016118 184.75611348 8.46016118 184.75611348 12.12890625 182.19921875 C13.52858712 176.6744872 14.85015078 170.91736538 14.12890625 165.19921875 C11.53486083 161.08221764 8.14830442 158.84875191 4.12890625 156.19921875 C2.79631317 155.05555663 1.48197608 153.89009947 0.19140625 152.69921875 C-3.08897544 149.84817127 -6.40762039 147.04450344 -9.74609375 144.26171875 C-10.67164063 143.48957031 -11.5971875 142.71742188 -12.55078125 141.921875 C-16.61956384 138.90111217 -18.6879461 141.01670693 -22.87109375 143.19921875 Z M-114.24609375 158.76171875 C-116.5102327 162.15792718 -116.5137913 164.20021177 -115.87109375 168.19921875 C-113.88089258 170.85806476 -113.88089258 170.85806476 -110.87109375 172.19921875 C-107.68699398 172.13553675 -105.72177043 171.70962476 -102.99609375 170.07421875 C-101.1700969 167.03089067 -101.44648794 164.6567232 -101.87109375 161.19921875 C-103.35102531 158.63583186 -103.35102531 158.63583186 -105.87109375 157.19921875 C-109.5074195 156.59316446 -111.15424144 156.72760539 -114.24609375 158.76171875 Z M81.21484375 166.16796875 C80.45429688 166.57402344 79.69375 166.98007813 78.91015625 167.3984375 C78.11609375 167.82769531 77.32203125 168.25695312 76.50390625 168.69921875 C75.70210938 169.12847656 74.9003125 169.55773437 74.07421875 170 C72.09044115 171.062738 70.10880495 172.12927669 68.12890625 173.19921875 C68.14572621 176.29696308 68.33935886 179.19577783 69.12890625 182.19921875 C71.62008056 184.51189124 71.62008056 184.51189124 75.06640625 185.76171875 C75.67597168 186.02782959 76.28553711 186.29394043 76.91357422 186.56811523 C78.24855963 187.14885558 79.58978727 187.71539948 80.93603516 188.26953125 C83.30098609 189.27217355 85.60786939 190.36550921 87.921875 191.48046875 C89.53203294 192.24198407 91.14270358 193.00241634 92.75390625 193.76171875 C93.523396 194.13304932 94.29288574 194.50437988 95.08569336 194.88696289 C95.81409424 195.21817139 96.54249512 195.54937988 97.29296875 195.890625 C98.25904053 196.34223999 98.25904053 196.34223999 99.24462891 196.80297852 C101.19357057 197.37148776 101.19357057 197.37148776 103.30615234 196.53100586 C105.24441941 195.34749954 105.24441941 195.34749954 105.93505859 193.37915039 C106.32593124 188.98355608 104.87555572 184.85286816 103.75390625 180.63671875 C103.53863281 179.67830078 103.32335937 178.71988281 103.1015625 177.73242188 C101.80010247 172.46217044 101.80010247 172.46217044 97.97924805 168.9387207 C95.58989549 168.11736365 95.58989549 168.11736365 93.20825195 167.65332031 C90.64500492 167.09354111 89.11531064 165.86779844 87.12890625 164.19921875 C84.62685885 164.19921875 83.41602139 164.98524644 81.21484375 166.16796875 Z M29.19140625 172.38671875 C27.63289844 176.51218061 27.87654046 179.99157514 29.12890625 184.19921875 C31.9263883 187.85148699 34.63058298 190.10206673 39.12890625 191.19921875 C44.55998147 191.08366396 47.30845389 188.93284265 51.12890625 185.19921875 C53.38146918 182.35903071 53.12260837 181.00083566 53.00390625 177.26171875 C52.37868318 173.31178003 51.03652082 171.02375862 48.12890625 168.19921875 C41.26321683 163.22751262 34.21838601 166.71109644 29.19140625 172.38671875 Z M-129.69140625 185.76953125 C-131.1904248 186.61004028 -131.1904248 186.61004028 -132.71972656 187.4675293 C-134.34152832 188.38659058 -134.34152832 188.38659058 -135.99609375 189.32421875 C-137.10307617 189.9478833 -138.21005859 190.57154785 -139.35058594 191.21411133 C-150.92617748 197.75630279 -162.42542657 204.4323388 -173.87109375 211.19921875 C-174.72909576 211.56350983 -175.58709778 211.9278009 -176.47109985 212.3031311 C-179.22668735 214.05992721 -179.22668735 214.05992721 -179.55984497 217.6191864 C-179.61396855 219.05878218 -179.64027723 220.49958051 -179.64501953 221.94018555 C-179.66663147 222.72756607 -179.68824341 223.51494659 -179.71051025 224.32618713 C-179.7733845 226.93389905 -179.79768183 229.54005632 -179.81640625 232.1484375 C-179.84009389 233.96344909 -179.86409532 235.77845661 -179.88839722 237.59346008 C-179.93191073 241.40250059 -179.95313193 245.21099537 -179.96240234 249.02026367 C-179.97863002 253.89028933 -180.0778729 258.75476585 -180.19786263 263.62318707 C-180.27620647 267.37501385 -180.29565818 271.12551753 -180.29919052 274.87809181 C-180.31059569 276.67199932 -180.34340202 278.46590823 -180.3984108 280.25900841 C-180.7202276 288.37907275 -180.7202276 288.37907275 -178.87109375 296.19921875 C-174.96953338 300.1577843 -171.00693286 302.03918657 -165.87109375 304.19921875 C-164.57177988 304.93002775 -163.28247323 305.67973749 -162.01538086 306.46508789 C-160.4724939 307.34088501 -160.4724939 307.34088501 -158.8984375 308.234375 C-158.32380264 308.56159042 -157.74916779 308.88880585 -157.15711975 309.22593689 C-155.37547762 310.23999342 -153.59215498 311.25104222 -151.80859375 312.26171875 C-150.02880555 313.27257998 -148.24940537 314.28411232 -146.47061157 315.29672241 C-144.73474131 316.28334554 -142.99604989 317.26499973 -141.25732422 318.24658203 C-138.98470004 319.55706856 -136.73343026 320.90524661 -134.50439453 322.28857422 C-132.92440674 323.26334717 -132.92440674 323.26334717 -131.3125 324.2578125 C-129.91753296 325.14231079 -129.91753296 325.14231079 -128.49438477 326.04467773 C-124.78892146 327.67549542 -122.55345231 326.84731296 -118.9140625 325.4453125 C-118.30175781 325.17847656 -117.68945312 324.91164063 -117.05859375 324.63671875 C-110.59403605 322.19589509 -105.91523513 322.60288509 -99.68359375 325.26171875 C-98.88566406 325.64457031 -98.08773437 326.02742187 -97.265625 326.421875 C-93.47830985 327.6513623 -90.79276029 326.65913637 -87.29077148 324.91162109 C-86.38786377 324.3748877 -85.48495605 323.8381543 -84.5546875 323.28515625 C-83.54212891 322.68832031 -82.52957031 322.09148437 -81.48632812 321.4765625 C-80.43767578 320.84878906 -79.38902344 320.22101563 -78.30859375 319.57421875 C-76.24479167 318.35286458 -74.18098958 317.13151042 -72.1171875 315.91015625 C-71.0967334 315.2955957 -70.0762793 314.68103516 -69.02490234 314.04785156 C-66.86869697 312.7839727 -64.68167395 311.571626 -62.47119141 310.40527344 C-61.38757324 309.82422852 -60.30395508 309.24318359 -59.1875 308.64453125 C-58.20338135 308.13680176 -57.2192627 307.62907227 -56.20532227 307.10595703 C-53.09937549 304.56883285 -52.89096075 302.6039454 -52.37109375 298.69921875 C-52.25507813 297.013125 -52.25507813 297.013125 -52.13671875 295.29296875 C-51.65080762 289.63353327 -49.03466134 286.03644686 -44.80859375 282.32421875 C-41.87109375 280.19921875 -41.87109375 280.19921875 -38.87109375 279.19921875 C-38.66788043 272.61609785 -38.52800506 266.03378779 -38.43164062 259.44824219 C-38.39146329 257.20932799 -38.33690873 254.970623 -38.26757812 252.73242188 C-38.1702726 249.5098919 -38.12511044 246.29013951 -38.08984375 243.06640625 C-38.04855347 242.06930634 -38.00726318 241.07220642 -37.96472168 240.04489136 C-37.906554 234.68594901 -37.906554 234.68594901 -40.62182617 230.28033447 C-42.64302437 228.77212579 -44.71191036 227.49683928 -46.87109375 226.19921875 C-50.60180688 222.2721523 -52.83601475 218.40076251 -52.89672852 212.85961914 C-52.89405646 207.83565468 -52.89405646 207.83565468 -55.29956055 203.64282227 C-57.34922066 202.34199916 -59.40746555 201.32105982 -61.62109375 200.32421875 C-63.25692118 199.51255756 -64.89096277 198.69728973 -66.5234375 197.87890625 C-67.38952637 197.45577148 -68.25561523 197.03263672 -69.14794922 196.59667969 C-72.02948826 195.11793399 -74.78968111 193.50527587 -77.5625 191.83203125 C-78.96773926 190.98874268 -78.96773926 190.98874268 -80.40136719 190.12841797 C-82.23253458 189.02322585 -84.05762998 187.90789961 -85.87597656 186.78173828 C-87.13619629 186.03706299 -87.13619629 186.03706299 -88.421875 185.27734375 C-89.16091064 184.8277832 -89.89994629 184.37822266 -90.66137695 183.91503906 C-93.69608721 182.93196863 -95.08096897 183.79802829 -97.87109375 185.19921875 C-103.8890855 187.71837809 -110.21114996 188.47658912 -116.4453125 186.30078125 C-118.00001854 185.59477947 -119.54013662 184.85513956 -121.05859375 184.07421875 C-124.62057916 182.35463959 -126.44206667 183.94144463 -129.69140625 185.76953125 Z M5.12890625 201.88671875 C4.01 202.30244141 2.89109375 202.71816406 1.73828125 203.14648438 C-4.5584307 205.80725001 -4.5584307 205.80725001 -8.20483398 211.32543945 C-9.55633161 217.91024123 -9.55633161 217.91024123 -7.06225586 223.87207031 C-4.78662509 226.15944594 -2.36968079 228.15987356 0.12890625 230.19921875 C1.34823609 231.52479725 2.53837681 232.87808342 3.69140625 234.26171875 C4.83571176 235.575551 5.98159726 236.88800848 7.12890625 238.19921875 C7.78890625 238.96234375 8.44890625 239.72546875 9.12890625 240.51171875 C10.14984375 241.62546875 10.14984375 241.62546875 11.19140625 242.76171875 C11.80113281 243.44363281 12.41085937 244.12554687 13.0390625 244.828125 C15.16801956 246.53359227 15.16801956 246.53359227 18.375 245.9140625 C19.28378906 245.67816406 20.19257813 245.44226563 21.12890625 245.19921875 C23.8235222 231.57567819 26.17936352 217.94940272 28.12890625 204.19921875 C26.67525356 203.02672522 25.21583206 201.86138059 23.75390625 200.69921875 C22.94179688 200.04953125 22.1296875 199.39984375 21.29296875 198.73046875 C16.40755787 195.27364372 10.07162312 199.82820245 5.12890625 201.88671875 Z M61.12890625 197.19921875 C61.12890625 197.85921875 61.12890625 198.51921875 61.12890625 199.19921875 C60.26072266 199.63041016 60.26072266 199.63041016 59.375 200.0703125 C57.96492963 200.77902613 56.56029951 201.49878294 55.1640625 202.234375 C51.50348447 204.14077504 48.28120405 205.68018152 44.12890625 206.19921875 C42.21326997 213.18144443 41.01644751 220.26318589 39.84179688 227.40039062 C39.50226402 229.45917652 39.1557501 231.51670616 38.80859375 233.57421875 C38.58942736 234.89185789 38.37066298 236.20956398 38.15234375 237.52734375 C37.95560059 238.71231445 37.75885742 239.89728516 37.55615234 241.11816406 C37.0373366 244.34114397 37.0373366 244.34114397 37.12890625 248.19921875 C38.71991875 249.60304319 38.71991875 249.60304319 41.12890625 250.19921875 C44.166283 248.71045527 46.84371398 247.01816401 49.64453125 245.140625 C54.36663969 242.16859622 57.54767627 241.67134471 63.12890625 242.19921875 C65.19140625 243.63671875 65.19140625 243.63671875 66.12890625 246.19921875 C66.05536593 249.25114186 65.66154434 252.19591 65.12890625 255.19921875 C64.07123047 255.59753906 64.07123047 255.59753906 62.9921875 256.00390625 C59.97322839 257.26420842 57.17705549 258.73879869 54.31640625 260.32421875 C52.85267578 261.13246094 52.85267578 261.13246094 51.359375 261.95703125 C50.62332031 262.36695313 49.88726562 262.776875 49.12890625 263.19921875 C49.12890625 265.83921875 49.12890625 268.47921875 49.12890625 271.19921875 C53.73268537 273.36865181 58.33678592 275.53740084 62.94116211 277.70556641 C64.50146803 278.44041292 66.06169196 279.17543355 67.62182617 279.91064453 C68.37375244 280.26497559 69.12567871 280.61930664 69.90039062 280.984375 C70.64894318 281.33715515 71.39749573 281.6899353 72.16873169 282.05340576 C74.40569821 283.10567171 76.64495047 284.15296389 78.88427734 285.20019531 C81.60336375 286.47384229 84.30808805 287.77156504 87.00244141 289.09667969 C88.15405762 289.65387695 89.30567383 290.21107422 90.4921875 290.78515625 C91.9913269 291.52451416 91.9913269 291.52451416 93.52075195 292.27880859 C96.3286813 293.26971879 97.41636799 293.31096413 100.12890625 292.19921875 C101.9370485 291.09921888 101.9370485 291.09921888 103.62890625 289.76171875 C106.1301841 287.85733675 108.23867708 286.64433333 111.12890625 285.19921875 C111.12890625 268.69921875 111.12890625 252.19921875 111.12890625 235.19921875 C105.79539371 231.79014711 105.79539371 231.79014711 102.25390625 232.69921875 C99.67726552 233.9360063 97.5450049 235.2370135 95.19140625 236.82421875 C91.37857968 239.28104964 88.72272671 239.99430306 84.12890625 239.19921875 C81.62890625 237.76171875 81.62890625 237.76171875 80.12890625 235.19921875 C80.10773516 232.12411775 80.53670262 229.21173289 81.12890625 226.19921875 C81.84433594 225.9259375 82.55976563 225.65265625 83.296875 225.37109375 C86.11864664 224.20346411 88.76710221 222.92305742 91.44140625 221.44921875 C92.32441406 220.98 93.20742188 220.51078125 94.1171875 220.02734375 C96.48437992 218.28985102 96.48437992 218.28985102 96.421875 214.99609375 C96.32519531 214.073125 96.22851562 213.15015625 96.12890625 212.19921875 C88.32228579 208.18295099 80.44905289 204.3610254 72.44140625 200.76171875 C71.66361816 200.40787109 70.88583008 200.05402344 70.08447266 199.68945312 C68.9869165 199.2012207 68.9869165 199.2012207 67.8671875 198.703125 C67.21790283 198.41252197 66.56861816 198.12191895 65.8996582 197.82250977 C63.9701452 197.03320671 63.9701452 197.03320671 61.12890625 197.19921875 Z M-35.87109375 204.19921875 C-38.1985872 207.69045892 -38.37408691 209.09144126 -37.87109375 213.19921875 C-36.43448064 215.71928719 -36.43448064 215.71928719 -33.87109375 217.19921875 C-30.37109375 217.94921875 -30.37109375 217.94921875 -26.87109375 217.19921875 C-24.21224774 215.20901758 -24.21224774 215.20901758 -22.87109375 212.19921875 C-22.62432369 209.09628582 -22.62432369 209.09628582 -23.87109375 206.19921875 C-28.0058108 202.0645017 -30.78610083 201.08261018 -35.87109375 204.19921875 Z M112.12890625 211.19921875 C112.06265214 215.04195705 112.30991206 217.19122591 114.75390625 220.19921875 C118.24472412 221.6690368 120.52039581 221.18335796 124.12890625 220.19921875 C126.29557292 218.69921875 126.29557292 218.69921875 127.12890625 216.19921875 C127.06242228 212.40963269 126.96116027 210.12064284 124.37890625 207.26171875 C118.75386516 204.60544935 115.69880126 206.26436389 112.12890625 211.19921875 Z M-22.87109375 232.19921875 C-22.87109375 247.37921875 -22.87109375 262.55921875 -22.87109375 278.19921875 C-16.81052551 282.68672973 -16.81052551 282.68672973 -13.32421875 281.671875 C-12.5146875 281.18589844 -11.70515625 280.69992187 -10.87109375 280.19921875 C-9.8553125 279.64105469 -8.83953125 279.08289063 -7.79296875 278.5078125 C-6.22289062 277.58162109 -6.22289062 277.58162109 -4.62109375 276.63671875 C-3.5640625 276.01667969 -2.50703125 275.39664063 -1.41796875 274.7578125 C2.6425784 272.27290711 2.98631774 270.31558468 4.19140625 265.63671875 C4.95460418 261.59847648 5.01841304 258.59637978 2.76171875 255.05175781 C-1.01790244 250.63746848 -5.36114936 246.87455744 -9.77685547 243.11376953 C-12.56426057 240.56552626 -14.90530588 237.73507496 -17.25024414 234.78100586 C-18.99670415 232.81081655 -18.99670415 232.81081655 -22.87109375 232.19921875 Z M19.69140625 262.82421875 C17.65729289 265.91607106 17.52285196 267.562893 18.12890625 271.19921875 C19.9247831 273.57234173 21.39753656 274.84533019 24.06640625 276.13671875 C27.13030111 276.22956405 28.70334024 274.98647791 31.12890625 273.19921875 C33.4442822 270.3821368 33.4442822 270.3821368 32.94140625 267.19921875 C31.98706345 263.4666236 31.98706345 263.4666236 29.12890625 261.19921875 C25.19795918 260.6989164 23.02832755 260.59960455 19.69140625 262.82421875 Z M35.12890625 289.19921875 C35.53342008 294.68051432 35.94247056 300.1614454 36.35571289 305.64208984 C36.49563063 307.50625456 36.6343123 309.37051249 36.77172852 311.23486328 C36.9695601 313.9159455 37.17184704 316.59666015 37.375 319.27734375 C37.43546005 320.109776 37.4959201 320.94220825 37.55821228 321.79986572 C37.61819901 322.58037292 37.67818573 323.36088013 37.73999023 324.16503906 C37.7910643 324.84898743 37.84213837 325.53293579 37.89476013 326.23760986 C38.1420908 328.30967512 38.4940464 330.21002339 39.12890625 332.19921875 C40.82935256 333.50995779 40.82935256 333.50995779 42.94140625 334.38671875 C43.97201172 334.87205078 43.97201172 334.87205078 45.0234375 335.3671875 C49.19078303 337.11401468 49.19078303 337.11401468 53.53222656 336.33813477 C54.85625488 335.65255493 54.85625488 335.65255493 56.20703125 334.953125 C57.19638672 334.4487793 58.18574219 333.94443359 59.20507812 333.42480469 C60.25244141 332.87598633 61.29980469 332.32716797 62.37890625 331.76171875 C64.54034449 330.65360663 66.70180289 329.54553385 68.86328125 328.4375 C69.92482422 327.88787598 70.98636719 327.33825195 72.08007812 326.77197266 C76.24330779 324.6243489 80.43377215 322.5336089 84.62890625 320.44921875 C85.91034129 319.80896396 87.19161305 319.16838218 88.47265625 318.52734375 C89.34921875 318.0890625 90.22578125 317.65078125 91.12890625 317.19921875 C91.12890625 314.22921875 91.12890625 311.25921875 91.12890625 308.19921875 C81.01086612 302.99042507 70.75209282 298.08232312 60.45654297 293.23635864 C58.9858761 292.54387619 57.51582473 291.85008505 56.04638672 291.15499878 C53.95336735 290.16570355 51.85794515 289.18169693 49.76171875 288.19921875 C49.12275665 287.89645523 48.48379456 287.59369171 47.82546997 287.28175354 C41.8097171 284.47741414 40.55626574 285.42366432 35.12890625 289.19921875 Z M-6.87109375 296.19921875 C-9.21578535 300.83099281 -9.40239032 304.24963417 -7.87109375 309.19921875 C-4.77207481 313.32928011 -1.00907932 316.15524161 3.12890625 319.19921875 C5.07275914 320.79568137 7.01054418 322.39956844 8.94140625 324.01171875 C9.84503906 324.73875 10.74867188 325.46578125 11.6796875 326.21484375 C13.70572421 327.85635355 15.67108963 329.54077377 17.62890625 331.26171875 C19.99696457 333.50550458 19.99696457 333.50550458 23.12890625 333.19921875 C22.749094 327.71743948 22.35819042 322.23660618 21.95703125 316.75634766 C21.82214856 314.89230781 21.69028806 313.02804669 21.56152344 311.16357422 C21.37580643 308.48210632 21.17919982 305.80162466 20.98046875 303.12109375 C20.92516998 302.2886615 20.86987122 301.45622925 20.81289673 300.59857178 C20.75298553 299.81806458 20.69307434 299.03755737 20.63134766 298.23339844 C20.5824942 297.54945007 20.53364075 296.86550171 20.48330688 296.16082764 C20.06483451 293.84458142 19.36637946 292.20071089 18.12890625 290.19921875 C9.13816416 284.72659313 0.16984152 289.38467276 -6.87109375 296.19921875 Z M-37.87109375 298.19921875 C-37.93734786 302.04195705 -37.69008794 304.19122591 -35.24609375 307.19921875 C-31.75527588 308.6690368 -29.47960419 308.18335796 -25.87109375 307.19921875 C-23.70442708 305.69921875 -23.70442708 305.69921875 -22.87109375 303.19921875 C-22.93757772 299.40963269 -23.03883973 297.12064284 -25.62109375 294.26171875 C-31.24613484 291.60544935 -34.30119874 293.26436389 -37.87109375 298.19921875 Z M108.25390625 305.94921875 C106.55557937 309.34587251 106.49997098 312.53160747 107.12890625 316.19921875 C108.95798114 319.92771757 110.52759761 321.78498391 113.94140625 324.13671875 C117.92910264 325.46595088 120.0889078 325.35350402 124.12890625 324.19921875 C127.03552866 322.32881375 129.55607074 320.34488976 131.12890625 317.19921875 C131.76149883 313.26753578 131.86601309 309.72125996 130.10546875 306.0859375 C127.43430715 302.52192906 125.05435938 300.76801446 120.62890625 300.01171875 C115.09862542 299.80689353 112.17519081 302.28935317 108.25390625 305.94921875 Z M-49.52734375 320.13037109 C-50.46578125 320.6764502 -51.40421875 321.2225293 -52.37109375 321.78515625 C-53.4178125 322.38271729 -54.46453125 322.98027832 -55.54296875 323.59594727 C-56.64125 324.24877686 -57.73953125 324.90160645 -58.87109375 325.57421875 C-59.99 326.22382568 -61.10890625 326.87343262 -62.26171875 327.54272461 C-64.4749077 328.83219669 -66.68339042 330.12978563 -68.88671875 331.43603516 C-71.36660117 332.90116203 -73.85958576 334.33241481 -76.37109375 335.7421875 C-77.53861452 336.41388219 -78.70538288 337.0868879 -79.87109375 337.76171875 C-80.84046875 338.31988281 -81.80984375 338.87804687 -82.80859375 339.453125 C-85.0639522 341.06162938 -85.0639522 341.06162938 -85.74609375 343.7265625 C-86.02819034 346.33413232 -86.02819034 346.33413232 -84.87109375 349.19921875 C-82.94410306 350.54184 -82.94410306 350.54184 -80.5390625 351.6796875 C-79.65798828 352.12119141 -78.77691406 352.56269531 -77.86914062 353.01757812 C-76.94166016 353.46939453 -76.01417969 353.92121094 -75.05859375 354.38671875 C-73.68477539 355.0818457 -73.68477539 355.0818457 -72.28320312 355.79101562 C-66.86165012 358.52701549 -66.86165012 358.52701549 -60.87109375 359.19921875 C-60.16984375 358.62171875 -59.46859375 358.04421875 -58.74609375 357.44921875 C-55.85404199 355.1858739 -54.29745582 354.74118356 -50.85546875 353.80078125 C-47.58491017 352.52556618 -46.22063218 351.92671803 -44.68212891 348.72460938 C-43.97815201 345.58498657 -43.56208183 342.52597753 -43.24609375 339.32421875 C-43.10042969 338.24785156 -42.95476562 337.17148437 -42.8046875 336.0625 C-42.15887423 331.07436134 -41.80882486 326.2318464 -41.87109375 321.19921875 C-44.90675545 319.5638385 -46.20315057 318.96507029 -49.52734375 320.13037109 Z M-25.87109375 323.19921875 C-26.54395594 327.42742389 -27.20829914 331.65692474 -27.87109375 335.88671875 C-28.061875 337.08490234 -28.25265625 338.28308594 -28.44921875 339.51757812 C-28.6296875 340.67451172 -28.81015625 341.83144531 -28.99609375 343.0234375 C-29.16367187 344.08651123 -29.33125 345.14958496 -29.50390625 346.24487305 C-29.84374157 348.97914649 -30.14391637 351.45573598 -29.87109375 354.19921875 C-27.14419928 356.29564888 -27.14419928 356.29564888 -23.87109375 358.19921875 C-22.16781056 359.82844615 -20.48948094 361.48563232 -18.87109375 363.19921875 C-9.30650097 360.84422182 -0.12025919 357.54973706 9.12890625 354.19921875 C9.87422407 351.15432792 10.32650212 348.33807768 10.12890625 345.19921875 C8.083173 342.64932375 6.63335531 341.24499272 4.06640625 339.38671875 C2.77779584 338.37608285 1.49006186 337.36432864 0.203125 336.3515625 C-0.80161865 335.58368408 -0.80161865 335.58368408 -1.82666016 334.80029297 C-5.83794968 331.65889857 -9.60724221 328.22662728 -13.42602539 324.85620117 C-18.42627586 320.52759359 -19.75773045 321.07283152 -25.87109375 323.19921875 Z M92.22412109 333.92749023 C91.44676605 334.30465683 90.66941101 334.68182343 89.86849976 335.07041931 C89.03404327 335.48288406 88.19958679 335.89534882 87.33984375 336.3203125 C86.48081451 336.73966568 85.62178528 337.15901886 84.73672485 337.59107971 C82.92143819 338.47861346 81.10753608 339.36898383 79.29492188 340.26196289 C76.51080735 341.63331951 73.72262971 342.9961067 70.93359375 344.35742188 C69.17293327 345.21955433 67.41250839 346.08216816 65.65234375 346.9453125 C64.81383881 347.35575302 63.97533386 347.76619354 63.11141968 348.18907166 C62.34036896 348.56939041 61.56931824 348.94970917 60.77490234 349.34155273 C60.09334076 349.67686508 59.41177917 350.01217743 58.70956421 350.35765076 C57.13189413 351.09894925 57.13189413 351.09894925 56.12890625 352.19921875 C55.70625031 355.28135591 55.45699708 357.2340245 56.12890625 360.19921875 C58.13233957 362.67483673 60.58574934 364.2453957 63.25390625 365.94921875 C63.9190625 366.40425781 64.58421875 366.85929687 65.26953125 367.328125 C66.58298663 368.22178974 67.90592876 369.10168978 69.23852539 369.96655273 C70.45987213 370.76295977 71.66868707 371.57908142 72.86108398 372.41821289 C76.07087636 374.72870066 76.07087636 374.72870066 79.94140625 375.13671875 C80.99328125 374.82734375 82.04515625 374.51796875 83.12890625 374.19921875 C84.14984375 374.11510742 84.14984375 374.11510742 85.19140625 374.02929688 C88.09736264 373.56262853 89.72935285 372.94521127 92.12890625 371.19921875 C94.60650989 366.67802207 96.1441894 362.02117522 97.61743164 357.09350586 C98.31706038 354.75953657 99.07013287 352.44841806 99.83398438 350.13476562 C100.30399833 348.65857253 100.77090523 347.18138578 101.234375 345.703125 C101.45707565 345.01134659 101.67977631 344.31956818 101.90922546 343.60682678 C102.75696661 340.72372155 103.31055802 338.7619934 102.37231445 335.85522461 C101.08991106 334.06630058 101.08991106 334.06630058 99.12890625 332.19921875 C96.04474707 332.19921875 94.92067163 332.60708085 92.22412109 333.92749023 Z M-113.62109375 339.76171875 C-116.18410619 342.08749014 -116.18410619 342.08749014 -116.43359375 345.69921875 C-116.12134619 349.18969357 -116.12134619 349.18969357 -114.24609375 351.63671875 C-111.15424144 353.67083211 -109.5074195 353.80527304 -105.87109375 353.19921875 C-103.35102531 351.76260564 -103.35102531 351.76260564 -101.87109375 349.19921875 C-101.12109375 345.69921875 -101.12109375 345.69921875 -101.87109375 342.19921875 C-103.99795304 339.64749015 -103.99795304 339.64749015 -106.87109375 338.19921875 C-110.81860525 337.86987914 -110.81860525 337.86987914 -113.62109375 339.76171875 Z M26.12890625 350.19921875 C24.95780176 353.05881935 24.95780176 353.05881935 25.12890625 356.19921875 C26.93565073 359.32627651 28.21344895 360.82364652 31.56640625 362.19921875 C34.89547179 362.19921875 36.49433088 361.17515027 39.12890625 359.19921875 C40.54932446 356.35838234 40.44342897 354.34444597 40.12890625 351.19921875 C38.62890625 348.69921875 38.62890625 348.69921875 36.12890625 347.19921875 C31.81799488 346.57054417 29.09898761 346.89912835 26.12890625 350.19921875 Z M-99.07202148 366.28744507 C-102.17417317 369.58392852 -101.77977287 373.10059332 -101.77746582 377.45625305 C-101.73617554 378.67725204 -101.69488525 379.89825104 -101.65234375 381.15625 C-101.64102417 382.41434982 -101.62970459 383.67244965 -101.61804199 384.96867371 C-101.58087886 388.30286112 -101.50912916 391.63261886 -101.42041016 394.96557617 C-101.33834319 398.37054279 -101.30198709 401.7759686 -101.26171875 405.18164062 C-101.17354426 411.85538625 -101.03970097 418.52704692 -100.87109375 425.19921875 C-97.96565503 423.88544958 -95.90448316 422.47865383 -93.66308594 420.21826172 C-93.0627655 419.61779022 -92.46244507 419.01731873 -91.84393311 418.39865112 C-91.20836487 417.75276031 -90.57279663 417.10686951 -89.91796875 416.44140625 C-89.25774719 415.7783548 -88.59752563 415.11530334 -87.91729736 414.43215942 C-85.81381551 412.31750043 -83.71740233 410.19598663 -81.62109375 408.07421875 C-80.19447114 406.63756318 -78.76739303 405.20135977 -77.33984375 403.765625 C-73.84495714 400.24871071 -70.35639313 396.72563328 -66.87109375 393.19921875 C-67.20850586 392.27197998 -67.54591797 391.34474121 -67.89355469 390.3894043 C-68.98798135 386.81775763 -68.57628074 384.67597405 -68.12109375 381.01171875 C-68.04600718 377.4975304 -68.04600718 377.4975304 -69.87109375 374.19921875 C-77.87969419 368.07267526 -89.74028699 360.32282724 -99.07202148 366.28744507 Z M-52.18359375 372.32421875 C-54.53701687 376.33375444 -54.7984167 379.65853398 -53.87109375 384.19921875 C-52.13105683 387.56519181 -49.74308398 389.67143519 -46.49609375 391.63671875 C-42.36948964 392.52099106 -38.76713435 392.4123454 -35.125 390.08203125 C-32.26146421 387.76098785 -30.16019285 385.99602453 -29.5625 382.28125 C-29.31015633 377.83847205 -29.58979209 374.82679113 -32.30859375 371.19921875 C-35.46379736 367.98420086 -38.31291731 367.14538239 -42.76171875 366.99609375 C-47.0280513 367.40692577 -49.13808415 369.52564236 -52.18359375 372.32421875 Z M7.02734375 371.16796875 C5.815625 371.57402344 4.60390625 371.98007812 3.35546875 372.3984375 C2.07159282 372.83196681 0.78773894 373.26556141 -0.49609375 373.69921875 C-1.78766829 374.13308685 -3.07933388 374.566684 -4.37109375 375 C-7.53866837 376.06373775 -10.70527849 377.13025858 -13.87109375 378.19921875 C-13.98646484 379.01326172 -14.10183594 379.82730469 -14.22070312 380.66601562 C-14.38376953 381.73916016 -14.54683594 382.81230469 -14.71484375 383.91796875 C-14.87146484 384.97951172 -15.02808594 386.04105469 -15.18945312 387.13476562 C-16.01319366 390.83805761 -17.4592403 393.43152005 -19.65234375 396.48046875 C-20.255625 397.33125 -20.255625 397.33125 -20.87109375 398.19921875 C-21.2983374 398.72604248 -21.72558105 399.25286621 -22.16577148 399.7956543 C-23.33092602 403.76621379 -21.1344811 406.85916809 -19.375 410.375 C-18.98924301 411.17721481 -18.60348602 411.97942963 -18.20603943 412.80595398 C-16.96330284 415.38199771 -15.69907686 417.94678467 -14.43359375 420.51171875 C-13.61506203 422.19655011 -12.79798882 423.88209088 -11.98242188 425.56835938 C-10.38417829 428.86986881 -8.77867927 432.16769736 -7.16845703 435.46337891 C-3.98362413 442.00198674 -0.91900506 448.59592979 2.12890625 455.19921875 C2.78890625 455.19921875 3.44890625 455.19921875 4.12890625 455.19921875 C8.044694 437.65373499 11.82446985 420.08131569 15.4548645 402.4744873 C15.86192571 400.5023764 16.27067319 398.53061278 16.68112183 396.5592041 C17.26120588 393.7696472 17.8346558 390.97880726 18.40625 388.1875 C18.66825195 386.93472008 18.66825195 386.93472008 18.93554688 385.65663147 C20.15586699 379.97160174 20.15586699 379.97160174 20.12890625 374.19921875 C17.85779897 371.34437364 17.85779897 371.34437364 15.12890625 369.19921875 C12.20291788 369.19921875 9.79815613 370.23573281 7.02734375 371.16796875 Z M43.31640625 374.63671875 C40.78903574 375.87562586 38.8228062 376.59732787 36.12890625 377.19921875 C34.33535367 385.85750799 32.54432618 394.51631477 30.7564106 403.17576981 C29.92589545 407.19783537 29.09455192 411.21972579 28.26123047 415.24121094 C27.45519828 419.13116263 26.6514528 423.02158072 25.84920883 426.91231537 C25.54464918 428.38742217 25.23930278 429.86236679 24.93310928 431.33713531 C23.14953801 439.93057897 21.48798061 448.52698105 20.12890625 457.19921875 C26.3162338 452.08277482 31.96625496 446.51089827 37.62890625 440.82421875 C38.54027344 439.91671875 39.45164062 439.00921875 40.390625 438.07421875 C44.30704999 434.15214235 48.16188708 430.234907 51.75390625 426.01171875 C54.12146021 423.24140043 56.60545638 420.81050839 59.34765625 418.41015625 C67.79731735 411.63444833 67.79731735 411.63444833 71.9765625 402.19140625 C71.70680373 398.65128432 71.15982237 395.58978733 70.12890625 392.19921875 C70.04632568 391.55533203 69.96374512 390.91144531 69.87866211 390.24804688 C68.7754537 387.23335298 66.89787636 386.29217507 64.25390625 384.52734375 C63.2690625 383.86347656 62.28421875 383.19960938 61.26953125 382.515625 C60.233125 381.83371094 59.19671875 381.15179688 58.12890625 380.44921875 C56.57429688 379.40314453 56.57429688 379.40314453 54.98828125 378.3359375 C49.44528177 373.72414158 49.44528177 373.72414158 43.31640625 374.63671875 Z M87.12890625 390.19921875 C85.47031025 393.00817938 85.47031025 393.00817938 85.12890625 396.19921875 C86.43757689 399.14372769 87.22293488 400.74623306 90.12890625 402.19921875 C93.71066845 402.58854073 95.49172346 402.63518593 98.50390625 400.57421875 C100.61597131 397.48735443 100.7408577 395.87092745 100.12890625 392.19921875 C98.3330294 389.82609577 96.86027594 388.55310731 94.19140625 387.26171875 C91.01395893 387.16543247 89.56522714 388.21169382 87.12890625 390.19921875 Z M-60.4296875 407.77270508 C-61.74213205 409.00513616 -63.03404976 410.25966253 -64.30859375 411.53125 C-64.9929248 412.1970256 -65.67725586 412.86280121 -66.38232422 413.54875183 C-67.82330666 414.96307041 -69.25509605 416.38680757 -70.67822266 417.8190918 C-72.8594184 420.0000447 -75.08614 422.12547237 -77.3203125 424.25195312 C-78.715323 425.63361247 -80.1073553 427.01828661 -81.49609375 428.40625 C-82.50047485 429.35066704 -82.50047485 429.35066704 -83.52514648 430.31416321 C-85.38224071 432.23822416 -86.73734634 433.77343416 -87.87109375 436.19921875 C-87.79816292 439.751518 -87.02834847 442.85222779 -85.87109375 446.19921875 C-79.68956548 448.20190498 -73.50207662 450.18509377 -67.30860901 452.15057373 C-63.41288468 453.38765298 -59.51995682 454.63300314 -55.62939453 455.88623047 C-50.89709438 457.40966027 -46.15982951 458.91681892 -41.4196167 460.41543579 C-39.51157474 461.02151133 -37.60518956 461.63282754 -35.70050049 462.24935913 C-32.99463016 463.12414759 -30.28343947 463.9800603 -27.5703125 464.83203125 C-26.75148087 465.10135971 -25.93264923 465.37068817 -25.08900452 465.6481781 C-24.32833176 465.88303421 -23.567659 466.11789032 -22.78393555 466.35986328 C-22.12209763 466.57111847 -21.4602597 466.78237366 -20.77836609 467.00003052 C-18.23681992 467.26545988 -17.01106265 466.53918029 -14.87109375 465.19921875 C-13.88109375 464.20921875 -13.88109375 464.20921875 -12.87109375 463.19921875 C-13.20888384 458.81297768 -14.5207869 455.39428314 -16.4609375 451.48046875 C-16.99259521 450.39306396 -17.52425293 449.30565918 -18.07202148 448.18530273 C-18.94753491 446.4277523 -19.82305556 444.67020542 -20.69900513 442.91287231 C-21.60344022 441.09457549 -22.50430877 439.27459115 -23.40234375 437.453125 C-23.70156235 436.84662613 -24.00078094 436.24012726 -24.30906677 435.61524963 C-26.22624538 431.6747093 -27.90464812 427.69521274 -29.46484375 423.6015625 C-32.87389031 413.3622216 -32.87389031 413.3622216 -40.390625 406.43359375 C-44.03937465 405.89869851 -47.20378928 405.93416475 -50.87109375 406.19921875 C-52.22799316 405.76319336 -52.22799316 405.76319336 -53.61230469 405.31835938 C-57.30501031 405.18335485 -57.72779242 405.50024051 -60.4296875 407.77270508 Z M-114.87109375 441.19921875 C-117.1985872 444.69045892 -117.37408691 446.09144126 -116.87109375 450.19921875 C-115.43448064 452.71928719 -115.43448064 452.71928719 -112.87109375 454.19921875 C-109.37109375 454.94921875 -109.37109375 454.94921875 -105.87109375 454.19921875 C-103.21224774 452.20901758 -103.21224774 452.20901758 -101.87109375 449.19921875 C-101.9362273 445.94254107 -102.26723613 444.03311737 -104.18359375 441.38671875 C-108.09806164 438.6320932 -110.68782639 438.99749909 -114.87109375 441.19921875 Z M-3.87109375 476.19921875 C-6.18314947 479.45711545 -6.34358732 482.26177233 -5.87109375 486.19921875 C-3.80614333 489.96037844 -1.78383783 493.29572163 2.12890625 495.19921875 C5.94305436 495.85557311 9.46717029 496.05292243 12.9765625 494.25 C16.22538988 491.71958654 18.2682667 489.21553665 19.12890625 485.19921875 C19.01789498 479.09359897 17.23701681 476.40752713 13.12890625 472.19921875 C6.51649706 468.89301416 0.81758323 471.16746784 -3.87109375 476.19921875 Z " fill="#000000" transform="translate(364.87109375,0.80078125)"/>
<path d="M0 0 C2.39216609 1.5947774 2.88287964 2.65764819 3.8125 5.375 C4.04465081 8.62511139 3.56342792 10.1373855 2 13 C-0.6875 14.703125 -0.6875 14.703125 -4 16.25 C-13.82700547 21.25580058 -20.77061835 27.98923392 -27 37 C-28 38 -28 38 -31.4375 38.375 C-36.19970012 38.34925838 -39.6118577 36.4780859 -43.703125 34.19140625 C-50.99214164 30.41053878 -61.19890002 31.05304938 -69.109375 32.61328125 C-79.75466524 36.10530565 -88.07677485 42.56950393 -93.62890625 52.2890625 C-98.61686452 62.15129337 -99.7427959 72.41041433 -96.875 83.25 C-93.1725143 93.70609386 -87.02575998 102.13288001 -77.2109375 107.53515625 C-71.84950516 109.96123975 -66.89933059 111.27451823 -61.0625 112 C-54.31783139 112.88255568 -54.31783139 112.88255568 -51.625 115.1875 C-50 118 -50 118 -50 121.625 C-50.94543759 124.81585187 -51.36371447 126.10187442 -54 128 C-60.10980667 131.05490334 -70.10175982 128.22432796 -76.3125 126.25 C-89.4278631 121.36865294 -99.01118481 113.48392184 -107 102 C-108.32481269 100.32655239 -109.65407903 98.65651812 -111 97 C-121.97937711 104.51875711 -128.83495362 114.21022506 -131.71875 127.25 C-132.98715549 134.72691656 -132.95718577 141.43470745 -131.8984375 148.94140625 C-132.03128305 152.94210113 -133.11555073 154.28325127 -136 157 C-138.515625 158.1171875 -138.515625 158.1171875 -141.25 158.875 C-148.61453626 161.33312292 -153.81281521 165.23587238 -157.4375 172.1875 C-159.36746453 176.43688379 -160.13954381 180.20643754 -160.125 184.875 C-160.12757813 185.69742188 -160.13015625 186.51984375 -160.1328125 187.3671875 C-159.98475135 190.30228206 -159.53051948 193.11161617 -159 196 C-158.17757812 195.57847656 -157.35515625 195.15695313 -156.5078125 194.72265625 C-142.86965558 188.02956538 -142.86965558 188.02956538 -136 189 C-132.39050083 191.38226945 -131.25514773 192.77529091 -130.375 197 C-131.25487958 201.22342197 -132.52712838 202.41237016 -136 205 C-137.69195221 205.64862768 -139.40303264 206.24836477 -141.125 206.8125 C-152.79613661 210.75523928 -162.10846085 219.13928501 -167.56640625 230.1640625 C-172.95017691 242.77220917 -174.33257892 256.42535316 -169.9375 269.625 C-164.96507661 281.60338689 -155.62437521 291.49120791 -143.8125 296.97265625 C-137.19163938 299.3911095 -130.21379975 300.62033868 -123.23046875 301.4453125 C-120 302 -120 302 -117.5 304.125 C-115.52201906 307.91613014 -115.86888326 309.92797973 -117 314 C-118.125 315.875 -118.125 315.875 -120 317 C-125.42822182 318.10485931 -130.03770175 317.85789572 -135.4375 317.0625 C-136.16904297 316.96259766 -136.90058594 316.86269531 -137.65429688 316.75976562 C-139.43738769 316.51502767 -141.21888442 316.25872147 -143 316 C-148.10270681 327.31469771 -148.65503768 338.48791465 -144.27734375 350.265625 C-141.76146567 355.65129672 -138.22457522 359.87571143 -134 364 C-133.52691406 363.17757813 -133.05382812 362.35515625 -132.56640625 361.5078125 C-128.05668349 353.8949082 -123.28627384 347.29711225 -117 341 C-116.31421875 340.30261719 -115.6284375 339.60523438 -114.921875 338.88671875 C-100.1088658 324.75949701 -81.361686 318.99174239 -61.3203125 318.5390625 C-58 319 -58 319 -55.58203125 320.8046875 C-53.29114757 323.98364214 -53.52208977 326.17671812 -54 330 C-55.76015131 333.1850357 -56.49890916 333.83296972 -60 335 C-61.7462071 335.19011959 -63.49279863 335.37761291 -65.24145508 335.54370117 C-83.00358324 337.31300428 -98.33655045 344.21592326 -110 358 C-121.45007419 373.14364651 -125.5393598 390.30107786 -123 409 C-122.6582792 410.48720742 -122.28896842 411.96876273 -121.875 413.4375 C-120.75173248 418.01080346 -120.76185125 421.74219934 -123.0625 425.9375 C-126.19027986 427.65273412 -129.58705202 427.83194701 -133 427 C-139.26373381 422.15984206 -139.49255725 413.95176655 -140.44140625 406.5625 C-140.88311229 401.64223022 -141.18836357 396.93093993 -140.515625 392.02734375 C-140.02066552 388.22140534 -139.63134767 384.82306125 -140 381 C-141.95420342 378.48302145 -143.87829203 377.17542005 -146.5859375 375.515625 C-155.24379373 370.07994827 -160.15222547 357.65827257 -162.875 348.25 C-165.97288265 334.16200986 -163.53642849 321.45149665 -159 308 C-159.68964844 307.55011719 -160.37929687 307.10023438 -161.08984375 306.63671875 C-176.02371514 296.41449403 -185.45026721 281.7190087 -189 264 C-189.38167643 260.17469563 -189.43187812 256.40435858 -189.375 252.5625 C-189.36339844 251.551875 -189.35179687 250.54125 -189.33984375 249.5 C-189.01263501 234.58313107 -184.42103201 220.9005531 -174.25 209.6875 C-172.72464905 207.98739894 -172.72464905 207.98739894 -172 206 C-172.54813743 203.16722574 -173.49016773 200.95198186 -174.81640625 198.39453125 C-178.85253981 190.22902012 -177.77470188 179.73359336 -175.375 171.25 C-171.31330234 159.4211963 -163.90480753 150.72873518 -152.91796875 144.84765625 C-151 144 -151 144 -149 144 C-149.04640625 142.86304688 -149.0928125 141.72609375 -149.140625 140.5546875 C-149.65825275 122.46920676 -145.2877382 107.04882198 -133.1875 93.125 C-128.15242298 87.85089176 -122.5489222 83.2744611 -116 80 C-115.97421875 78.85144531 -115.9484375 77.70289062 -115.921875 76.51953125 C-115.33039136 58.21123322 -110.73862272 41.93046845 -97 29 C-85.67976504 19.65750992 -72.96210974 14.60238385 -58.3125 14.625 C-57.44270508 14.62371094 -56.57291016 14.62242188 -55.67675781 14.62109375 C-48.22553211 14.74229668 -41.92928039 16.16759342 -35 19 C-34.36835938 18.29875 -33.73671875 17.5975 -33.0859375 16.875 C-24.66983769 7.94956851 -13.05050138 -2.79653601 0 0 Z " fill="#000000" transform="translate(189,6)"/>
<path d="M0 0 C0.74121094 -0.03351563 1.48242188 -0.06703125 2.24609375 -0.1015625 C5.83406382 1.02383789 7.57686366 3.57905635 9.5625 6.625 C11.33884042 10.38272438 12.7550518 14.25096361 14.171875 18.15625 C14.58415344 19.26552856 14.99643188 20.37480713 15.42120361 21.5177002 C16.2873602 23.85554592 17.14766046 26.19556875 18.00244141 28.53759766 C19.30974008 32.11744236 20.63568431 35.68994056 21.96484375 39.26171875 C22.80579101 41.53865524 23.64567121 43.81598618 24.484375 46.09375 C24.87913025 47.15952271 25.2738855 48.22529541 25.68060303 49.32336426 C26.04478333 50.32460327 26.40896362 51.32584229 26.78417969 52.35742188 C27.10441101 53.2320105 27.42464233 54.10659912 27.75457764 55.00769043 C30.08481576 62.55662685 30.08481576 62.55662685 28.1875 66.4375 C26.5625 68.625 26.5625 68.625 25.5625 69.625 C18.46001364 70.20717101 18.46001364 70.20717101 15.25 68.125 C13.5625 65.625 13.5625 65.625 10.5625 57.625 C3.6325 57.625 -3.2975 57.625 -10.4375 57.625 C-11.035625 59.23375 -11.63375 60.8425 -12.25 62.5 C-14.0625 67.375 -14.0625 67.375 -17.4375 69.625 C-24.44053951 70.4031155 -24.44053951 70.4031155 -28 67.625 C-30.13672308 63.16575184 -29.18218716 59.0897703 -27.79455566 54.49697876 C-26.98742798 52.23383402 -26.1238824 50.00156508 -25.234375 47.76953125 C-24.91470764 46.94603683 -24.59504028 46.12254242 -24.26568604 45.27409363 C-23.24814731 42.65847349 -22.21814915 40.04797807 -21.1875 37.4375 C-20.5108737 35.705408 -19.83508543 33.97298838 -19.16015625 32.24023438 C-17.85612 28.89351336 -16.54297959 25.55056907 -15.22460938 22.20947266 C-14.10541674 19.36203666 -13.01880351 16.50754813 -11.97851562 13.63037109 C-11.55763672 12.47746582 -11.13675781 11.32456055 -10.703125 10.13671875 C-10.35540039 9.15533936 -10.00767578 8.17395996 -9.64941406 7.1628418 C-7.52274059 2.70942303 -5.05530488 0.05256816 0 0 Z M-0.4375 28.625 C-1.7575 32.585 -3.0775 36.545 -4.4375 40.625 C-1.4675 40.625 1.5025 40.625 4.5625 40.625 C3.2425 36.665 1.9225 32.705 0.5625 28.625 C0.2325 28.625 -0.0975 28.625 -0.4375 28.625 Z " fill="#000000" transform="translate(236.4375,221.375)"/>
<path d="M0 0 C3.55259477 0.8247095 4.32841243 1.10896735 6.5 3.8125 C10.65026198 17.1370253 9.19779573 31.16618348 3.109375 43.66796875 C1.68200282 46.15084509 0.16649579 48.4844305 -1.5 50.8125 C-1.95117188 51.44671875 -2.40234375 52.0809375 -2.8671875 52.734375 C-9.62125669 61.35821476 -19.7279252 67.1194813 -30.25 69.75 C-34.01493272 69.82240255 -35.57884956 69.13223711 -38.5 66.8125 C-40.04586876 63.72076248 -39.79359521 61.21820448 -39.5 57.8125 C-36.8407281 53.58184015 -32.48664852 52.56353044 -28.0234375 50.85546875 C-19.47855185 47.32375905 -14.12696792 40.71621588 -10.39453125 32.328125 C-7.88628656 24.93292468 -7.83145296 17.58067421 -9.1875 9.9375 C-9.56841793 6.1283207 -8.86176495 4.76470618 -6.5 1.8125 C-3.5 -0.1875 -3.5 -0.1875 0 0 Z " fill="#000000" transform="translate(203.5,97.1875)"/>
<path d="M0 0 C3.1850357 1.76015131 3.83296972 2.49890916 5 6 C5.10821572 7.859605 5.15882224 9.7227869 5.17700195 11.58544922 C5.18983719 12.73028778 5.20267242 13.87512634 5.21589661 15.05465698 C5.22328354 16.29216705 5.23067047 17.52967712 5.23828125 18.8046875 C5.25038887 20.71158859 5.25038887 20.71158859 5.26274109 22.65701294 C5.2765806 25.34869023 5.28759783 28.0402451 5.29516602 30.73193359 C5.30623356 34.17424605 5.34064376 37.61591264 5.38033772 41.05799675 C5.41281264 44.34849614 5.41728286 47.63905228 5.42578125 50.9296875 C5.44328934 52.16314911 5.46079742 53.39661072 5.47883606 54.66744995 C5.47591049 55.81859283 5.47298492 56.96973572 5.4699707 58.15576172 C5.47877007 59.67107986 5.47877007 59.67107986 5.48774719 61.2170105 C4.86410092 64.7754134 3.50692164 66.44302126 1 69 C-2.6897942 70.25610015 -4.26386829 70.34352813 -7.8125 68.6875 C-10 67 -10 67 -11 65 C-11.11163974 63.08127809 -11.15927305 61.15870165 -11.17700195 59.23681641 C-11.18983719 58.02861237 -11.20267242 56.82040833 -11.21589661 55.57559204 C-11.22328354 54.26416229 -11.23067047 52.95273254 -11.23828125 51.6015625 C-11.24235678 50.93540295 -11.2464323 50.26924339 -11.25063133 49.58289719 C-11.27148764 46.05754659 -11.28579167 42.53223488 -11.29516602 39.00683594 C-11.30623487 35.36599461 -11.34064031 31.72576374 -11.38033772 28.08513832 C-11.40648322 25.28499211 -11.41485589 22.48499189 -11.41844749 19.68473434 C-11.42568529 17.69050144 -11.45213206 15.69636826 -11.47883606 13.70230103 C-11.47591049 12.48779266 -11.47298492 11.2732843 -11.4699707 10.02197266 C-11.47583694 8.95322906 -11.48170319 7.88448547 -11.48774719 6.78335571 C-10.33797473 0.22211703 -6.01667716 -0.75208465 0 0 Z " fill="#000000" transform="translate(294,221)"/>
<path d="M0 0 C1.90625 0.4296875 1.90625 0.4296875 4.40625 2.2421875 C7.6640281 9.16496597 6.34647614 16.89159292 3.9453125 23.94921875 C-1.06374274 35.90692582 -8.25047026 42.45035213 -20.09375 47.4296875 C-24.38097123 48.73990211 -28.64951706 49.00050641 -33.09375 48.4296875 C-35.65625 46.8671875 -35.65625 46.8671875 -37.09375 44.4296875 C-37.80194364 40.10183748 -37.65230317 38.21515289 -35.09375 34.6171875 C-32.08729369 32.42497977 -29.81651628 31.74602781 -26.21484375 31.00390625 C-20.94290087 29.5766952 -17.11453019 26.69223142 -13.71875 22.4921875 C-11.38077559 17.89755953 -11.21999886 12.69878372 -10.78125 7.63671875 C-9.44463116 1.40169563 -5.97549078 -0.37904233 0 0 Z " fill="#000000" transform="translate(192.09375,362.5703125)"/>
<path d="M0 0 C8.74833893 1.80790915 15.25738425 6.21327229 21 13 C25.85545566 20.77662411 28.50311981 27.77613679 28 37 C27.15595043 39.60248618 26.4603255 40.64196906 24.3125 42.3125 C20.89259577 43.32922829 18.42890226 42.87281149 15 42 C12.0976484 38.99324726 11.41599314 36.16214678 10.625 32.125 C9.05456592 25.44455243 7.17872158 22.06986521 1.3125 18.25 C-2.35128667 16.86743899 -5.86571697 16.19491731 -9.73046875 15.625 C-12.33625516 14.90739961 -13.34185062 14.10377703 -15 12 C-16.03152764 8.98476536 -16.1105941 7.39629554 -15.25 4.3125 C-12.0146839 -1.67283478 -5.90584493 -0.58526391 0 0 Z " fill="#000000" transform="translate(112,230)"/>
</svg>
