<?xml version="1.0" encoding="UTF-8"?>
<svg version="1.1" xmlns="http://www.w3.org/2000/svg" width="512" height="512">
<path d="M0 0 C3.58346249 2.78036026 6.81407403 5.77575533 10 9 C10.70898438 9.68707031 11.41796875 10.37414062 12.1484375 11.08203125 C19.68713813 18.86624512 26.13655926 29.86123383 26.11352539 40.84838867 C26.11344986 42.0494072 26.11337433 43.25042572 26.11329651 44.48783875 C26.10813522 45.78478165 26.10297394 47.08172455 26.09765625 48.41796875 C26.09579077 49.75889534 26.09436748 51.09982261 26.09336853 52.44075012 C26.08955356 55.96709073 26.07973199 59.49339004 26.06866455 63.01971436 C26.0584285 66.61925701 26.05386621 70.21880635 26.04882812 73.81835938 C26.0381088 80.87892313 26.02104462 87.93945887 26 95 C30.41569892 95.01942575 30.41569892 95.01942575 34.83141136 95.03526211 C37.61368008 95.04449499 40.39479552 95.05793776 43.17657471 95.11306763 C51.29437044 95.43183053 51.29437044 95.43183053 58.37011719 92.10107422 C60.13232533 89.68242599 61.30515304 87.91559195 62 85 C61.06488155 81.76067883 59.70987096 79.54774003 57.875 76.6875 C54.42545937 69.86622792 54.88053526 60.49043721 56.6953125 53.2109375 C57.61862894 50.95307965 58.65392286 49.03173518 60 47 C60.4125 46.36707031 60.825 45.73414063 61.25 45.08203125 C65.73894295 39.10102488 72.68601946 35.40326371 80 34 C89.77102817 33.04787106 97.6179601 34.99152218 105.3125 41.1875 C110.83355383 46.37326716 114.48969969 52.83843788 115.23828125 60.41015625 C115.47928303 69.02279869 113.71428852 76.79326546 108.5 83.8125 C104.1886493 88.26362017 98.91022779 91.22828412 93 93 C90.47343651 92.84639341 87.95064974 92.61448744 85.4375 92.3125 C81.62585268 91.89900777 81.62585268 91.89900777 78 93 C73.62810799 97.20727611 70.87369484 102.81757145 68.22583008 108.21240234 C66.62665944 110.54443329 65.710182 111.12901848 63 112 C60.13721069 112.1688051 57.37564046 112.23274535 54.515625 112.1953125 C53.70003113 112.1924826 52.88443726 112.18965271 52.04412842 112.18673706 C49.44593472 112.17556558 46.84808905 112.15046675 44.25 112.125 C42.48568207 112.11496627 40.72135872 112.10584111 38.95703125 112.09765625 C34.63777973 112.07733992 30.31927824 112.03818615 26 112 C26 123.88 26 135.76 26 148 C38.44061178 148.18612817 50.87793663 148.31208402 63.31994247 148.33421898 C69.09837393 148.34686087 74.87419552 148.38512811 80.65185547 148.48339844 C86.23542895 148.57740098 91.81553862 148.6022078 97.39981842 148.58046341 C99.52247636 148.58408373 101.64524577 148.61200902 103.7672348 148.66541672 C116.18041324 149.3113049 116.18041324 149.3113049 126.83630371 143.97442627 C129.4711837 141.10244027 131.61987685 138.00315681 133.73581696 134.73895645 C135.84122318 131.84284916 138.48507106 129.71292372 141.1875 127.375 C149.6379238 118.19482672 147.40766825 103.64440032 147 92 C146.23300781 91.8659375 145.46601563 91.731875 144.67578125 91.59375 C137.42076528 89.98387784 132.14927682 83.84379384 128 78 C124.20130579 69.94828271 123.8648903 61.92063945 126.5 53.5 C129.73858851 45.36931828 135.11397942 39.23838935 143.140625 35.65625 C151.56610991 32.68254944 160.55905076 32.94082676 168.68359375 36.68359375 C176.41778463 41.07890965 180.88293403 46.67890543 184 55 C186.13550424 64.07249254 184.63581281 72.02124248 180.3125 80.1875 C175.14200877 86.47593528 170.92224834 89.8634303 163 92 C163.04713135 93.48209961 163.04713135 93.48209961 163.09521484 94.99414062 C163.20454958 98.69139461 163.27295848 102.38850858 163.32958984 106.08691406 C163.35959836 107.68156025 163.40042047 109.27604366 163.45263672 110.87011719 C163.92975569 125.81984485 163.92975569 125.81984485 160.359375 130.6484375 C159.26966879 131.79498957 158.14985903 132.91378387 157 134 C155.98735974 135.18157638 154.98468339 136.37176548 153.9921875 137.5703125 C152.95584035 138.75758399 151.91670163 139.94242369 150.875 141.125 C149.74039984 142.4214502 148.60629802 143.71833668 147.47265625 145.015625 C146.90047363 145.66982422 146.32829102 146.32402344 145.73876953 146.99804688 C143.99776582 149.00257235 142.27514877 151.02138919 140.55859375 153.046875 C140.01283691 153.68995605 139.46708008 154.33303711 138.90478516 154.99560547 C137.86159797 156.22689264 136.82081402 157.46022088 135.78271484 158.69580078 C132.2213383 162.88933085 132.2213383 162.88933085 130 164 C128.60618753 164.0916994 127.20807345 164.12193744 125.81124878 164.12025452 C124.49451675 164.12231651 124.49451675 164.12231651 123.15118408 164.12442017 C122.18589783 164.12082489 121.22061157 164.11722961 120.22607422 164.11352539 C118.70407913 164.11374443 118.70407913 164.11374443 117.15133667 164.1139679 C113.78576546 164.11326928 110.42024908 164.10547922 107.0546875 164.09765625 C104.72584056 164.09579189 102.39699323 164.09436807 100.06814575 164.09336853 C93.92949344 164.08954476 87.79086467 164.07971566 81.65222168 164.06866455 C75.39184894 164.05844742 69.13147241 164.05387026 62.87109375 164.04882812 C50.58071714 164.03809328 38.29036421 164.02049761 26 164 C26 173.24 26 182.48 26 192 C39.370456 192.14070865 52.73860367 192.23013701 66.10981464 192.23059464 C72.31945756 192.23282999 78.527353 192.25707822 84.73657227 192.33251953 C90.73488917 192.40457385 96.73076129 192.41764639 102.72942162 192.39070892 C105.01190958 192.39065334 107.29450111 192.41145835 109.5765934 192.4539566 C122.38037457 193.1840151 122.38037457 193.1840151 133.76034546 188.42858887 C136.63082038 185.5871868 138.81209913 182.3919155 141 179 C142.48152416 177.15170423 143.97886213 175.31583333 145.5 173.5 C146.5828125 172.15421875 146.5828125 172.15421875 147.6875 170.78125 C150.6353598 167.23585105 153.75237439 163.87117044 156.89868164 160.50244141 C160.85211409 156.24061478 164.46417167 151.77518047 168.02734375 147.1796875 C170.98246747 143.91442208 172.96983539 143.09684674 177.39160156 142.68115234 C178.72434574 142.63979883 180.05743213 142.60860735 181.390625 142.5859375 C182.44754547 142.55688828 182.44754547 142.55688828 183.52581787 142.5272522 C185.76709039 142.46767265 188.00841489 142.42115877 190.25 142.375 C191.77345938 142.33680021 193.29689762 142.29774731 194.8203125 142.2578125 C198.54668106 142.16198982 202.27320835 142.07787893 206 142 C206.26989746 141.4529541 206.53979492 140.9059082 206.81787109 140.34228516 C207.17445801 139.62347168 207.53104492 138.9046582 207.8984375 138.1640625 C208.25083496 137.4520166 208.60323242 136.7399707 208.96630859 136.00634766 C212.6714867 128.81476672 219.42397055 124.52534315 227 122 C238.04351724 121.3187866 246.06474327 121.49823224 254.75 128.75 C260.48061834 134.12492479 263.67606701 139.43838631 264.23828125 147.35546875 C264.4405248 157.79762279 263.05728712 165.50093744 255.84765625 173.4296875 C247.96296783 180.13083918 239.01870533 181.7128939 229 181 C220.50477805 179.08399638 214.05772177 173.94675038 209 167 C207.44272246 164.30071894 207 163.19009416 207 160 C190.65316555 158.44289962 190.65316555 158.44289962 175.8515625 163.57421875 C173.22445595 166.20496731 171.11121457 169.14665263 169.11621094 172.27636719 C167.44687855 174.85412017 165.47428715 177.15163739 163.5 179.5 C162.79101562 180.38300781 162.08203125 181.26601562 161.3515625 182.17578125 C158.14217519 186.03024474 154.7423344 189.68954591 151.31835938 193.35302734 C147.94683911 196.96055403 144.67322203 200.62933414 141.5 204.4140625 C139.17104181 206.87645059 137.21244911 208.79749004 133.78989792 209.36914349 C132.57866194 209.36499542 132.57866194 209.36499542 131.34295654 209.36076355 C129.94637314 209.36694954 129.94637314 209.36694954 128.52157593 209.3732605 C127.50737579 209.36247467 126.49317566 209.35168884 125.44824219 209.34057617 C124.37476532 209.34101425 123.30128845 209.34145233 122.19528198 209.34190369 C118.64562824 209.33981299 115.09644628 209.31646801 111.546875 209.29296875 C109.08636737 209.28737381 106.6258564 209.28310323 104.16534424 209.28010559 C97.68797587 209.26864885 91.21080917 209.23917424 84.73352051 209.20599365 C76.96254646 209.1699166 69.19150501 209.1561356 61.42047119 209.13863373 C49.61350718 209.10953771 37.80698571 209.05205562 26 209 C26 226.82 26 244.64 26 263 C33.8478125 262.91878906 41.695625 262.83757812 49.78125 262.75390625 C54.7578531 262.71813243 59.73429731 262.68443472 64.7109375 262.65820312 C72.60743194 262.61638369 80.50335733 262.56695242 88.39941406 262.47192383 C94.76665983 262.39577535 101.13329527 262.35399012 107.5009613 262.3358593 C109.9282746 262.3229414 112.3555551 262.29771513 114.78260803 262.2598896 C118.18718204 262.2089475 121.58924582 262.20208182 124.99414062 262.20532227 C125.99395966 262.18015533 126.99377869 262.1549884 128.02389526 262.12905884 C134.52367673 262.19584101 137.78573142 263.65000089 142.3992691 268.25407314 C142.9275103 268.83022901 143.4557515 269.40638487 144 270 C144.80308594 270.81984375 145.60617187 271.6396875 146.43359375 272.484375 C150.17332287 276.71252878 153.82616578 280.98482005 157.375 285.375 C161.87631944 290.93869378 166.62467571 296.24255223 171.59057617 301.39599609 C173 303 173 303 174.40356445 305.10791016 C176.95677471 308.6939828 178.70769939 310.69398796 183.08789062 311.73120117 C186.7270853 312.01053423 190.28834998 312.05740666 193.9375 312 C195.82178711 312.01740234 195.82178711 312.01740234 197.74414062 312.03515625 C200.83109116 312.05863116 203.91342954 312.04583543 207 312 C207.13277344 311.23429687 207.26554687 310.46859375 207.40234375 309.6796875 C208.93491836 302.80814381 214.44017455 297.92458267 220 294 C227.24815485 290.1667114 235.85994761 289.70400388 243.7421875 291.69140625 C252.55345947 294.89185306 257.74959824 299.69542178 262.0546875 307.94921875 C265.24090569 314.86146895 265.30979257 325.07546321 263 332.375 C259.28307294 340.36726569 253.01577078 345.73934748 245 349 C237.66560715 351.44479762 228.3469417 351.16702398 221.375 347.8125 C217.70081901 345.6530062 214.77454923 343.26417556 212 340 C211.278125 339.175 210.55625 338.35 209.8125 337.5 C208.03110388 335.0429019 207.06715594 332.82067649 206 330 C205.05680908 329.98541748 204.11361816 329.97083496 203.1418457 329.95581055 C199.62841339 329.89460394 196.11574554 329.82042492 192.6027832 329.73754883 C191.08498379 329.70438084 189.56706344 329.67632368 188.04907227 329.65356445 C185.86161981 329.61986722 183.67526736 329.56754796 181.48828125 329.51171875 C180.17384033 329.48553467 178.85939941 329.45935059 177.50512695 329.43237305 C172.70451938 328.84019669 170.14667882 327.2613467 166.9296875 323.72265625 C166.25164062 322.84480469 165.57359375 321.96695312 164.875 321.0625 C161.55864937 316.88125394 158.13918247 312.89608832 154.5 309 C151.00579498 305.24631533 147.65936274 301.43215521 144.4375 297.4375 C143.38808731 296.18493156 143.38808731 296.18493156 142.31747437 294.90705872 C140 292 140 292 138.21328735 289.10820007 C135.29161024 284.93574281 132.67139654 281.72136564 127.68288422 280.37430191 C120.5861666 279.34902076 113.42349731 279.59112929 106.2734375 279.70703125 C103.95601529 279.70510769 101.63859248 279.69833544 99.32119751 279.68693542 C93.24755963 279.66999384 87.17617515 279.71856635 81.10290527 279.78112793 C74.89544021 279.83336666 68.68810535 279.82317917 62.48046875 279.81835938 C50.31943252 279.81806055 38.16056419 279.89279578 26 280 C26 289.24 26 298.48 26 308 C29.12315674 307.9371582 32.24631348 307.87431641 35.46411133 307.80957031 C45.8092292 307.61029891 56.15443424 307.47801396 66.50096607 307.37825394 C72.77145618 307.31575379 79.03997222 307.23105692 85.30932617 307.09472656 C91.36549299 306.96386367 97.41976758 306.89249282 103.47723961 306.86147308 C105.78226186 306.83938323 108.08718609 306.7962426 110.39139748 306.73123932 C129.37295839 306.21729481 129.37295839 306.21729481 134.76937866 310.55358887 C137.64587986 313.39604306 139.81592532 316.60002258 142 320 C143.5224251 321.89065674 145.06137483 323.76827239 146.625 325.625 C147.34171875 326.51703125 148.0584375 327.4090625 148.796875 328.328125 C151.75206969 331.91208452 154.88622685 335.31534706 158.0546875 338.7109375 C162.31112289 343.71951408 163.43391132 347.39104192 163.29296875 353.92578125 C163.28872391 354.67337204 163.28447906 355.42096283 163.28010559 356.19120789 C163.26339056 358.56534732 163.22575347 360.93861967 163.1875 363.3125 C163.17244381 364.92772206 163.15875703 366.54295751 163.14648438 368.15820312 C163.1135108 372.10579988 163.06177969 376.05275322 163 380 C164.09868408 380.29189209 165.19736816 380.58378418 166.3293457 380.88452148 C172.81073997 382.85415836 177.94648621 387.67244754 181.4921875 393.41796875 C185.500761 402.15197743 186.03730911 410.34045508 183.03125 419.51171875 C179.36099295 428.36760414 172.5910307 433.26660721 164.1875 437.375 C154.10316814 439.35231997 145.38410365 438.22988941 136.77734375 432.52734375 C130.53502244 427.59182615 126.54707794 420.829152 125 413 C124.06634081 403.77113805 126.24772114 395.08384724 132.1171875 387.828125 C136.12083965 383.9407615 141.2908595 380 147 380 C147.09436318 375.54009827 147.08700938 371.08570766 147.0625 366.625 C147.09021484 365.37332031 147.11792969 364.12164062 147.14648438 362.83203125 C147.05567719 355.89436232 146.47445575 351.69047324 141.73046875 346.4453125 C140.17114524 344.94513734 138.5960579 343.46103199 137 342 C136.08557402 340.96322438 135.18936772 339.90948504 134.328125 338.828125 C132.2224044 336.21576486 130.11296498 333.60650425 128 331 C127.32620804 329.97147919 126.65241608 328.94295837 125.95820618 327.88327026 C123.71318308 325.21910921 122.17550169 324.5443663 118.7162323 324.24050903 C116.98719538 324.20550559 115.257304 324.20328062 113.52807617 324.22705078 C112.58124969 324.21642105 111.63442322 324.20579132 110.65890503 324.19483948 C107.53638573 324.16678528 104.41555645 324.1808489 101.29296875 324.1953125 C99.12533593 324.18406289 96.95771529 324.17018248 94.79011536 324.15377808 C89.09031492 324.11770826 83.39105052 324.1173707 77.69116211 324.12445068 C71.87278628 324.12536291 66.05461207 324.09251473 60.23632812 324.0625 C48.82409866 324.00860742 37.41235603 323.99557991 26 324 C26 335.88 26 347.76 26 360 C28.62453125 359.97679687 31.2490625 359.95359375 33.953125 359.9296875 C36.49820472 359.91408494 39.04327909 359.90194364 41.58837891 359.89013672 C43.35565582 359.88008616 45.12291613 359.86644358 46.89013672 359.84912109 C49.43200785 359.82483115 51.97365889 359.81350745 54.515625 359.8046875 C55.69865204 359.78920364 55.69865204 359.78920364 56.90557861 359.77340698 C64.08648756 359.77194201 64.08648756 359.77194201 67 362 C68.22583008 363.78759766 68.22583008 363.78759766 69.26953125 365.9140625 C72.95498506 372.93969005 72.95498506 372.93969005 78 379 C82.09305562 380.02546447 85.10642054 379.7265694 89.27734375 379.234375 C95.53354005 378.84049066 100.04050852 381.37546938 105 385 C111.85347852 391.52363196 115.01590779 399.07024798 115.4375 408.4375 C115.14417929 417.18823459 111.82365383 423.99138398 105.859375 430.3125 C99.28446371 436.27964638 91.69040123 438.50295431 82.94140625 438.3125 C74.90579283 437.45878277 67.1713718 434.35486983 62 428 C55.74274546 419.12860356 54.49455007 410.50565775 56 400 C57.06661505 397.08971702 58.2585712 394.63360353 59.90625 392.015625 C61.42024275 389.22555265 61.24294635 386.92095357 60.44458008 383.89453125 C59.2230091 381.31911536 58.21590557 379.82492482 56 378 C50.90555059 376.83379144 45.8783238 376.9246059 40.6875 377 C39.26494873 376.99190352 37.84241306 376.98022203 36.41992188 376.96484375 C32.94582855 376.93507356 29.47401429 376.95433518 26 377 C26.00888245 377.79433945 26.01776489 378.58867889 26.0269165 379.40708923 C26.10734825 386.9242012 26.16810854 394.441102 26.20724869 401.95853329 C26.22804818 405.82255984 26.25622388 409.6862283 26.30175781 413.55004883 C26.3454913 417.28482604 26.36919443 421.01926068 26.37950897 424.75427437 C26.38685143 426.17313587 26.40118869 427.59198043 26.42292023 429.0106945 C26.54411262 437.25691759 26.24827937 443.80944135 22 451 C21.44699219 452.00289063 20.89398438 453.00578125 20.32421875 454.0390625 C11.56656188 467.87574233 -1.05677468 477.64477747 -17 482 C-31.03598058 485.1429279 -48.68532857 484.68079961 -61.1640625 477.0703125 C-62.18242187 476.40773438 -63.20078125 475.74515625 -64.25 475.0625 C-68.16791628 472.54899867 -68.16791628 472.54899867 -72.65234375 472.1484375 C-75.16083827 472.87510894 -75.16083827 472.87510894 -77.35546875 473.90234375 C-91.44727527 479.75138013 -109.03869981 478.37462353 -123 473 C-138.36796318 465.85297134 -149.89469692 454.00318639 -156.7109375 438.56640625 C-159.02870523 432.15391552 -161 424.8442151 -161 418 C-161.72703125 417.91363281 -162.4540625 417.82726562 -163.203125 417.73828125 C-175.45515592 416.02613847 -185.31726924 411.66225725 -195 404 C-196.25103516 403.03126953 -196.25103516 403.03126953 -197.52734375 402.04296875 C-209.7462184 391.8950898 -217.2794535 377.60688778 -220 362 C-221.15635232 344.14136479 -218.97975491 330.01115871 -211 314 C-211.87785156 313.74605469 -212.75570312 313.49210937 -213.66015625 313.23046875 C-226.19956078 308.61068813 -235.82562586 297.46669484 -242 286 C-248.84126055 270.55426741 -251.35884948 252.17662324 -245.328125 235.953125 C-240.34343353 224.8695169 -234.55163408 216.51437206 -226 208 C-226.33773437 207.16597656 -226.67546875 206.33195313 -227.0234375 205.47265625 C-227.46945313 204.34730469 -227.91546875 203.22195312 -228.375 202.0625 C-228.81585938 200.96035156 -229.25671875 199.85820312 -229.7109375 198.72265625 C-235.89479489 180.86442567 -234.19098015 161.65688365 -226.25 144.625 C-217.56916726 128.58716152 -205.18244962 119.4106545 -189 112 C-188.34 111.67 -187.68 111.34 -187 111 C-187.15855469 110.06285156 -187.31710938 109.12570313 -187.48046875 108.16015625 C-190.25942213 88.50017171 -187.63466188 69.47780158 -175.89453125 53.0546875 C-163.79838644 37.77315516 -148.54572884 28.07789445 -129.0546875 25.47265625 C-119.31765168 24.52914958 -109.34860909 24.88379697 -100 28 C-99.74605469 27.12214844 -99.49210938 26.24429688 -99.23046875 25.33984375 C-94.18186898 11.63650151 -81.54196745 1.61221795 -69 -5 C-46.40593041 -15.2085781 -20.77048219 -13.55294012 0 0 Z " fill="#F39191" transform="translate(248,20)"/>
<path d="M0 0 C3.58346249 2.78036026 6.81407403 5.77575533 10 9 C10.70898438 9.68707031 11.41796875 10.37414062 12.1484375 11.08203125 C19.68713813 18.86624512 26.13655926 29.86123383 26.11352539 40.84838867 C26.11344986 42.0494072 26.11337433 43.25042572 26.11329651 44.48783875 C26.10813522 45.78478165 26.10297394 47.08172455 26.09765625 48.41796875 C26.09579077 49.75889534 26.09436748 51.09982261 26.09336853 52.44075012 C26.08955356 55.96709073 26.07973199 59.49339004 26.06866455 63.01971436 C26.0584285 66.61925701 26.05386621 70.21880635 26.04882812 73.81835938 C26.0381088 80.87892313 26.02104462 87.93945887 26 95 C30.41569892 95.01942575 30.41569892 95.01942575 34.83141136 95.03526211 C37.61368008 95.04449499 40.39479552 95.05793776 43.17657471 95.11306763 C51.29437044 95.43183053 51.29437044 95.43183053 58.37011719 92.10107422 C60.13232533 89.68242599 61.30515304 87.91559195 62 85 C61.06488155 81.76067883 59.70987096 79.54774003 57.875 76.6875 C54.42545937 69.86622792 54.88053526 60.49043721 56.6953125 53.2109375 C57.61862894 50.95307965 58.65392286 49.03173518 60 47 C60.4125 46.36707031 60.825 45.73414063 61.25 45.08203125 C65.73894295 39.10102488 72.68601946 35.40326371 80 34 C89.77102817 33.04787106 97.6179601 34.99152218 105.3125 41.1875 C110.83355383 46.37326716 114.48969969 52.83843788 115.23828125 60.41015625 C115.47928303 69.02279869 113.71428852 76.79326546 108.5 83.8125 C104.1886493 88.26362017 98.91022779 91.22828412 93 93 C90.47343651 92.84639341 87.95064974 92.61448744 85.4375 92.3125 C81.62585268 91.89900777 81.62585268 91.89900777 78 93 C73.62810799 97.20727611 70.87369484 102.81757145 68.22583008 108.21240234 C66.62665944 110.54443329 65.710182 111.12901848 63 112 C60.13721069 112.1688051 57.37564046 112.23274535 54.515625 112.1953125 C53.70003113 112.1924826 52.88443726 112.18965271 52.04412842 112.18673706 C49.44593472 112.17556558 46.84808905 112.15046675 44.25 112.125 C42.48568207 112.11496627 40.72135872 112.10584111 38.95703125 112.09765625 C34.63777973 112.07733992 30.31927824 112.03818615 26 112 C26 123.88 26 135.76 26 148 C38.44061178 148.18612817 50.87793663 148.31208402 63.31994247 148.33421898 C69.09837393 148.34686087 74.87419552 148.38512811 80.65185547 148.48339844 C86.23542895 148.57740098 91.81553862 148.6022078 97.39981842 148.58046341 C99.52247636 148.58408373 101.64524577 148.61200902 103.7672348 148.66541672 C116.18041324 149.3113049 116.18041324 149.3113049 126.83630371 143.97442627 C129.4711837 141.10244027 131.61987685 138.00315681 133.73581696 134.73895645 C135.84122318 131.84284916 138.48507106 129.71292372 141.1875 127.375 C149.6379238 118.19482672 147.40766825 103.64440032 147 92 C146.23300781 91.8659375 145.46601563 91.731875 144.67578125 91.59375 C137.42076528 89.98387784 132.14927682 83.84379384 128 78 C124.20130579 69.94828271 123.8648903 61.92063945 126.5 53.5 C129.73858851 45.36931828 135.11397942 39.23838935 143.140625 35.65625 C151.56610991 32.68254944 160.55905076 32.94082676 168.68359375 36.68359375 C176.41778463 41.07890965 180.88293403 46.67890543 184 55 C186.13550424 64.07249254 184.63581281 72.02124248 180.3125 80.1875 C175.14200877 86.47593528 170.92224834 89.8634303 163 92 C163.04713135 93.48209961 163.04713135 93.48209961 163.09521484 94.99414062 C163.20454958 98.69139461 163.27295848 102.38850858 163.32958984 106.08691406 C163.35959836 107.68156025 163.40042047 109.27604366 163.45263672 110.87011719 C163.92975569 125.81984485 163.92975569 125.81984485 160.359375 130.6484375 C159.26966879 131.79498957 158.14985903 132.91378387 157 134 C155.98735974 135.18157638 154.98468339 136.37176548 153.9921875 137.5703125 C152.95584035 138.75758399 151.91670163 139.94242369 150.875 141.125 C149.74039984 142.4214502 148.60629802 143.71833668 147.47265625 145.015625 C146.90047363 145.66982422 146.32829102 146.32402344 145.73876953 146.99804688 C143.99776582 149.00257235 142.27514877 151.02138919 140.55859375 153.046875 C140.01283691 153.68995605 139.46708008 154.33303711 138.90478516 154.99560547 C137.86159797 156.22689264 136.82081402 157.46022088 135.78271484 158.69580078 C132.2213383 162.88933085 132.2213383 162.88933085 130 164 C128.60618753 164.0916994 127.20807345 164.12193744 125.81124878 164.12025452 C124.49451675 164.12231651 124.49451675 164.12231651 123.15118408 164.12442017 C122.18589783 164.12082489 121.22061157 164.11722961 120.22607422 164.11352539 C118.70407913 164.11374443 118.70407913 164.11374443 117.15133667 164.1139679 C113.78576546 164.11326928 110.42024908 164.10547922 107.0546875 164.09765625 C104.72584056 164.09579189 102.39699323 164.09436807 100.06814575 164.09336853 C93.92949344 164.08954476 87.79086467 164.07971566 81.65222168 164.06866455 C75.39184894 164.05844742 69.13147241 164.05387026 62.87109375 164.04882812 C50.58071714 164.03809328 38.29036421 164.02049761 26 164 C26 173.24 26 182.48 26 192 C39.370456 192.14070865 52.73860367 192.23013701 66.10981464 192.23059464 C72.31945756 192.23282999 78.527353 192.25707822 84.73657227 192.33251953 C90.73488917 192.40457385 96.73076129 192.41764639 102.72942162 192.39070892 C105.01190958 192.39065334 107.29450111 192.41145835 109.5765934 192.4539566 C122.38037457 193.1840151 122.38037457 193.1840151 133.76034546 188.42858887 C136.63082038 185.5871868 138.81209913 182.3919155 141 179 C142.48152416 177.15170423 143.97886213 175.31583333 145.5 173.5 C146.5828125 172.15421875 146.5828125 172.15421875 147.6875 170.78125 C150.6353598 167.23585105 153.75237439 163.87117044 156.89868164 160.50244141 C160.85211409 156.24061478 164.46417167 151.77518047 168.02734375 147.1796875 C170.98246747 143.91442208 172.96983539 143.09684674 177.39160156 142.68115234 C178.72434574 142.63979883 180.05743213 142.60860735 181.390625 142.5859375 C182.44754547 142.55688828 182.44754547 142.55688828 183.52581787 142.5272522 C185.76709039 142.46767265 188.00841489 142.42115877 190.25 142.375 C191.77345938 142.33680021 193.29689762 142.29774731 194.8203125 142.2578125 C198.54668106 142.16198982 202.27320835 142.07787893 206 142 C206.26989746 141.4529541 206.53979492 140.9059082 206.81787109 140.34228516 C207.17445801 139.62347168 207.53104492 138.9046582 207.8984375 138.1640625 C208.25083496 137.4520166 208.60323242 136.7399707 208.96630859 136.00634766 C212.6714867 128.81476672 219.42397055 124.52534315 227 122 C238.04351724 121.3187866 246.06474327 121.49823224 254.75 128.75 C260.48061834 134.12492479 263.67606701 139.43838631 264.23828125 147.35546875 C264.4405248 157.79762279 263.05728712 165.50093744 255.84765625 173.4296875 C247.96296783 180.13083918 239.01870533 181.7128939 229 181 C220.50477805 179.08399638 214.05772177 173.94675038 209 167 C207.44272246 164.30071894 207 163.19009416 207 160 C190.65316555 158.44289962 190.65316555 158.44289962 175.8515625 163.57421875 C173.22445595 166.20496731 171.11121457 169.14665263 169.11621094 172.27636719 C167.44687855 174.85412017 165.47428715 177.15163739 163.5 179.5 C162.79101562 180.38300781 162.08203125 181.26601562 161.3515625 182.17578125 C158.14217519 186.03024474 154.7423344 189.68954591 151.31835938 193.35302734 C147.94683911 196.96055403 144.67322203 200.62933414 141.5 204.4140625 C139.17104181 206.87645059 137.21244911 208.79749004 133.78989792 209.36914349 C132.57866194 209.36499542 132.57866194 209.36499542 131.34295654 209.36076355 C129.94637314 209.36694954 129.94637314 209.36694954 128.52157593 209.3732605 C127.50737579 209.36247467 126.49317566 209.35168884 125.44824219 209.34057617 C124.37476532 209.34101425 123.30128845 209.34145233 122.19528198 209.34190369 C118.64562824 209.33981299 115.09644628 209.31646801 111.546875 209.29296875 C109.08636737 209.28737381 106.6258564 209.28310323 104.16534424 209.28010559 C97.68797587 209.26864885 91.21080917 209.23917424 84.73352051 209.20599365 C76.96254646 209.1699166 69.19150501 209.1561356 61.42047119 209.13863373 C49.61350718 209.10953771 37.80698571 209.05205562 26 209 C26 226.82 26 244.64 26 263 C33.8478125 262.91878906 41.695625 262.83757812 49.78125 262.75390625 C54.7578531 262.71813243 59.73429731 262.68443472 64.7109375 262.65820312 C72.60743194 262.61638369 80.50335733 262.56695242 88.39941406 262.47192383 C94.76665983 262.39577535 101.13329527 262.35399012 107.5009613 262.3358593 C109.9282746 262.3229414 112.3555551 262.29771513 114.78260803 262.2598896 C118.18718204 262.2089475 121.58924582 262.20208182 124.99414062 262.20532227 C125.99395966 262.18015533 126.99377869 262.1549884 128.02389526 262.12905884 C134.52367673 262.19584101 137.78573142 263.65000089 142.3992691 268.25407314 C142.9275103 268.83022901 143.4557515 269.40638487 144 270 C144.80308594 270.81984375 145.60617187 271.6396875 146.43359375 272.484375 C150.17332287 276.71252878 153.82616578 280.98482005 157.375 285.375 C161.87631944 290.93869378 166.62467571 296.24255223 171.59057617 301.39599609 C173 303 173 303 174.40356445 305.10791016 C176.95677471 308.6939828 178.70769939 310.69398796 183.08789062 311.73120117 C186.7270853 312.01053423 190.28834998 312.05740666 193.9375 312 C195.82178711 312.01740234 195.82178711 312.01740234 197.74414062 312.03515625 C200.83109116 312.05863116 203.91342954 312.04583543 207 312 C207.13277344 311.23429687 207.26554687 310.46859375 207.40234375 309.6796875 C208.93491836 302.80814381 214.44017455 297.92458267 220 294 C227.24815485 290.1667114 235.85994761 289.70400388 243.7421875 291.69140625 C252.55345947 294.89185306 257.74959824 299.69542178 262.0546875 307.94921875 C265.24090569 314.86146895 265.30979257 325.07546321 263 332.375 C259.28307294 340.36726569 253.01577078 345.73934748 245 349 C237.66560715 351.44479762 228.3469417 351.16702398 221.375 347.8125 C217.70081901 345.6530062 214.77454923 343.26417556 212 340 C211.278125 339.175 210.55625 338.35 209.8125 337.5 C208.03110388 335.0429019 207.06715594 332.82067649 206 330 C205.05680908 329.98541748 204.11361816 329.97083496 203.1418457 329.95581055 C199.62841339 329.89460394 196.11574554 329.82042492 192.6027832 329.73754883 C191.08498379 329.70438084 189.56706344 329.67632368 188.04907227 329.65356445 C185.86161981 329.61986722 183.67526736 329.56754796 181.48828125 329.51171875 C180.17384033 329.48553467 178.85939941 329.45935059 177.50512695 329.43237305 C172.70451938 328.84019669 170.14667882 327.2613467 166.9296875 323.72265625 C166.25164062 322.84480469 165.57359375 321.96695312 164.875 321.0625 C161.55864937 316.88125394 158.13918247 312.89608832 154.5 309 C151.00579498 305.24631533 147.65936274 301.43215521 144.4375 297.4375 C143.38808731 296.18493156 143.38808731 296.18493156 142.31747437 294.90705872 C140 292 140 292 138.21328735 289.10820007 C135.29161024 284.93574281 132.67139654 281.72136564 127.68288422 280.37430191 C120.5861666 279.34902076 113.42349731 279.59112929 106.2734375 279.70703125 C103.95601529 279.70510769 101.63859248 279.69833544 99.32119751 279.68693542 C93.24755963 279.66999384 87.17617515 279.71856635 81.10290527 279.78112793 C74.89544021 279.83336666 68.68810535 279.82317917 62.48046875 279.81835938 C50.31943252 279.81806055 38.16056419 279.89279578 26 280 C26 289.24 26 298.48 26 308 C29.12315674 307.9371582 32.24631348 307.87431641 35.46411133 307.80957031 C45.8092292 307.61029891 56.15443424 307.47801396 66.50096607 307.37825394 C72.77145618 307.31575379 79.03997222 307.23105692 85.30932617 307.09472656 C91.36549299 306.96386367 97.41976758 306.89249282 103.47723961 306.86147308 C105.78226186 306.83938323 108.08718609 306.7962426 110.39139748 306.73123932 C129.37295839 306.21729481 129.37295839 306.21729481 134.76937866 310.55358887 C137.64587986 313.39604306 139.81592532 316.60002258 142 320 C143.5224251 321.89065674 145.06137483 323.76827239 146.625 325.625 C147.34171875 326.51703125 148.0584375 327.4090625 148.796875 328.328125 C151.75206969 331.91208452 154.88622685 335.31534706 158.0546875 338.7109375 C162.31112289 343.71951408 163.43391132 347.39104192 163.29296875 353.92578125 C163.28872391 354.67337204 163.28447906 355.42096283 163.28010559 356.19120789 C163.26339056 358.56534732 163.22575347 360.93861967 163.1875 363.3125 C163.17244381 364.92772206 163.15875703 366.54295751 163.14648438 368.15820312 C163.1135108 372.10579988 163.06177969 376.05275322 163 380 C164.09868408 380.29189209 165.19736816 380.58378418 166.3293457 380.88452148 C172.81073997 382.85415836 177.94648621 387.67244754 181.4921875 393.41796875 C185.500761 402.15197743 186.03730911 410.34045508 183.03125 419.51171875 C179.36099295 428.36760414 172.5910307 433.26660721 164.1875 437.375 C154.10316814 439.35231997 145.38410365 438.22988941 136.77734375 432.52734375 C130.53502244 427.59182615 126.54707794 420.829152 125 413 C124.06634081 403.77113805 126.24772114 395.08384724 132.1171875 387.828125 C136.12083965 383.9407615 141.2908595 380 147 380 C147.09436318 375.54009827 147.08700938 371.08570766 147.0625 366.625 C147.09021484 365.37332031 147.11792969 364.12164062 147.14648438 362.83203125 C147.05567719 355.89436232 146.47445575 351.69047324 141.73046875 346.4453125 C140.17114524 344.94513734 138.5960579 343.46103199 137 342 C136.08557402 340.96322438 135.18936772 339.90948504 134.328125 338.828125 C132.2224044 336.21576486 130.11296498 333.60650425 128 331 C127.32620804 329.97147919 126.65241608 328.94295837 125.95820618 327.88327026 C123.71318308 325.21910921 122.17550169 324.5443663 118.7162323 324.24050903 C116.98719538 324.20550559 115.257304 324.20328062 113.52807617 324.22705078 C112.58124969 324.21642105 111.63442322 324.20579132 110.65890503 324.19483948 C107.53638573 324.16678528 104.41555645 324.1808489 101.29296875 324.1953125 C99.12533593 324.18406289 96.95771529 324.17018248 94.79011536 324.15377808 C89.09031492 324.11770826 83.39105052 324.1173707 77.69116211 324.12445068 C71.87278628 324.12536291 66.05461207 324.09251473 60.23632812 324.0625 C48.82409866 324.00860742 37.41235603 323.99557991 26 324 C26 335.88 26 347.76 26 360 C28.62453125 359.97679687 31.2490625 359.95359375 33.953125 359.9296875 C36.49820472 359.91408494 39.04327909 359.90194364 41.58837891 359.89013672 C43.35565582 359.88008616 45.12291613 359.86644358 46.89013672 359.84912109 C49.43200785 359.82483115 51.97365889 359.81350745 54.515625 359.8046875 C55.69865204 359.78920364 55.69865204 359.78920364 56.90557861 359.77340698 C64.08648756 359.77194201 64.08648756 359.77194201 67 362 C68.22583008 363.78759766 68.22583008 363.78759766 69.26953125 365.9140625 C72.95498506 372.93969005 72.95498506 372.93969005 78 379 C82.09305562 380.02546447 85.10642054 379.7265694 89.27734375 379.234375 C95.53354005 378.84049066 100.04050852 381.37546938 105 385 C111.85347852 391.52363196 115.01590779 399.07024798 115.4375 408.4375 C115.14417929 417.18823459 111.82365383 423.99138398 105.859375 430.3125 C99.28446371 436.27964638 91.69040123 438.50295431 82.94140625 438.3125 C74.90579283 437.45878277 67.1713718 434.35486983 62 428 C55.74274546 419.12860356 54.49455007 410.50565775 56 400 C57.06661505 397.08971702 58.2585712 394.63360353 59.90625 392.015625 C61.42024275 389.22555265 61.24294635 386.92095357 60.44458008 383.89453125 C59.2230091 381.31911536 58.21590557 379.82492482 56 378 C50.90555059 376.83379144 45.8783238 376.9246059 40.6875 377 C39.26494873 376.99190352 37.84241306 376.98022203 36.41992188 376.96484375 C32.94582855 376.93507356 29.47401429 376.95433518 26 377 C26.00888245 377.79433945 26.01776489 378.58867889 26.0269165 379.40708923 C26.10734825 386.9242012 26.16810854 394.441102 26.20724869 401.95853329 C26.22804818 405.82255984 26.25622388 409.6862283 26.30175781 413.55004883 C26.3454913 417.28482604 26.36919443 421.01926068 26.37950897 424.75427437 C26.38685143 426.17313587 26.40118869 427.59198043 26.42292023 429.0106945 C26.54411262 437.25691759 26.24827937 443.80944135 22 451 C21.44699219 452.00289063 20.89398438 453.00578125 20.32421875 454.0390625 C11.56656188 467.87574233 -1.05677468 477.64477747 -17 482 C-31.03598058 485.1429279 -48.68532857 484.68079961 -61.1640625 477.0703125 C-62.18242187 476.40773438 -63.20078125 475.74515625 -64.25 475.0625 C-68.16791628 472.54899867 -68.16791628 472.54899867 -72.65234375 472.1484375 C-75.16083827 472.87510894 -75.16083827 472.87510894 -77.35546875 473.90234375 C-91.44727527 479.75138013 -109.03869981 478.37462353 -123 473 C-138.36796318 465.85297134 -149.89469692 454.00318639 -156.7109375 438.56640625 C-159.02870523 432.15391552 -161 424.8442151 -161 418 C-161.72703125 417.91363281 -162.4540625 417.82726562 -163.203125 417.73828125 C-175.45515592 416.02613847 -185.31726924 411.66225725 -195 404 C-196.25103516 403.03126953 -196.25103516 403.03126953 -197.52734375 402.04296875 C-209.7462184 391.8950898 -217.2794535 377.60688778 -220 362 C-221.15635232 344.14136479 -218.97975491 330.01115871 -211 314 C-211.87785156 313.74605469 -212.75570312 313.49210937 -213.66015625 313.23046875 C-226.19956078 308.61068813 -235.82562586 297.46669484 -242 286 C-248.84126055 270.55426741 -251.35884948 252.17662324 -245.328125 235.953125 C-240.34343353 224.8695169 -234.55163408 216.51437206 -226 208 C-226.33773437 207.16597656 -226.67546875 206.33195313 -227.0234375 205.47265625 C-227.46945313 204.34730469 -227.91546875 203.22195312 -228.375 202.0625 C-228.81585938 200.96035156 -229.25671875 199.85820312 -229.7109375 198.72265625 C-235.89479489 180.86442567 -234.19098015 161.65688365 -226.25 144.625 C-217.56916726 128.58716152 -205.18244962 119.4106545 -189 112 C-188.34 111.67 -187.68 111.34 -187 111 C-187.15855469 110.06285156 -187.31710938 109.12570313 -187.48046875 108.16015625 C-190.25942213 88.50017171 -187.63466188 69.47780158 -175.89453125 53.0546875 C-163.79838644 37.77315516 -148.54572884 28.07789445 -129.0546875 25.47265625 C-119.31765168 24.52914958 -109.34860909 24.88379697 -100 28 C-99.74605469 27.12214844 -99.49210938 26.24429688 -99.23046875 25.33984375 C-94.18186898 11.63650151 -81.54196745 1.61221795 -69 -5 C-46.40593041 -15.2085781 -20.77048219 -13.55294012 0 0 Z M-81 25 C-82.68459878 27.32502477 -83.807592 29.35596486 -85 32 C-83.74917258 35.75248225 -82.63174613 36.0515262 -79.25 37.9375 C-67.95352651 44.52310369 -61.52707327 53.06809185 -57.875 65.7734375 C-55.70554377 74.84610347 -55.29075358 86.32749146 -59 95 C-61 97 -61 97 -63.1640625 97.1953125 C-63.97617188 97.17210938 -64.78828125 97.14890625 -65.625 97.125 C-66.44226563 97.10695313 -67.25953125 97.08890625 -68.1015625 97.0703125 C-68.72804687 97.04710938 -69.35453125 97.02390625 -70 97 C-70.9478014 94.15659581 -71.08598489 92.60777386 -70.9921875 89.68359375 C-70.66418617 75.28047668 -71.40907232 64.42160262 -81.53515625 53.31640625 C-91.65834388 44.43843988 -110.68670692 40.4989764 -123.703125 40.75390625 C-137.84689267 41.80966142 -150.42607094 48.72918182 -160 59 C-171.23432043 72.51999791 -173.5258106 86.89952524 -172 104 C-170.3608195 112.64193803 -167.02203399 120.07128644 -159.82421875 125.3125 C-155.53103423 127.59364792 -151.55498914 127.31277752 -146.8125 127 C-138.74969985 126.47601624 -138.74969985 126.47601624 -135.45703125 128.77734375 C-134 131 -134 131 -133.875 134.5625 C-135 138 -135 138 -137.75 139.875 C-147.82674414 143.36310374 -156.37065483 142.60843107 -166 138 C-171.31471555 134.78771013 -175.25353193 130.91723935 -179 126 C-193.27054115 129.97703606 -203.82430133 138.39261842 -211.421875 151.00390625 C-218.20157733 163.87527181 -219.20279309 178.53125328 -215.1875 192.4375 C-213.97766774 196.06699677 -212.94368644 198.51178367 -210 201 C-209.29875 200.690625 -208.5975 200.38125 -207.875 200.0625 C-196.86343947 195.99301024 -185.63466425 197.62710886 -175 202 C-167.46725784 205.75663886 -161.0499607 210.45961264 -157 218 C-156.3125 221.875 -156.3125 221.875 -157 225 C-158.5625 227 -158.5625 227 -161 228 C-164.25 228.25 -164.25 228.25 -168 227 C-170.14923386 224.8593803 -172.02638191 222.57873206 -173.9453125 220.23046875 C-178.15560044 215.65998508 -184.04034716 213.28653502 -190.1875 212.69140625 C-201.78153231 212.29939491 -208.78508907 215.36766531 -217.75 222.6875 C-225.93604859 230.3747571 -231.81347495 240.51833442 -232.43359375 251.8671875 C-232.45695172 253.53629541 -232.45779066 255.20585198 -232.4375 256.875 C-232.42992676 257.75196533 -232.42235352 258.62893066 -232.41455078 259.5324707 C-232.07303188 272.98756757 -226.10297377 283.81388703 -216.46484375 293.08203125 C-210.09566418 298.03808065 -202.33608681 301.36886204 -194.6875 303.8125 C-193.470625 304.204375 -192.25375 304.59625 -191 305 C-189.56316093 307.87367814 -189.68157119 309.80420241 -190 313 C-191.79296875 315.97265625 -191.79296875 315.97265625 -194.1875 319.0625 C-203.91090507 332.50744422 -205.78965334 345.64311724 -204 362 C-201.86591881 373.45733212 -194.04097115 384.76381782 -185 392 C-173.59153336 399.67478665 -162.98051957 404.07143637 -149 402 C-137.20090293 399.20305293 -123.87268399 393.30902599 -117 383 C-116.52536128 381.73516606 -116.06700185 380.46410533 -115.625 379.1875 C-114 376 -114 376 -110.5625 374.875 C-107 375 -107 375 -104.5625 375.9375 C-102.60089712 378.5268158 -102.44234383 380.60594974 -102.61328125 383.8125 C-103.74079633 390.19036306 -107.22042966 394.77619365 -112 399 C-112.4947583 399.46108154 -112.9895166 399.92216309 -113.49926758 400.3972168 C-117.79265966 404.28414143 -122.10218838 406.83796315 -127.375 409.1875 C-128.1187085 409.52845703 -128.86241699 409.86941406 -129.62866211 410.22070312 C-134.66120614 412.49477743 -139.69189023 414.45582261 -145 416 C-144.72027338 427.49422117 -140.53710962 437.3754467 -133 446 C-132.52304688 446.59296875 -132.04609375 447.1859375 -131.5546875 447.796875 C-125.05081913 455.18317777 -114.15609846 460.59837219 -104.34765625 461.23828125 C-89.21101786 461.63376694 -77.29688157 458.6114782 -65.93359375 448.0859375 C-60.09067182 441.96245773 -57.9151325 435.83973712 -57.625 427.4375 C-57.71066092 423.82966351 -58.18335541 421.01778462 -59.5625 417.6875 C-61.09430293 413.75809248 -61.23138558 411.97832264 -60 408 C-58 406 -58 406 -54.0625 405.625 C-50.3105826 405.75367587 -50.3105826 405.75367587 -48.1875 407.4375 C-47.795625 408.283125 -47.40375 409.12875 -47 410 C-46.72414062 410.55171875 -46.44828125 411.1034375 -46.1640625 411.671875 C-41.85651545 421.86772031 -42.74479694 435.10541248 -46.65234375 445.2734375 C-48.93616385 449.89403585 -51.86352633 453.92876448 -55 458 C-55.66 458.99 -56.32 459.98 -57 461 C-55.79443396 461.63032133 -54.58536811 462.2539497 -53.375 462.875 C-52.70210937 463.22304688 -52.02921875 463.57109375 -51.3359375 463.9296875 C-41.10626701 468.61686094 -28.18451925 468.69374901 -17.4375 465.4375 C-5.79552959 460.79370148 3.60976274 452.45487934 9.13611245 441.18927217 C10.46822398 437.81342226 10.57283347 434.51606284 10.54830933 430.94113159 C10.55878268 430.17082174 10.56925604 429.4005119 10.58004677 428.60685933 C10.60984918 426.04742411 10.61145246 423.48879543 10.61279297 420.92919922 C10.62804868 419.08554755 10.64490583 417.24190855 10.66323853 415.39828491 C10.70700079 410.40675453 10.72470707 405.41546903 10.73489141 400.42376852 C10.74218923 397.3039483 10.75467435 394.18419177 10.7688942 391.0643959 C10.81782436 380.17750489 10.84397728 369.29080393 10.85107422 358.40380859 C10.85835581 348.25809113 10.91823625 338.11357958 11.00188339 327.96823108 C11.07123306 319.25123315 11.10216997 310.53463585 11.10356629 301.81736386 C11.10515298 296.61330087 11.12267886 291.41046939 11.17956161 286.20669174 C11.23183665 281.31568282 11.23638903 276.42693069 11.20425034 271.53577042 C11.20061483 269.74184503 11.21406393 267.94779106 11.24588776 266.15414429 C11.7505546 256.7120546 11.7505546 256.7120546 7.83414078 248.60864639 C0.47934755 244.01886047 -7.47490703 243.02187943 -16 244 C-18.95544807 245.14117432 -21.69551669 246.50282499 -24.515625 247.94140625 C-28.22626366 249.52251172 -30.21800431 249.28748789 -34 248 C-36.38158405 244.42762392 -36.82377719 243.20126369 -36 239 C-30.37277662 232.82050271 -22.96341446 230.15154192 -14.8125 229.71875 C-13.25025896 229.67649185 -11.6876796 229.64537856 -10.125 229.625 C-9.3942627 229.61098145 -8.66352539 229.59696289 -7.91064453 229.58251953 C-3.44090354 229.62094137 0.48736295 230.30491639 4.79345703 231.52490234 C5.77202667 231.79974457 6.75059631 232.07458679 7.75881958 232.35775757 C8.49840912 232.56969757 9.23799866 232.78163757 10 233 C10.18556119 223.45548539 10.32760546 213.91159374 10.41449738 204.36566734 C10.45620736 199.93274495 10.51275363 195.5010586 10.60351562 191.06884766 C10.69059942 186.78935279 10.73830567 182.51104462 10.75901794 178.23073196 C10.77377247 176.59992412 10.80258749 174.96917955 10.84584045 173.33887863 C11.38491288 164.54718117 11.38491288 164.54718117 8.28222656 156.67901611 C1.9549971 151.78941318 -5.24174702 150.50746425 -13.09375 150.59375 C-17.33272059 151.18629428 -20.69198533 153.02819502 -24.48046875 154.94140625 C-28.21424325 156.51017042 -30.20106352 156.29325497 -34 155 C-36.33043558 151.50434664 -36.58763244 150.1134271 -36 146 C-30.74147856 140.23258939 -21.92293962 137.21405337 -14.27734375 136.796875 C-12.83079977 136.77569961 -11.38416265 136.76025093 -9.9375 136.75 C-8.8865918 136.7190625 -8.8865918 136.7190625 -7.81445312 136.6875 C-3.35960178 136.65530595 0.4980135 137.3013058 4.79077148 138.52050781 C5.76972885 138.7959845 6.74868622 139.07146118 7.75730896 139.35528564 C8.86744102 139.67441925 8.86744102 139.67441925 10 140 C10.13933846 126.76058207 10.24579319 113.52134007 10.31087303 100.28133678 C10.34211644 94.13268728 10.38446264 87.98454137 10.45263672 81.83618164 C10.51807682 75.8968699 10.55375857 69.95804097 10.56926346 64.01839638 C10.58030549 61.75825722 10.60186797 59.49814295 10.63438034 57.23821068 C11.20135943 40.57774732 11.20135943 40.57774732 4 26 C3.36798676 25.172155 2.73597351 24.34431 2.08480835 23.49137878 C-5.52252918 13.87063477 -17.09374446 7.61693808 -29 5 C-50.19805985 3.1206972 -66.83329199 8.42332328 -81 25 Z " fill="#32397B" transform="translate(248,20)"/>
<path d="M0 0 C2.33953013 1.67293607 3.81004159 2.94543208 4.33374023 5.8527832 C4.44007694 8.11445308 4.45073742 10.36093681 4.4375 12.625 C4.69704214 22.21465094 6.52886486 28.92539892 13.5625 35.8125 C17.76386671 39.21857932 22.42131671 41.08790607 27.4609375 42.95703125 C30 44 30 44 32 46 C32.7890797 52.98899163 32.7890797 52.98899163 30 56.5625 C25.89538847 58.52929302 23.20901357 58.33953006 19 57 C7.19216516 52.20521993 -2.21407321 45.70385191 -8 34 C-11.70599052 24.75828305 -13.53966837 14.87518049 -11.3125 5 C-10 2 -10 2 -7.6875 0 C-4.49463042 -1.18804449 -3.16869831 -1.21873012 0 0 Z " fill="#353A7C" transform="translate(107,290)"/>
<path d="M0 0 C6.44967038 3.98652939 12.3671996 9.25847533 16 16 C16.19690257 20.06931977 15.98603524 21.86788546 13.3125 24.9375 C10.2135552 26.3613395 8.37817188 26.55153827 5 26 C2.625 23.9375 2.625 23.9375 0 21 C-6.94766082 14.00642953 -12.98001258 10.99858464 -22.875 10.5 C-28.56487225 10.60872367 -32.50908415 12.39583483 -37.51953125 14.93359375 C-41.29555281 16.5569857 -43.16607542 16.43772172 -47 15 C-49.54509667 12.21630052 -50 10.70121165 -50 6.9375 C-48.51195756 2.56637534 -45.41261593 0.85749849 -41.5546875 -1.484375 C-28.35725251 -7.71756587 -12.7542061 -7.03618912 0 0 Z " fill="#343A7C" transform="translate(165,196)"/>
<path d="M0 0 C3.96025273 2.22764216 4.79323976 4.5295786 6 8.8125 C8.92274304 18.19010412 13.676372 23.78364142 22 28.8125 C26.86550994 30.74979686 32.4083042 30.41821564 37.57421875 30.49609375 C41 31 41 31 43.42578125 32.81640625 C45.72940584 36.01175649 45.54833084 38.1616841 45 42 C43.50390625 44.1875 43.50390625 44.1875 41 46 C37.99057305 46.40563138 35.43705232 46.57141055 32.4375 46.5 C31.6319165 46.48718994 30.82633301 46.47437988 29.99633789 46.46118164 C17.00483322 46.02200649 8.02054059 40.54400344 -0.75 31.1875 C-6.40408561 24.44204438 -10.05942923 16.76833787 -10.3125 7.9375 C-10.34988281 7.08027344 -10.38726562 6.22304688 -10.42578125 5.33984375 C-10 3 -10 3 -8.16796875 1.21484375 C-5.23229593 -0.43019093 -3.31811266 -0.41476408 0 0 Z " fill="#343A7C" transform="translate(171,293)"/>
<path d="M0 0 C3.76266417 1.77871397 5.51796464 3.33137031 7.9375 6.6875 C9.35064983 11.0932024 9.30955881 14.56337348 8 19 C5.91520839 22.65032285 3.11553344 25.8241333 -1 27 C-5.71250609 27.45604898 -8.00361725 27.49819138 -12.25 25.375 C-16.37757438 21.81027667 -18.74943987 19.00448104 -19.4375 13.5 C-18.77858855 8.22870837 -17.34153805 5.24337673 -13.4375 1.625 C-8.82265121 -0.55656488 -5.02023393 -0.79997224 0 0 Z " fill="#FBD97C" transform="translate(408,415)"/>
<path d="M0 0 C3.83669597 2.02693372 6.99766408 4.10071426 9 8 C10.24297269 12.62962291 10.64879229 16.53914506 8.375 20.875 C5.92127138 24.10359028 4.7773145 25.60403594 1 27 C-4.01810805 27.67244329 -7.82425936 27.55580467 -12.4375 25.375 C-16.34153805 21.75662327 -17.77858855 18.77129163 -18.4375 13.5 C-17.74943987 7.99551896 -15.37757438 5.18972333 -11.25 1.625 C-7.27169534 -0.36415233 -4.36156413 -0.87057168 0 0 Z " fill="#FCD97C" transform="translate(407,70)"/>
<path d="M0 0 C3.4285785 2.02008139 6.20847086 4.41694171 8 8 C8.49893401 12.36210879 9.00145931 16.96102884 7.0234375 20.98828125 C4.79205828 23.74670403 2.41786722 26.02346651 -1 27 C-6.40809956 27.42921425 -9.58720527 27.43217368 -14 24 C-17.89008483 20.54214682 -18.88072386 18.45516895 -19.3125 13.1875 C-19.24803379 8.80379803 -17.88627274 6.35431697 -15 3 C-10.69501567 -0.79851558 -5.47273509 -1.08092902 0 0 Z " fill="#FCDA7B" transform="translate(488,158)"/>
<path d="M0 0 C3.95315805 2.08846086 6.63959111 4.21660175 9 8 C9.90157356 12.56377936 10.07086061 17.12353782 7.72265625 21.23828125 C5.11980942 24.31205881 2.98761077 26.78193479 -1.171875 27.23828125 C-6.96640433 27.40509346 -10.55241656 27.1221505 -15 23 C-17.9156441 18.62653385 -18.56872801 15.21334006 -18 10 C-16.29354499 6.33112173 -14.03914665 3.65925332 -11 1 C-7.27400457 -0.24199848 -3.87020783 -0.53508555 0 0 Z " fill="#FCDA7C" transform="translate(487,327)"/>
<path d="M0 0 C3.42599431 2.66466224 5.85648905 4.56946714 7.25 8.75 C7.64509723 13.98503836 7.18380851 17.34928724 4.25 21.75 C0.0301376 25.66109198 -3.68659351 26.48379419 -9.2734375 26.28125 C-13.42789911 25.39007212 -16.05334368 22.93320899 -18.75 19.75 C-20.73363675 15.7827265 -20.29751158 11.0631746 -19.75 6.75 C-18.15561954 3.50384138 -15.81030773 1.55437138 -12.9375 -0.625 C-8.34099413 -1.93828739 -4.30146223 -1.95521011 0 0 Z " fill="#FCDA7C" transform="translate(339.75,71.25)"/>
<path d="M0 0 C4.40830916 2.16407904 7.12843553 4.42506462 9 9 C9.54500788 13.90507088 9.5643646 15.96857504 7.1875 20.3125 C2.76595745 25.74468085 2.76595745 25.74468085 -1 27 C-7.12093081 27.50171564 -10.1167095 27.08833623 -15 23 C-18.54430056 19.07413599 -18.61300219 15.90662564 -18.49609375 10.76953125 C-17.71089847 6.38603948 -15.37480898 3.78028304 -12 1 C-8.28763586 -0.85618207 -4.05156912 -0.44809981 0 0 Z " fill="#FCDA7C" transform="translate(338,415)"/>
</svg>
