<?xml version="1.0" encoding="UTF-8"?>
<svg version="1.1" xmlns="http://www.w3.org/2000/svg" width="512" height="512">
<path d="M0 0 C24.63280711 19.93994638 39.72018032 47.82207212 43.29858398 79.27587891 C44.42763712 91.6682745 42.87979916 103.77348758 40.76342773 115.99072266 C41.33448242 115.66458984 41.90553711 115.33845703 42.49389648 115.00244141 C56.05344462 107.69451324 70.90001361 105.73304253 85.78686523 109.95556641 C100.631273 115.11799168 110.8857868 123.90583485 118.23608398 137.76806641 C124.38181125 151.11665769 125.19010137 165.2743463 120.72045898 179.25244141 C118.25657414 185.60751008 115.11915946 190.78092589 110.76342773 195.99072266 C110.14467773 196.85697266 109.52592773 197.72322266 108.88842773 198.61572266 C100.31024427 208.20310417 87.19977335 214.31074448 74.40979004 215.14407349 C67.94444009 215.35972423 61.48040664 215.26477566 55.01342773 215.17822266 C53.04468799 215.16314584 51.07593706 215.14946275 49.10717773 215.13720703 C44.32564716 215.10444521 39.54466351 215.05282904 34.76342773 214.99072266 C35.09342773 215.98072266 35.42342773 216.97072266 35.76342773 217.99072266 C35.86898876 219.4362356 35.92186851 220.88596173 35.94042969 222.33520508 C35.95326492 223.21009079 35.96610016 224.0849765 35.97932434 224.9863739 C35.99040474 226.40198357 35.99040474 226.40198357 36.00170898 227.84619141 C36.00978073 228.8217952 36.01785248 229.79739899 36.02616882 230.80256653 C36.04000304 232.86958035 36.05072816 234.93661696 36.05859375 237.00366211 C36.07576754 240.14888473 36.11965544 243.29304539 36.16381836 246.43798828 C36.17394916 248.44904828 36.18246405 250.4601172 36.18920898 252.47119141 C36.20671707 253.40481003 36.22422516 254.33842865 36.24226379 255.30033875 C36.21826324 262.60695724 34.61637266 268.06067111 29.45092773 273.36572266 C22.46892339 277.5873997 15.37615882 277.27735378 7.44119263 277.25141907 C5.57964643 277.25715739 5.57964643 277.25715739 3.68049324 277.26301163 C0.24753212 277.27153011 -3.18521423 277.27111364 -6.61816907 277.26683104 C-10.32514902 277.26436113 -14.03210396 277.27338128 -17.73907471 277.28086853 C-24.99694861 277.29361025 -32.25478551 277.29540987 -39.51266871 277.29306827 C-45.41298211 277.29128433 -51.31328429 277.29303637 -57.21359634 277.29729271 C-58.47384067 277.29818549 -58.47384067 277.29818549 -59.75954447 277.29909631 C-61.46641015 277.30030808 -63.17327583 277.30152221 -64.88014151 277.30273869 C-80.88307342 277.31361223 -96.88598425 277.31145263 -112.88891734 277.30535384 C-127.52263471 277.30018504 -142.1562855 277.31143949 -156.78998969 277.33045206 C-171.82281603 277.34983317 -186.85561088 277.35808597 -201.88844979 277.35432881 C-210.32545483 277.35241716 -218.7624032 277.35490083 -227.19939804 277.36904335 C-234.38205171 277.38096161 -241.56461384 277.38235707 -248.74726878 277.37025318 C-252.41017388 277.36436756 -256.07291159 277.36325618 -259.73580551 277.37525558 C-263.71074307 277.38812563 -267.68542747 277.3776423 -271.66036987 277.36494446 C-272.81222774 277.37231874 -273.96408561 277.37969303 -275.15084827 277.38729078 C-281.87837674 277.34208821 -289.47676772 277.27009054 -294.82001483 272.6096161 C-298.41420895 268.47834365 -300.4892414 264.82963817 -300.47949219 259.36157227 C-300.48410713 257.99511818 -300.48410713 257.99511818 -300.48881531 256.60105896 C-300.48162979 255.62492142 -300.47444427 254.64878387 -300.46704102 253.64306641 C-300.46658279 252.63482315 -300.46612457 251.6265799 -300.46565247 250.58778381 C-300.46263412 248.45865704 -300.45476033 246.32953239 -300.44238281 244.20043945 C-300.42412191 240.93709514 -300.42187324 237.67403462 -300.42211914 234.41064453 C-300.41720388 232.3422827 -300.41137553 230.27392279 -300.40454102 228.20556641 C-300.40342819 227.22740463 -300.40231537 226.24924286 -300.40116882 225.24143982 C-300.39478897 224.33362259 -300.38840912 223.42580536 -300.38183594 222.49047852 C-300.37802414 221.69202011 -300.37421234 220.89356171 -300.37028503 220.07090759 C-300.23657227 217.99072266 -300.23657227 217.99072266 -299.23657227 214.99072266 C-300.43032471 215.01166992 -301.62407715 215.03261719 -302.85400391 215.05419922 C-307.35485461 215.12752748 -311.85565454 215.17285397 -316.35693359 215.21044922 C-318.29159472 215.23035611 -320.22619738 215.25749175 -322.16064453 215.29248047 C-338.27549783 215.57629555 -352.71545594 214.82201054 -366.23657227 204.99072266 C-366.85790039 204.55115234 -367.47922852 204.11158203 -368.11938477 203.65869141 C-379.13219592 195.09042802 -385.44825963 182.13858431 -387.67407227 168.61572266 C-389.33919445 152.94115902 -385.11173509 139.03658003 -375.52563477 126.59619141 C-365.69914406 115.4114315 -352.85899823 108.7739427 -337.99047852 107.77197266 C-322.62641409 107.36809802 -309.04692397 111.51025268 -297.48657227 121.86572266 C-296.05728083 123.22759469 -294.63565294 124.5978326 -293.23657227 125.99072266 C-293.40157227 124.85634766 -293.56657227 123.72197266 -293.73657227 122.55322266 C-296.01508542 100.85633625 -292.5632934 82.89244989 -279.04907227 65.24072266 C-268.11613451 52.53187623 -252.89338756 44.13078458 -236.23657227 41.99072266 C-216.99942124 40.56511993 -198.22589417 44.10567095 -183.23657227 56.99072266 C-182.83438477 56.07806641 -182.83438477 56.07806641 -182.42407227 55.14697266 C-181.05405907 52.08246945 -179.65046992 49.03524681 -178.23657227 45.99072266 C-177.95249512 45.37503418 -177.66841797 44.7593457 -177.37573242 44.125 C-163.86729 15.10930497 -141.90079903 -6.49671188 -111.63891602 -17.77099609 C-110.09104198 -18.31706818 -108.54028789 -18.8550548 -106.98657227 -19.38427734 C-105.94303589 -19.74235474 -105.94303589 -19.74235474 -104.87841797 -20.10766602 C-69.31658186 -31.56652592 -29.024277 -22.67947595 0 0 Z " fill="#E5E5E5" transform="translate(388.236572265625,24.00927734375)"/>
<path d="M0 0 C1.07591644 -0.00445784 2.15183288 -0.00891569 3.26035285 -0.01350862 C5.03230848 -0.01323207 5.03230848 -0.01323207 6.84006119 -0.01294994 C8.72332214 -0.01846498 8.72332214 -0.01846498 10.64462876 -0.02409142 C14.1318328 -0.03410172 17.61901962 -0.03782664 21.10623598 -0.04048073 C24.86641577 -0.04438659 28.62658198 -0.05396464 32.38675308 -0.0626936 C41.46788321 -0.08244857 50.54901444 -0.09252234 59.63016069 -0.10142139 C63.90679584 -0.10580529 68.18342976 -0.11117178 72.46006393 -0.11641026 C86.67626437 -0.13342048 100.89246404 -0.14791517 115.1086731 -0.155159 C118.79715094 -0.15706888 122.48562878 -0.15898921 126.1741066 -0.16094494 C127.09085546 -0.16142868 128.00760432 -0.16191242 128.95213345 -0.16241082 C143.80659096 -0.17071315 158.660968 -0.1960544 173.51539037 -0.22852562 C188.76620461 -0.2615916 204.01697794 -0.27960728 219.26782823 -0.28280324 C227.83063006 -0.28496861 236.39331449 -0.29372133 244.95608139 -0.31926441 C252.24754086 -0.340965 259.5388544 -0.34902496 266.8303425 -0.33929763 C270.54986492 -0.33475123 274.26908619 -0.33665864 277.98856735 -0.35605907 C282.02326179 -0.37692174 286.05728765 -0.3667112 290.09201431 -0.35352612 C291.26439518 -0.36449536 292.43677604 -0.37546461 293.6446836 -0.38676625 C300.89369657 -0.32950741 306.86058356 0.4470731 312.27199531 5.61693496 C315.62311126 9.43794491 316.83308377 12.48762406 316.89700699 17.4787035 C316.90984222 18.35358921 316.92267746 19.22847492 316.93590164 20.12987232 C316.94698204 21.54548199 316.94698204 21.54548199 316.95828629 22.98968983 C316.96635803 23.96529362 316.97442978 24.94089741 316.98274612 25.94606495 C316.99658034 28.01307877 317.00730546 30.08011538 317.01517105 32.14716053 C317.03234484 35.29238315 317.07623274 38.43654381 317.12039566 41.5814867 C317.13052647 43.5925467 317.13904135 45.60361562 317.14578629 47.61468983 C317.16329437 48.54830845 317.18080246 49.48192707 317.19884109 50.44383717 C317.17486451 57.7431598 315.54822914 63.14887341 310.47000504 68.50922108 C303.28302133 72.75607509 295.45082433 72.4216301 287.35344315 72.39491749 C286.11972503 72.39874304 284.88600691 72.40256858 283.61490339 72.40651006 C280.20700408 72.41501908 276.79932148 72.41461569 273.39142859 72.41032946 C269.70968795 72.407857 266.02797238 72.41688281 262.346241 72.42436695 C255.13997318 72.43710116 247.93374264 72.43890927 240.72746546 72.43656669 C234.86912867 72.43478207 229.01080317 72.43653624 223.15246773 72.44079113 C221.90075272 72.44168391 221.90075272 72.44168391 220.62375055 72.44259473 C218.9284004 72.44380651 217.23305025 72.44502064 215.53770011 72.44623711 C199.64731048 72.45710755 183.75694209 72.4549524 167.86655127 72.44885226 C153.33636172 72.44368256 138.8062392 72.45494085 124.27606291 72.47395048 C109.34716602 72.49333168 94.41830083 72.50158445 79.48939127 72.49782723 C71.11164578 72.49591574 62.73395736 72.49839775 54.35622215 72.51254177 C47.22482943 72.52446006 40.09352891 72.52585538 32.96213491 72.5137516 C29.32555088 72.50786629 25.68913547 72.5067538 22.05256271 72.51875401 C18.10614198 72.5316251 14.15997619 72.52114018 10.21355057 72.50844288 C9.07015671 72.51581716 7.92676286 72.52319145 6.74872071 72.5307892 C-1.01420809 72.47825832 -7.46278093 71.45774266 -14.15499496 67.38422108 C-19.60130546 61.61753938 -19.72765906 55.35148418 -19.67843246 47.81781483 C-19.68130264 46.84312748 -19.68417282 45.86844013 -19.68712997 44.8642168 C-19.68916325 42.8126921 -19.68368515 40.76114769 -19.67110825 38.70966053 C-19.65502696 35.57795206 -19.67099127 32.44753068 -19.69015121 29.3158617 C-19.68816899 27.31650991 -19.68432575 25.31715892 -19.67843246 23.31781483 C-19.68450516 22.38642185 -19.69057785 21.45502888 -19.69683456 20.49541187 C-19.63124499 14.40644323 -18.83032609 9.95674532 -14.59640121 5.27093983 C-14.01761215 4.79269764 -13.43882309 4.31445545 -12.84249496 3.82172108 C-12.26628403 3.33058826 -11.69007309 2.83945545 -11.09640121 2.33343983 C-7.60928139 0.03119082 -4.09173338 0.0078711 0 0 Z " fill="#3B6881" transform="translate(107.27999496459961,334.86577892303467)"/>
<path d="M0 0 C1.62318837 -0.00576172 1.62318837 -0.00576172 3.27916843 -0.01163983 C5.06921252 -0.01034011 5.06921252 -0.01034011 6.89541912 -0.00901413 C8.15965023 -0.01198525 9.42388134 -0.01495637 10.72642249 -0.01801753 C14.2425527 -0.02609548 17.75866251 -0.02787754 21.2748009 -0.028615 C25.06426996 -0.03046416 28.8537284 -0.03801079 32.64319134 -0.04475021 C40.93240693 -0.05833954 49.22161769 -0.06435914 57.51084256 -0.06876087 C62.68511416 -0.07152219 67.85938388 -0.07575933 73.03365421 -0.08026505 C87.35533341 -0.09245832 101.6770111 -0.10275763 115.99869537 -0.10614014 C116.91554013 -0.1063597 117.83238488 -0.10657927 118.77701281 -0.10680549 C120.15559804 -0.10713291 120.15559804 -0.10713291 121.56203347 -0.10746694 C123.42443868 -0.1079104 125.28684388 -0.10835697 127.14924908 -0.10880661 C128.07306929 -0.10902804 128.9968895 -0.10924947 129.94870427 -0.10947761 C144.9209579 -0.11342639 159.89316289 -0.13088259 174.86539773 -0.15416613 C190.23143224 -0.17786952 205.59744234 -0.19034152 220.96349543 -0.19150805 C229.59329418 -0.19242537 238.22302955 -0.19819183 246.85281086 -0.21632767 C254.20069658 -0.23171497 261.54849934 -0.23685723 268.8963981 -0.22858956 C272.64599318 -0.22467822 276.3954211 -0.22563611 280.14499569 -0.23964691 C284.20881603 -0.25469321 288.27225837 -0.24653375 292.33609295 -0.23606491 C294.11609879 -0.24814952 294.11609879 -0.24814952 295.93206435 -0.26047826 C302.6209075 -0.22003743 307.53875322 0.11740168 312.66951275 4.85017776 C313.14775494 5.43799026 313.62599712 6.02580276 314.1187315 6.63142776 C314.60986431 7.21924026 315.10099712 7.80705276 315.60701275 8.41267776 C317.66541525 11.36283118 317.93858497 13.9897885 317.98323345 17.47591019 C317.99606869 18.3507959 318.00890392 19.22568161 318.02212811 20.12707901 C318.0332085 21.54268867 318.0332085 21.54268867 318.04451275 22.98689651 C318.0525845 23.96250031 318.06065624 24.9381041 318.06897259 25.94327164 C318.08280681 28.01028546 318.09353192 30.07732207 318.10139751 32.14436722 C318.11857131 35.28958984 318.1624592 38.4337505 318.20662212 41.57869339 C318.21675293 43.58975339 318.22526782 45.60082231 318.23201275 47.61189651 C318.24952084 48.54551514 318.26702892 49.47913376 318.28506756 50.44104385 C318.26507082 56.52876108 317.49568533 61.18476911 313.8062315 66.13142776 C307.6301699 71.84791941 301.10327067 71.8421011 293.05330181 71.76634598 C291.7780426 71.77414593 290.50278339 71.78194588 289.18887997 71.7899822 C285.66488262 71.81078681 282.14156536 71.8005702 278.61756611 71.78505111 C274.81106447 71.77371502 271.00467789 71.79121144 267.19819927 71.80495071 C259.74755031 71.8271637 252.29715344 71.82239066 244.84649467 71.80788751 C238.7902873 71.7965876 232.73415049 71.79506762 226.6779356 71.80050659 C225.8154166 71.80127276 224.95289759 71.80203892 224.06424165 71.8028283 C222.31195575 71.80442696 220.55966987 71.80604803 218.80738401 71.80769126 C202.38285703 71.82194308 185.95846967 71.80556496 169.53396559 71.77868943 C155.44626557 71.75635115 141.35877155 71.76023144 127.27107525 71.78328323 C110.90463527 71.81005128 94.5383176 71.82056983 78.17185879 71.80522192 C76.42608168 71.8036292 74.68030455 71.80205734 72.9345274 71.80050659 C72.07561059 71.79973521 71.21669379 71.79896384 70.3317492 71.79816908 C64.28402882 71.7938551 58.23638614 71.80113214 52.18867779 71.81290436 C44.81674037 71.82693907 37.44506908 71.82310913 30.07316208 71.79650064 C26.3130717 71.78337533 22.55342475 71.77818762 18.79333782 71.7947464 C14.71489424 71.81243531 10.63756665 71.791291 6.55916119 71.76634598 C4.78133692 71.78307639 4.78133692 71.78307639 2.96759701 71.80014479 C-3.9040062 71.71853078 -9.01906605 70.92456441 -14.1937685 66.13142776 C-18.47141774 60.37679983 -18.77478543 54.70390505 -18.68986225 47.71736526 C-18.69131748 46.74409286 -18.69277271 45.77082047 -18.69427204 44.76805496 C-18.69262055 42.72248192 -18.68114394 40.67689549 -18.66032124 38.63142776 C-18.63128771 35.50849386 -18.63974442 32.38725214 -18.65275288 29.26424026 C-18.64651681 27.26944039 -18.63812691 25.27464584 -18.62736225 23.27986526 C-18.63176571 21.88748138 -18.63176571 21.88748138 -18.63625813 20.46696854 C-18.54821419 14.39574675 -17.7503343 9.90297751 -13.4750185 5.26814651 C-12.887206 4.78990433 -12.2993935 4.31166214 -11.6937685 3.81892776 C-11.105956 3.32779495 -10.5181435 2.83666214 -9.9125185 2.33064651 C-6.67809436 0.07390058 -3.81430903 0.0050725 0 0 Z " fill="#06AAE8" transform="translate(106.19376850128174,440.8685722351074)"/>
<path d="M0 0 C1.62542689 -0.00576172 1.62542689 -0.00576172 3.28369069 -0.01163983 C4.48385721 -0.01077335 5.68402373 -0.00990687 6.92055893 -0.00901413 C8.18801917 -0.01198525 9.45547941 -0.01495637 10.76134753 -0.01801753 C14.29113864 -0.0261059 17.82090944 -0.02787812 21.35070872 -0.028615 C25.15314708 -0.03046239 28.95557481 -0.03800818 32.75800705 -0.04475021 C41.07827261 -0.05834754 49.39853335 -0.06436056 57.71880817 -0.06876087 C62.91200297 -0.07152118 68.1051959 -0.07575817 73.29838943 -0.08026505 C87.67064039 -0.09246001 102.04288985 -0.10275857 116.41514587 -0.10614014 C117.33549336 -0.1063597 118.25584084 -0.10657927 119.20407765 -0.10680549 C120.58794745 -0.10713291 120.58794745 -0.10713291 121.99977422 -0.10746694 C123.86934487 -0.10791041 125.73891552 -0.10835697 127.60848618 -0.10880661 C128.5358625 -0.10902804 129.46323883 -0.10924947 130.41871747 -0.10947761 C145.44600009 -0.11342572 160.47323421 -0.13087911 175.50049809 -0.15416613 C190.92074153 -0.17786964 206.34096064 -0.19034155 221.7612226 -0.19150805 C230.42233529 -0.19242543 239.08338482 -0.19819335 247.74448013 -0.21632767 C255.11983836 -0.23171523 262.49511393 -0.23685712 269.87048516 -0.22858956 C273.63424991 -0.22467814 277.39784813 -0.22563646 281.16159248 -0.23964691 C285.24079259 -0.25469286 289.31961612 -0.24653386 293.39883041 -0.23606491 C294.59007405 -0.24412132 295.78131768 -0.25217772 297.0086596 -0.26047826 C304.11170864 -0.21769408 308.76453947 0.3966635 314.28866196 5.19392776 C315.91366196 7.13142776 315.91366196 7.13142776 315.91366196 9.13142776 C316.57366196 9.13142776 317.23366196 9.13142776 317.91366196 9.13142776 C318.83558146 11.89718626 319.05404794 13.61696155 319.09066391 16.47591019 C319.10349915 17.3507959 319.11633438 18.22568161 319.12955856 19.12707901 C319.14063896 20.54268867 319.14063896 20.54268867 319.15194321 21.98689651 C319.16001495 22.96250031 319.1680867 23.9381041 319.17640305 24.94327164 C319.19023726 27.01028546 319.20096238 29.07732207 319.20882797 31.14436722 C319.22600176 34.28958984 319.26988966 37.4337505 319.31405258 40.57869339 C319.32418339 42.58975339 319.33269828 44.60082231 319.33944321 46.61189651 C319.35695129 47.54551514 319.37445938 48.47913376 319.39249802 49.44104385 C319.36849747 56.74766235 317.76660688 62.20137622 312.60116196 67.50642776 C305.61915761 71.72810481 298.52639304 71.41805889 290.59142685 71.39212418 C289.35039605 71.39594972 288.10936525 71.39977527 286.83072746 71.40371674 C283.39776635 71.41223522 279.96501999 71.41181874 276.53206515 71.40753615 C272.8250852 71.40506623 269.11813027 71.41408639 265.41115952 71.42157364 C258.15328561 71.43431536 250.89544871 71.43611498 243.63756551 71.43377338 C237.73725211 71.43198944 231.83694993 71.43374148 225.93663788 71.43799782 C224.67639356 71.4388906 224.67639356 71.4388906 223.39068975 71.43980142 C221.68382407 71.44101319 219.97695839 71.44222732 218.27009271 71.4434438 C202.2671608 71.45431734 186.26424997 71.45215774 170.26131688 71.44605895 C155.62759952 71.44089015 140.99394872 71.45214459 126.36024453 71.47115717 C111.32741819 71.49053828 96.29462335 71.49879108 81.26178443 71.49503392 C72.8247794 71.49312227 64.38783102 71.49560594 55.95083618 71.50974846 C48.76818251 71.52166671 41.58562038 71.52306218 34.40296544 71.51095829 C30.74006034 71.50507267 27.07732263 71.50396129 23.41442871 71.51596069 C19.43949116 71.52883074 15.46480675 71.51834741 11.48986435 71.50564957 C10.33800648 71.51302385 9.18614861 71.52039814 7.99938595 71.52799588 C1.27185749 71.48279332 -6.3265335 71.41079565 -11.66978061 66.75032121 C-15.26397473 62.61904876 -17.33900717 58.97034328 -17.32925797 53.50227737 C-17.33233459 52.59130798 -17.33541122 51.68033859 -17.33858109 50.74176407 C-17.33139557 49.76562653 -17.32421005 48.78948898 -17.31680679 47.78377151 C-17.31634857 46.77552826 -17.31589035 45.767285 -17.31541824 44.72848892 C-17.3123999 42.59936215 -17.3045261 40.4702375 -17.29214859 38.34114456 C-17.27388769 35.07780025 -17.27163901 31.81473973 -17.27188492 28.55134964 C-17.26696966 26.48298781 -17.26114131 24.4146279 -17.25430679 22.34627151 C-17.25319397 21.36810974 -17.25208115 20.38994797 -17.2509346 19.38214493 C-17.24455475 18.4743277 -17.2381749 17.56651047 -17.23160172 16.63118362 C-17.22778992 15.83272522 -17.22397812 15.03426682 -17.22005081 14.2116127 C-17.08633804 12.13142776 -17.08633804 12.13142776 -16.08633804 9.13142776 C-15.42633804 9.13142776 -14.76633804 9.13142776 -14.08633804 9.13142776 C-13.85946304 8.55392776 -13.63258804 7.97642776 -13.39883804 7.38142776 C-10.24119673 1.96832837 -5.97337496 0.0079149 0 0 Z " fill="#06A9E8" transform="translate(105.08633804321289,229.86857223510742)"/>
<path d="M0 0 C0.71536596 -0.00779995 1.43073192 -0.01559991 2.16777563 -0.02363622 C4.55952134 -0.04354483 6.94967379 -0.02779784 9.34143066 -0.01205444 C11.05818103 -0.01883113 12.77492412 -0.02773455 14.49165344 -0.03860474 C19.1508167 -0.06139872 23.80942638 -0.0525614 28.46859932 -0.03670931 C33.34431577 -0.02405082 38.21998481 -0.03579028 43.09570312 -0.04364014 C51.28365591 -0.05273685 59.47138321 -0.04074822 67.65930176 -0.01693726 C77.12583089 0.01027407 86.5918216 0.00145992 96.05833769 -0.02606928 C104.18588479 -0.04875873 112.3132698 -0.05196124 120.44083834 -0.03887594 C125.29517728 -0.03108052 130.14926313 -0.03004232 135.00358582 -0.04655838 C139.56743767 -0.0610015 144.13059533 -0.05098454 148.69437218 -0.0220871 C150.36932408 -0.0154754 152.04433441 -0.01737544 153.71926308 -0.02840042 C156.0060949 -0.04206542 158.29070255 -0.0249328 160.57739258 0 C161.8567997 0.00188513 163.13620682 0.00377026 164.45438385 0.00571251 C168.6861394 0.80427137 170.17124129 2.27709089 172.78869629 5.63491821 C173.41369629 9.13491821 173.41369629 9.13491821 172.78869629 12.63491821 C170.61595409 15.26507982 168.84195841 17.10828715 165.78869629 18.63491821 C163.5575965 18.73593744 161.32339088 18.77005662 159.0900116 18.77536011 C158.39354312 18.77833123 157.69707465 18.78130235 156.97950107 18.78436351 C154.63423056 18.79306924 152.28901099 18.79456033 149.94372559 18.79605103 C148.26683441 18.80067789 146.5899443 18.80570238 144.91305542 18.81109619 C140.34893451 18.82423529 135.78482832 18.83066815 131.22069144 18.83510685 C128.37062935 18.83803529 125.52057131 18.84213967 122.67051125 18.84661102 C113.75751472 18.86029025 104.84452742 18.86995469 95.93152112 18.87381291 C85.63511104 18.87829416 75.33883368 18.89584333 65.04246396 18.92481351 C57.08911767 18.94641611 49.13580875 18.95651644 41.18243343 18.95785403 C36.42981006 18.95890313 31.67731139 18.96483306 26.92471886 18.98267365 C22.4538444 18.99912966 17.98318868 19.00132188 13.51229477 18.99253464 C11.87119143 18.99176292 10.23007646 18.99612467 8.58900261 19.00599289 C6.3485175 19.01867545 4.1088114 19.01285628 1.86833191 19.00241089 C0.61452571 19.00387745 -0.63928049 19.00534401 -1.93108082 19.00685501 C-5.51599187 18.60037034 -7.36067344 17.8089915 -10.21130371 15.63491821 C-12.71162026 11.8844434 -12.74733925 10.07635555 -12.21130371 5.63491821 C-8.49509168 0.82665615 -5.98264717 0.00881506 0 0 Z " fill="#EBF0F1" transform="translate(125.2113037109375,467.3650817871094)"/>
<path d="M0 0 C0.71451153 -0.00694553 1.42902307 -0.01389106 2.16518646 -0.02104706 C4.55982827 -0.03934613 6.95348259 -0.02904535 9.34815979 -0.01878357 C11.06476077 -0.02584063 12.78135552 -0.03458475 14.49794006 -0.04489136 C19.16121504 -0.06741957 23.82415118 -0.06443759 28.4874599 -0.05556989 C32.37923686 -0.05046459 36.27094989 -0.05774886 40.16272026 -0.06504196 C49.34324247 -0.082052 58.52359851 -0.07846416 67.70411682 -0.06175232 C77.17799609 -0.04482955 86.65141466 -0.06066514 96.1252436 -0.0929752 C104.25700462 -0.11965845 112.38862211 -0.12695053 120.52042252 -0.11846012 C125.37814402 -0.11352723 130.23558828 -0.11576603 135.09327507 -0.13624763 C139.66119421 -0.15458491 144.22844996 -0.14867022 148.79633331 -0.12404823 C150.47290528 -0.11903409 152.14952761 -0.12254579 153.82605934 -0.13519669 C156.11511047 -0.15110325 158.40197059 -0.13620285 160.69091797 -0.11352539 C161.97162391 -0.11293908 163.25232985 -0.11235277 164.57184505 -0.1117487 C168.80698289 0.68323445 170.2934049 2.15179126 172.90895081 5.5146637 C173.60046405 9.81741278 173.42452486 11.72411682 171.03395081 15.3896637 C167.46285827 18.96075623 165.13442344 18.64339126 160.17230225 18.65510559 C159.12147421 18.65956227 159.12147421 18.65956227 158.04941732 18.66410899 C155.69032735 18.67281493 153.33128801 18.67430583 150.97218323 18.67579651 C149.28543997 18.68042336 147.59869777 18.68544784 145.91195679 18.69084167 C141.32097723 18.70398091 136.7300123 18.71041365 132.13901687 18.71485233 C129.27220382 18.71778074 126.40539479 18.72188512 123.53858376 18.72635651 C114.5732615 18.74003576 105.60794842 18.74970019 96.64261645 18.7535584 C86.28564616 18.75803966 75.92880782 18.77558895 65.57187766 18.80455899 C57.57182264 18.82616133 49.57180478 18.83626191 41.5717209 18.83759952 C36.79115216 18.83864863 32.01070738 18.84457894 27.2301693 18.86241913 C22.7330304 18.87887469 18.23610897 18.88106759 13.73895073 18.87228012 C12.08817208 18.87150838 10.43738187 18.87587047 8.78663254 18.88573837 C6.53301174 18.89842016 4.28016549 18.89260217 2.02655029 18.88215637 C0.76536975 18.88362293 -0.49581079 18.88508949 -1.79520893 18.88660049 C-5.36200392 18.48408635 -7.22972027 17.63472247 -10.09104919 15.5146637 C-12.19206514 12.8406434 -12.08951895 11.47181685 -11.96604919 8.0146637 C-10.22854135 1.06463234 -6.80448155 0.01491776 0 0 Z " fill="#EDEEEF" transform="translate(125.09104919433594,361.48533630371094)"/>
<path d="M0 0 C0.71128241 -0.00779995 1.42256481 -0.01559991 2.15540123 -0.02363622 C4.53333054 -0.04354374 6.90965714 -0.02779833 9.28759766 -0.01205444 C10.99449598 -0.01883118 12.70138699 -0.02773463 14.40826416 -0.03860474 C19.04056983 -0.06139813 23.67231869 -0.05256166 28.30463409 -0.03670931 C33.15232341 -0.02405051 37.99996506 -0.03579037 42.84765625 -0.04364014 C50.98853109 -0.05273676 59.12917913 -0.04074846 67.27001953 -0.01693726 C76.68201816 0.01027405 86.09347524 0.0014599 95.50546074 -0.02606928 C103.58629937 -0.04875899 111.66697497 -0.05196111 119.74783516 -0.03887594 C124.57422894 -0.03108066 129.40036818 -0.03004193 134.22674561 -0.04655838 C138.7643341 -0.06100189 143.30122442 -0.05098386 147.83873749 -0.0220871 C149.50401398 -0.01547561 151.16934923 -0.0173751 152.83460236 -0.02840042 C155.10830144 -0.04206627 157.37976381 -0.02493192 159.65332031 0 C160.92535309 0.00188513 162.19738586 0.00377026 163.50796509 0.00571251 C167.7000649 0.80051078 169.18404575 2.35982708 171.82666016 5.63491821 C172.73404157 8.66140156 172.29099148 10.38459891 171.82666016 13.63491821 C169.61925335 16.60349978 168.34068643 17.46357612 164.82666016 18.63491821 C162.55534005 18.73357633 160.2811763 18.76995748 158.00772095 18.77536011 C157.31039805 18.77833123 156.61307515 18.78130235 155.89462125 18.78436351 C153.55245677 18.79305159 151.21034339 18.79455884 148.86816406 18.79605103 C147.19112539 18.80067908 145.51408778 18.80570372 143.83705139 18.81109619 C139.27712179 18.8242224 134.71720692 18.83066544 130.15726137 18.83510685 C127.30937152 18.83803689 124.4614857 18.84214154 121.61359787 18.84661102 C112.70594413 18.8602858 103.7982996 18.86995287 94.89063609 18.87381291 C84.60272609 18.87829542 74.31494885 18.89585233 64.02707922 18.92481351 C56.07795902 18.94641548 48.12887621 18.95651638 40.17972696 18.95785403 C35.43047191 18.95890302 30.68134165 18.96483081 25.93211746 18.98267365 C21.46533357 18.99912894 16.99876862 19.00132224 12.53196526 18.99253464 C10.89247362 18.99176293 9.25297034 18.99612459 7.61350822 19.00599289 C5.3752659 19.01867545 3.13780335 19.01285633 0.89956665 19.00241089 C-0.35294073 19.00387745 -1.60544811 19.00534401 -2.89591026 19.00685501 C-6.45128504 18.6033758 -8.33721634 17.77765869 -11.17333984 15.63491821 C-12.75232038 12.47695715 -12.99262155 9.02821186 -12.17333984 5.63491821 C-8.37622578 0.90612455 -6.00025229 0.00889226 0 0 Z " fill="#EDF0F1" transform="translate(124.17333984375,255.36508178710938)"/>
<path d="M0 0 C2.7109375 1.80859375 2.7109375 1.80859375 5.375 4.4375 C5.86468262 4.91251953 6.35436523 5.38753906 6.85888672 5.87695312 C8.59028104 7.56751518 10.29361141 9.28421105 12 11 C13.49367031 12.47119144 14.98852759 13.94117845 16.484375 15.41015625 C19.50160585 18.38907808 22.5150148 21.3715162 25.5078125 24.375 C26.13316895 25.00148437 26.75852539 25.62796875 27.40283203 26.2734375 C30.61294438 29.74361704 31.51507494 32.24714895 31.375 36.9921875 C31 39 31 39 28.9375 42 C25.18956239 44.55178731 23.47310996 44.59798417 19 44 C16.53369874 42.339829 14.65543667 40.27674292 12.6875 38.0625 C9.23578164 34.0351972 9.23578164 34.0351972 5 31 C5.01665459 32.12966438 5.01665459 32.12966438 5.03364563 33.28215027 C5.13393747 40.38840453 5.21000991 47.49441263 5.25906086 54.60117626 C5.28512695 58.25468893 5.32046776 61.9076156 5.37719727 65.56079102 C5.43162765 69.08808948 5.46144302 72.61482527 5.47438622 76.14251137 C5.48808639 78.13956402 5.52710294 80.13639106 5.56648254 82.13310242 C5.56960733 92.23495176 5.56960733 92.23495176 2.68823242 95.32543945 C-0.8927724 97.55612804 -2.85422078 97.74031772 -7 97 C-9.63340405 95.35120782 -10.57871176 94.66431406 -12 92 C-12.77252395 87.39766697 -12.72103064 82.82592842 -12.70703125 78.16796875 C-12.72015435 76.80745741 -12.73546047 75.44696553 -12.75285339 74.08650208 C-12.79264649 70.51736135 -12.80288999 66.94873091 -12.80688477 63.37939453 C-12.81622721 59.73259049 -12.85364751 56.08608494 -12.88867188 52.43945312 C-12.95318891 45.29301278 -12.9864771 38.14673357 -13 31 C-13.84304687 31.85464844 -14.68609375 32.70929688 -15.5546875 33.58984375 C-16.66132593 34.70586047 -17.76810402 35.82173872 -18.875 36.9375 C-19.43058594 37.50146484 -19.98617187 38.06542969 -20.55859375 38.64648438 C-25.74100131 43.86011126 -25.74100131 43.86011126 -29.8125 44.3125 C-33.88445382 43.91328884 -35.30821585 43.07632474 -38 40 C-39.76633744 35.34329221 -39.76633744 35.34329221 -39 32 C-37.359375 29.75439453 -37.359375 29.75439453 -35.125 27.3828125 C-34.30563965 26.50834473 -33.4862793 25.63387695 -32.64208984 24.73291016 C-28.34027164 20.28321944 -24.01122505 15.8666145 -19.625 11.5 C-18.73683594 10.60796875 -17.84867188 9.7159375 -16.93359375 8.796875 C-15.65548828 7.52070312 -15.65548828 7.52070312 -14.3515625 6.21875 C-13.20421631 5.0730957 -13.20421631 5.0730957 -12.03369141 3.90429688 C-7.97643566 0.10518585 -5.50984536 -0.60761678 0 0 Z " fill="#09AAE8" transform="translate(189,106)"/>
<path d="M0 0 C2.63340405 1.64879218 3.57871176 2.33568594 5 5 C5.77252395 9.60233303 5.72103064 14.17407158 5.70703125 18.83203125 C5.72015435 20.19254259 5.73546047 21.55303447 5.75285339 22.91349792 C5.79264649 26.48263865 5.80288999 30.05126909 5.80688477 33.62060547 C5.81622721 37.26740951 5.85364751 40.91391506 5.88867188 44.56054688 C5.95318891 51.70698722 5.9864771 58.85326643 6 66 C6.78503906 65.14535156 7.57007813 64.29070312 8.37890625 63.41015625 C9.43927592 62.29348376 10.50052057 61.17764169 11.5625 60.0625 C12.07619141 59.49853516 12.58988281 58.93457031 13.11914062 58.35351562 C16.01213454 55.35270827 17.57437981 54.10930498 21.7265625 53.04296875 C25.52918657 52.99305364 27.0564089 53.64512712 30 56 C32.33723686 59.50585529 32.48566167 60.87349684 32 65 C30.39599609 67.40429688 30.39599609 67.40429688 28.1484375 69.71875 C27.32569336 70.57855469 26.50294922 71.43835938 25.65527344 72.32421875 C24.7790332 73.20722656 23.90279297 74.09023437 23 75 C22.15211914 75.87269531 21.30423828 76.74539062 20.43066406 77.64453125 C17.84893677 80.28393439 15.24155104 82.8951474 12.625 85.5 C11.73683594 86.39203125 10.84867187 87.2840625 9.93359375 88.203125 C9.08152344 89.05390625 8.22945313 89.9046875 7.3515625 90.78125 C6.58666504 91.54501953 5.82176758 92.30878906 5.03369141 93.09570312 C2.40103103 95.5608593 0.48131326 96.89195008 -3.0625 97.6875 C-8.68128829 96.70644173 -11.29002327 93.74508296 -15.24023438 89.77001953 C-17.40902958 87.58858707 -19.60377969 85.43434047 -21.796875 83.27734375 C-25.2076375 79.90550074 -28.61392308 76.52945813 -32 73.1328125 C-32.721875 72.40980957 -33.44375 71.68680664 -34.1875 70.94189453 C-37.5053618 67.38717029 -38.51973515 64.91071579 -38.375 60.0078125 C-38 58 -38 58 -35.9375 55 C-32.16756404 52.43323509 -30.5022577 52.36218016 -26 53 C-23.32352763 54.83922818 -21.23527812 57.10021521 -19.0625 59.5 C-18.47404297 60.12003906 -17.88558594 60.74007812 -17.27929688 61.37890625 C-15.83643008 62.90388741 -14.41590672 64.44995475 -13 66 C-12.99857498 65.24689041 -12.99714996 64.49378082 -12.99568176 63.71784973 C-12.97783247 56.61118701 -12.93616274 49.50515301 -12.86790943 42.39882374 C-12.83365666 38.74553575 -12.80853229 35.09266514 -12.80444336 31.43920898 C-12.80015645 27.91155715 -12.77166394 24.38484653 -12.72656822 20.85748863 C-12.70730794 18.86071622 -12.71294686 16.86375386 -12.71894836 14.86689758 C-12.55641672 4.76497884 -12.55641672 4.76497884 -9.67456055 1.67456055 C-6.1022974 -0.56205771 -4.14077431 -0.73942398 0 0 Z " fill="#2B495B" transform="translate(330,106)"/>
<path d="M0 0 C4.76915447 1.88233884 8.06756585 5.50417546 10.3359375 10.05078125 C11.87552852 14.56993371 11.88969978 18.71630057 10.15234375 23.17578125 C7.2895538 28.32880316 3.49257514 31.807031 -2 34 C-5.98253753 34.77708049 -9.273777 34.24691582 -13.125 32.9375 C-17.64346921 29.89244466 -21.26026194 26.21921417 -23 21 C-23.52166057 16.03139685 -23.5724051 12.14481021 -21.3125 7.625 C-14.83193145 0.26867894 -9.61125741 -1.07065223 0 0 Z " fill="#E81E27" transform="translate(388,460)"/>
<path d="M0 0 C4.6488565 2.010077 7.46406327 4.73815245 9.88671875 9.1796875 C11.68103148 13.83008518 11.7085264 17.91214855 9.88671875 22.55859375 C7.03358308 27.72141068 3.24905078 31.22602135 -2.26171875 33.38671875 C-7.21485867 34.44315768 -11.13711003 33.80695987 -15.57421875 31.38671875 C-19.68501339 28.45746987 -21.90971449 25.24548407 -23.26171875 20.38671875 C-24.01314421 15.32242423 -23.88150403 11.62628931 -21.57421875 7.01171875 C-15.31403056 -0.09444082 -9.32823636 -2.52941815 0 0 Z " fill="#E91D25" transform="translate(388.26171875,354.61328125)"/>
<path d="M0 0 C4.60752578 2.55272357 8.06284357 6.06397641 10 11 C10.74915483 16.89594582 10.47351482 22.02129543 7 27 C2.60686812 31.41713807 -1.09882932 33.14920852 -7.3125 33.3125 C-12.37478087 33.25907223 -15.14510059 32.47881166 -19 29 C-23.60021809 24.02679126 -24.36807655 19.85576502 -24.28125 13.24609375 C-23.68514575 8.48553901 -20.83630105 5.73674141 -17.375 2.6875 C-12.04565701 -1.09913844 -6.35966307 -0.92018462 0 0 Z " fill="#EA1D26" transform="translate(386,249)"/>
<path d="M0 0 C1.97226562 -0.00290039 1.97226562 -0.00290039 3.984375 -0.00585938 C5.0043457 0.01287231 5.0043457 0.01287231 6.04492188 0.03198242 C8.11987007 0.06632135 10.19055909 0.05262614 12.265625 0.03320312 C23.51871222 0.11594641 23.51871222 0.11594641 28.125 4.62890625 C29.56930855 7.51752334 29.50188506 9.42538326 29.125 12.62890625 C26.57475635 15.73055394 24.94800753 17.35457041 21.125 18.62890625 C16.67128634 18.91663949 12.21195644 18.90661969 7.75 18.94140625 C6.51765625 18.97041016 5.2853125 18.99941406 4.015625 19.02929688 C2.23285156 19.04186523 2.23285156 19.04186523 0.4140625 19.0546875 C-1.21474854 19.07656128 -1.21474854 19.07656128 -2.87646484 19.09887695 C-6.57354144 18.51942145 -8.21286223 17.20386395 -10.875 14.62890625 C-12.44435594 11.49019437 -12.22701103 9.09034803 -11.875 5.62890625 C-8.24730168 0.96611257 -5.83591359 -0.00352979 0 0 Z " fill="#F2CB28" transform="translate(323.875,361.37109375)"/>
<path d="M0 0 C1.35206365 -0.01651623 2.70404154 -0.04375 4.05566406 -0.08203125 C16.719254 -0.43853378 16.719254 -0.43853378 20.66357422 2.62353516 C23.60985387 6.40387192 23.60985387 6.40387192 23.53857422 9.35009766 C23.55404297 9.98947266 23.56951172 10.62884766 23.58544922 11.28759766 C22.21328689 14.83907663 20.15499899 16.77451926 16.78857422 18.35009766 C12.27460441 19.03690788 7.84478401 18.95684592 3.28857422 18.85009766 C2.07814453 18.85267578 0.86771484 18.85525391 -0.37939453 18.85791016 C-6.52044551 18.79035184 -10.84294455 18.60802515 -16.21142578 15.35009766 C-18.55311342 11.8375662 -18.70766255 10.4854041 -18.21142578 6.35009766 C-13.31882546 -0.98880282 -8.26346107 0.07390574 0 0 Z " fill="#F1CD2B" transform="translate(324.21142578125,255.64990234375)"/>
<path d="M0 0 C1.26972656 0.00257813 2.53945313 0.00515625 3.84765625 0.0078125 C5.16636719 0.03617187 6.48507812 0.06453125 7.84375 0.09375 C9.16246094 0.09117187 10.48117187 0.08859375 11.83984375 0.0859375 C22.81928901 0.19740395 22.81928901 0.19740395 27.34375 3.59375 C29.68924674 7.11199511 29.92366403 8.45150694 29.34375 12.59375 C26.79350635 15.69539769 25.16675753 17.31941416 21.34375 18.59375 C17.07762981 18.88063778 12.80592859 18.8714588 8.53125 18.90625 C7.35498047 18.93525391 6.17871094 18.96425781 4.96679688 18.99414062 C-5.89343981 19.07395017 -5.89343981 19.07395017 -10.65625 14.59375 C-12.22560594 11.45503812 -12.00826103 9.05519178 -11.65625 5.59375 C-8.07620914 1.0183317 -5.75125761 -0.03524448 0 0 Z " fill="#F0CD2B" transform="translate(323.65625,467.40625)"/>
</svg>
