<?xml version="1.0" encoding="UTF-8"?>
<svg version="1.1" xmlns="http://www.w3.org/2000/svg" width="512" height="512">
<path d="M0 0 C0.74732881 -0.00382555 1.49465762 -0.00765109 2.26463276 -0.01159257 C4.76414535 -0.02189602 7.26342708 -0.01793551 9.76295471 -0.01396179 C11.55689201 -0.01830972 13.35082745 -0.02349314 15.14476013 -0.02944946 C20.01456724 -0.04284162 24.88429675 -0.04341791 29.75411868 -0.04088616 C33.81980739 -0.03981665 37.88548039 -0.04469929 41.95116574 -0.04949158 C51.54257479 -0.06058741 61.13394469 -0.06102367 70.72535706 -0.05497742 C80.620038 -0.04893591 90.51457681 -0.06125298 100.40923351 -0.08254749 C108.90533303 -0.10015978 117.40138729 -0.10616545 125.89750439 -0.10290974 C130.97147776 -0.10109623 136.04534972 -0.10373992 141.11930656 -0.11762428 C145.89063647 -0.13019201 150.66174467 -0.1282685 155.43307114 -0.11521339 C157.18340568 -0.11284581 158.93375578 -0.11558883 160.68407249 -0.12383652 C163.07512096 -0.13429036 165.4654236 -0.12621471 167.85644531 -0.11352539 C168.5476012 -0.12089968 169.23875709 -0.12827396 169.9508571 -0.13587171 C174.50001717 -0.08514837 177.62823563 0.86724068 181.49171448 3.26069641 C182.77344869 5.82416484 182.62065256 7.63717395 182.62593555 10.50879478 C182.6303934 11.62848007 182.63485124 12.74816535 182.63944417 13.90178049 C182.63916763 15.76244085 182.63916763 15.76244085 182.6388855 17.66069031 C182.64256219 18.9703972 182.64623887 20.2801041 182.65002698 21.62949908 C182.66006397 25.27716464 182.66376648 28.92481375 182.66641629 32.57249117 C182.67031424 36.50168339 182.67989283 40.43086251 182.68862915 44.36004639 C182.7084066 53.85430434 182.71846079 63.34856339 182.72735694 72.8428368 C182.7317372 77.31026558 182.73710464 81.77769317 182.74234581 86.245121 C182.75935836 101.08918448 182.773854 115.93324722 182.78109455 130.77731895 C182.78300454 134.6308276 182.78492486 138.48433623 182.78688049 142.33784485 C182.78736423 143.29565195 182.78784797 144.25345904 182.78834637 145.2402906 C182.79665217 160.76686131 182.82199822 176.29335511 182.85446117 191.81989221 C182.88749449 207.7486312 182.90553988 223.67733106 182.90873879 239.60610449 C182.91090721 248.55445665 182.9197043 257.50269662 182.94519997 266.45101547 C182.96685603 274.06945446 182.97498257 281.68775401 182.96523318 289.30622028 C182.96067378 293.19535047 182.96266919 297.08419267 182.98199463 300.97328377 C183.00274136 305.18463919 182.99268859 309.39534978 182.97946167 313.60673523 C182.99591554 315.46070343 182.99591554 315.46070343 183.01270181 317.35212553 C183.00412092 318.4770263 182.99554002 319.60192708 182.9866991 320.76091576 C182.98767591 321.73343454 182.98865272 322.70595332 182.98965913 323.70794237 C182.34331851 327.02146049 181.12648228 328.21027917 178.49171448 330.26069641 C175.27729797 330.77967834 175.27729797 330.77967834 171.42823792 330.80659485 C170.72539673 330.81693253 170.02255554 330.8272702 169.29841614 330.83792114 C166.98240666 330.86734668 164.66727118 330.86884817 162.35108948 330.87007141 C160.74253167 330.88505335 159.13398925 330.90178053 157.52546692 330.92018127 C153.2971679 330.96386605 149.06907638 330.98385621 144.84059143 330.99891663 C140.5236534 331.01848377 136.20693961 331.06045417 131.89015198 331.10054016 C123.4240648 331.17585442 114.95806564 331.22613832 106.49171448 331.26069641 C106.97843628 331.60734848 107.46515808 331.95400055 107.96662903 332.31115723 C115.83291808 338.1538541 122.61470442 345.03674884 129.53858948 351.93647766 C130.88131639 353.2702191 132.22411141 354.60389198 133.56697083 355.9375 C136.36768288 358.721807 139.16404787 361.5104017 141.95802307 364.3014679 C145.52241908 367.86046963 149.10271658 371.40300575 152.68712997 374.94183064 C155.46158803 377.68642736 158.22460794 380.44232732 160.98467255 383.20139122 C162.29936505 384.51190447 163.61813896 385.81833757 164.94120026 387.12040138 C174.94586139 396.9787302 182.65802357 405.56986452 182.86671448 420.32319641 C182.91285951 427.73534058 181.83278097 433.07467666 177.49171448 439.26069641 C176.40890198 440.86944641 176.40890198 440.86944641 175.30421448 442.51069641 C168.17293241 449.48350554 159.69196076 453.53948346 149.67921448 453.57319641 C132.31034268 453.24479337 122.64178928 441.75285584 111.01515198 430.22554016 C110.38017414 429.59746523 109.7451963 428.9693903 109.09097672 428.32228279 C105.72231171 424.98930006 102.35972505 421.65032115 99.00196838 418.30635071 C96.26620121 415.58374713 93.52015014 412.87225456 90.76368713 410.17060852 C75.20482588 394.91519172 60.57819586 380.19693588 49.49171448 361.26069641 C46.57498344 362.41515737 43.6811217 363.59609868 40.81983948 364.88179016 C22.02862346 373.26069641 22.02862346 373.26069641 16.49171448 373.26069641 C16.49171448 394.05069641 16.49171448 414.84069641 16.49171448 436.26069641 C20.45171448 436.26069641 24.41171448 436.26069641 28.49171448 436.26069641 C31.67921448 437.82319641 31.67921448 437.82319641 33.49171448 440.26069641 C34.42776661 443.75529103 34.86596838 446.10674689 33.74171448 449.57319641 C32.49171448 451.26069641 32.49171448 451.26069641 29.49171448 453.26069641 C27.01416403 453.51369607 27.01416403 453.51369607 23.99562931 453.51796532 C22.84608582 453.52441421 21.69654232 453.5308631 20.51216418 453.53750741 C19.24350919 453.53441021 17.9748542 453.53131301 16.66775513 453.52812195 C15.31095483 453.53185664 13.95415669 453.53645743 12.59736198 453.54185259 C8.86072014 453.55412031 5.12416758 453.55381772 1.38751018 453.55146384 C-2.63915021 453.55105663 -6.66578161 453.56208561 -10.69242859 453.57157898 C-18.58417647 453.58821019 -26.47589449 453.59368947 -34.36765843 453.59480374 C-40.78012443 453.59575313 -47.19258054 453.59985796 -53.60504341 453.60620499 C-71.77310817 453.62382254 -89.94114928 453.63304296 -108.10922264 453.63154404 C-109.08919708 453.63146413 -110.06917153 453.63138421 -111.07884216 453.63130188 C-112.06000868 453.63122012 -113.04117519 453.63113836 -114.05207402 453.63105412 C-129.96011004 453.63024089 -145.86805145 453.64938658 -161.7760601 453.67757861 C-178.09808027 453.70627687 -194.42005425 453.72012062 -210.7421003 453.71839106 C-219.91064164 453.71772614 -229.07908379 453.7232631 -238.24760246 453.74474716 C-246.05267269 453.76291871 -253.85759875 453.76733953 -261.66268092 453.75372832 C-265.64699752 453.74717842 -269.63103722 453.74715377 -273.61532784 453.76443481 C-277.26030413 453.78008198 -280.90478205 453.77738862 -284.54974557 453.75986655 C-286.49817565 453.75531106 -288.44662069 453.77051928 -290.39499182 453.78634584 C-291.54714306 453.77714825 -292.6992943 453.76795066 -293.88635921 453.75847435 C-294.88263802 453.75890909 -295.87891683 453.75934382 -296.90538591 453.75979173 C-300.23386081 453.12157033 -301.42434051 451.87829993 -303.50828552 449.26069641 C-304.00437927 447.00679016 -304.00437927 447.00679016 -303.94578552 444.69819641 C-303.94449646 443.93378235 -303.9432074 443.16936829 -303.94187927 442.38179016 C-303.40585539 439.7596193 -302.60548195 438.88417318 -300.50828552 437.26069641 C-297.35897659 436.21092677 -295.12014096 436.15938046 -291.82078552 436.19819641 C-290.82691833 436.20721985 -289.83305115 436.21624329 -288.80906677 436.22554016 C-287.67018005 436.2429425 -287.67018005 436.2429425 -286.50828552 436.26069641 C-286.5110509 435.49832106 -286.51381628 434.7359457 -286.51666546 433.95046806 C-286.58292924 415.39700408 -286.63256803 396.84356372 -286.66372204 378.29000664 C-286.67918847 369.31762822 -286.70027372 360.34532881 -286.73460388 351.3730011 C-286.76451308 343.55237943 -286.78386215 335.73181498 -286.79055101 327.9111377 C-286.79446069 323.77044282 -286.80364431 319.62991165 -286.82547569 315.48926926 C-286.8458649 311.59050449 -286.85211443 307.69197059 -286.84760857 303.79315758 C-286.84843268 302.36371417 -286.85438396 300.93426289 -286.86590195 299.50486565 C-286.88088231 297.54958078 -286.87543897 295.59417154 -286.86904907 293.63883972 C-286.87181445 292.54559324 -286.87457983 291.45234676 -286.87742901 290.3259716 C-286.4469243 286.7511682 -285.33839025 284.34400259 -283.50828552 281.26069641 C-280.57285932 279.13092143 -278.01986146 279.00467561 -274.45188904 278.98603821 C-273.44727127 278.9765062 -272.4426535 278.96697418 -271.40759277 278.95715332 C-270.32836044 278.95806473 -269.24912811 278.95897614 -268.13719177 278.95991516 C-267.02271164 278.95563004 -265.90823151 278.95134491 -264.75997925 278.94692993 C-262.40387145 278.94118888 -260.04774593 278.9406847 -257.69163513 278.94502258 C-254.08789312 278.94818142 -250.48497286 278.9247235 -246.8813324 278.89936829 C-244.59161989 278.89709517 -242.30190518 278.89639186 -240.01219177 278.89741516 C-238.93498367 278.88820541 -237.85777557 278.87899567 -236.7479248 278.86950684 C-227.05587029 278.92941116 -227.05587029 278.92941116 -223.50828552 282.26069641 C-221.59378685 286.11146764 -221.26057671 289.24551459 -221.26777649 293.51858521 C-221.26502716 294.77916748 -221.26227783 296.03974976 -221.25944519 297.33853149 C-221.26652254 298.72770787 -221.27379215 300.11688327 -221.28123474 301.50605774 C-221.28179913 302.9747568 -221.28148175 304.44345642 -221.28034973 305.91215515 C-221.2797763 309.89318664 -221.29152907 313.87409742 -221.30549765 317.85510087 C-221.31800658 322.01777423 -221.31917563 326.1804504 -221.32154846 330.34313965 C-221.32776275 338.22305252 -221.34417288 346.10290985 -221.36424744 353.98279828 C-221.38660802 362.95492435 -221.39760027 371.92705308 -221.40763831 380.89920008 C-221.42853915 399.35306455 -221.46411738 417.80687398 -221.50828552 436.26069641 C-216.55828552 436.26069641 -211.60828552 436.26069641 -206.50828552 436.26069641 C-206.51289449 435.15725293 -206.51750345 434.05380945 -206.52225208 432.91692829 C-206.63317953 406.08540262 -206.7153808 379.25390663 -206.76734638 352.4222002 C-206.79314359 339.44665192 -206.82832335 326.47125498 -206.88548279 313.49580383 C-206.93527101 302.1882763 -206.96756549 290.88085835 -206.978728 279.57322425 C-206.98525445 273.58416823 -207.00062543 267.59542577 -207.03693581 261.60647011 C-207.07082259 255.97171143 -207.08135313 250.33739606 -207.07382393 244.70254517 C-207.07520174 242.63248474 -207.08517748 240.5624098 -207.1043129 238.49243736 C-207.12913637 235.66914403 -207.12322976 232.84753145 -207.10955811 230.02420044 C-207.12412231 229.20221076 -207.13868652 228.38022109 -207.15369207 227.53332263 C-207.09782744 223.2747783 -206.86845146 221.71726709 -204.13473129 218.25181866 C-201.13100424 215.9746775 -199.77060078 215.63729046 -196.04710388 215.64546204 C-194.9792717 215.63615662 -193.91143951 215.6268512 -192.81124878 215.61726379 C-191.09700462 215.64185669 -191.09700462 215.64185669 -189.34812927 215.66694641 C-188.16610428 215.66690613 -186.98407928 215.66686584 -185.76623535 215.66682434 C-183.27061132 215.67217991 -180.77498773 215.68976387 -178.27952576 215.71870422 C-174.45616743 215.76058269 -170.63456905 215.75977009 -166.8110199 215.75288391 C-164.38587743 215.76337547 -161.96074405 215.77631338 -159.53562927 215.79194641 C-158.3907756 215.79214783 -157.24592194 215.79234924 -156.06637573 215.79255676 C-155.00169571 215.80846863 -153.93701569 215.82438049 -152.84007263 215.84077454 C-151.9047319 215.84919373 -150.96939117 215.85761292 -150.00570679 215.86628723 C-147.03296748 216.33576176 -145.66639833 217.18745781 -143.50828552 219.26069641 C-142.22499157 223.11057827 -142.37385002 226.73450319 -142.38803101 230.74572754 C-142.38674937 232.06039276 -142.38674937 232.06039276 -142.38544184 233.40161687 C-142.38378969 236.34969973 -142.38930412 239.29772618 -142.39476013 242.24580383 C-142.39504209 244.3545939 -142.39488411 246.46338406 -142.39431763 248.57217407 C-142.39402998 254.30735926 -142.39992152 260.04252366 -142.40689158 265.777704 C-142.41313047 271.76750188 -142.41372935 277.7573002 -142.41491699 283.74710083 C-142.41802872 295.09428146 -142.42624 306.44145248 -142.43626648 317.78862888 C-142.44743251 330.70501732 -142.45293931 343.62140622 -142.45796192 356.53779829 C-142.46842273 383.11210299 -142.48601913 409.68639916 -142.50828552 436.26069641 C-137.55828552 436.26069641 -132.60828552 436.26069641 -127.50828552 436.26069641 C-127.53373947 433.00444145 -127.53373947 433.00444145 -127.55970764 429.68240356 C-127.71909913 409.15999426 -127.86649324 388.63752328 -128.00306129 368.11494923 C-128.07354502 357.56574264 -128.14796019 347.01659219 -128.23191833 336.46748352 C-128.30516064 327.26349699 -128.37073342 318.05949172 -128.42742956 308.85538787 C-128.4576561 303.99043191 -128.49149637 299.1255667 -128.53454971 294.26070595 C-128.91934198 250.13981626 -126.55698473 211.21729992 -94.39256287 177.86421204 C-80.63351376 163.86545824 -80.63351376 163.86545824 -72.88781738 161.44020081 C-69.4800261 160.17730213 -67.82090393 159.10253846 -65.50828552 156.26069641 C-63.85171452 150.13371695 -64.37026291 143.5121686 -64.54087639 137.22718048 C-64.63036314 133.89594613 -64.65792327 130.56918987 -64.66967773 127.23683167 C-64.70602786 120.16028874 -64.821787 113.08616717 -64.94578552 106.01069641 C-65.08514865 97.82234754 -65.19156281 89.63573403 -65.22497749 81.4462204 C-65.25389153 78.17524827 -65.33756924 74.90869493 -65.42391968 71.6388092 C-65.65740663 55.21597961 -65.65740663 55.21597961 -60.5934906 49.47651672 C-58.93057571 48.0333382 -57.23431557 46.62776278 -55.50828552 45.26069641 C-53.85933681 43.59577178 -52.22981633 41.91141665 -50.61863708 40.20991516 C-48.8816291 38.45313595 -47.14161141 36.6993285 -45.39891052 34.94819641 C-44.46907349 34.0126593 -43.53923645 33.07712219 -42.58122253 32.11323547 C-40.63350194 30.15513062 -38.68356309 28.19926389 -36.73240662 26.24458313 C-34.23870184 23.7453393 -31.75445721 21.23690055 -29.27214432 18.72634888 C-26.8834607 16.31457539 -24.48424018 13.91337649 -22.08641052 11.51069641 C-21.19987793 10.61181702 -20.31334534 9.71293762 -19.39994812 8.78681946 C-18.56848267 7.9583551 -17.73701721 7.12989075 -16.88035583 6.27632141 C-15.79189362 5.18239075 -15.79189362 5.18239075 -14.68144226 4.06636047 C-10.15370697 0.30428995 -5.70610141 -0.03110127 0 0 Z M-63.50828552 365.26069641 C-63.50828552 388.69069641 -63.50828552 412.12069641 -63.50828552 436.26069641 C-58.22828552 436.26069641 -52.94828552 436.26069641 -47.50828552 436.26069641 C-47.50828552 414.81069641 -47.50828552 393.36069641 -47.50828552 371.26069641 C-55.3742427 367.85605308 -55.3742427 367.85605308 -63.50828552 365.26069641 Z " fill="#000000" transform="translate(316.50828552246094,31.739303588867188)"/>
<path d="M0 0 C52.8 0 105.6 0 160 0 C160 98.01 160 196.02 160 297 C135.25 297 110.5 297 85 297 C86.30458582 293.08624255 87.65579302 289.27669284 89.1574707 285.44360352 C99.68161442 258.37728461 100.84481953 225.98903169 89 199 C83.81935729 187.78919417 77.88464305 177.53172515 70 168 C69.46761719 167.32839844 68.93523437 166.65679687 68.38671875 165.96484375 C50.74472542 144.32843683 21.40198858 131.38729037 -5.81518555 128.19628906 C-22.87220149 126.66384512 -38.39187245 129.30930499 -55 133 C-55 107.26 -55 81.52 -55 55 C-30.75 54.625 -30.75 54.625 -23.10839844 54.52197266 C-21.10871038 54.48676577 -19.10903471 54.45084441 -17.109375 54.4140625 C-16.07184082 54.40270264 -15.03430664 54.39134277 -13.96533203 54.37963867 C-12.97098145 54.35957764 -11.97663086 54.3395166 -10.95214844 54.31884766 C-10.09055115 54.30552399 -9.22895386 54.29220032 -8.34124756 54.2784729 C-5.79402051 53.97550037 -4.1635818 53.36390551 -2 52 C5.75743371 36.48513258 -0.34685362 17.34268092 0 0 Z " fill="#E4E6E6" transform="translate(323,49)"/>
<path d="M0 0 C0 25.74 0 51.48 0 78 C25.74 78 51.48 78 78 78 C78 103.97021601 73.29738445 125.33223324 56 145 C55.34515625 145.75023437 54.6903125 146.50046875 54.015625 147.2734375 C43.80552641 158.21282884 31.08289362 165.33648441 17 170 C16.03707031 170.33902344 15.07414062 170.67804688 14.08203125 171.02734375 C-6.83505414 177.15285998 -30.72869361 173.68248369 -49.875 163.875 C-70.43915433 152.61469251 -85.41265677 134.14527937 -92.5 111.8125 C-98.85387633 89.36802017 -96.18716059 65.04720772 -85.12890625 44.6875 C-73.80966166 24.70572523 -55.79972973 9.78977184 -33.765625 3.00390625 C-22.28818119 0.02034188 -12.18553243 0 0 0 Z " fill="#000101" transform="translate(108,52)"/>
<path d="M0 0 C1.53598817 1.31584655 3.05834006 2.64788511 4.5625 4 C5.17351562 4.51820313 5.78453125 5.03640625 6.4140625 5.5703125 C19.00289088 17.00947618 26.93134863 34.97411009 27.74609375 51.7890625 C28.25812518 73.28670189 21.76257026 91.87446228 6.9296875 107.65625 C-7.87696898 122.31630592 -25.8840558 129.29427833 -46.60473633 129.31469727 C-64.32584924 128.99483525 -80.31267053 121.7981319 -93.4375 110 C-94.04851562 109.48179687 -94.65953125 108.96359375 -95.2890625 108.4296875 C-108.49710045 96.42786307 -115.48486537 78.22147411 -116.65625 60.734375 C-117.23200358 39.33553345 -109.7516324 20.77781868 -95.25 5.25 C-68.97837849 -19.60523844 -28.69262076 -22.29727758 0 0 Z " fill="#C7EDFC" transform="translate(349.4375,235)"/>
<path d="M0 0 C19.71209747 15.18699333 33.08585645 34.90296024 36.8828125 59.84375 C37.1667615 62.30719946 37.35615654 64.75034354 37.484375 67.2265625 C37.525625 68.00257813 37.566875 68.77859375 37.609375 69.578125 C38.20217541 92.32684079 30.13328907 113.07072087 15.484375 130.2265625 C14.84628906 131.05542969 14.20820313 131.88429688 13.55078125 132.73828125 C3.17733211 145.22956122 -12.32012428 152.54223521 -27.515625 157.2265625 C-28.27617187 157.46117187 -29.03671875 157.69578125 -29.8203125 157.9375 C-50.59127615 163.6933092 -73.47704291 159.59375061 -92.328125 149.9140625 C-98.24166611 146.55655747 -103.45742991 142.76370738 -108.515625 138.2265625 C-109.87494141 137.00839844 -109.87494141 137.00839844 -111.26171875 135.765625 C-121.58238921 126.00321549 -128.8535187 114.69867851 -133.515625 101.2265625 C-133.9075 100.19273437 -134.299375 99.15890625 -134.703125 98.09375 C-141.43993366 77.55584027 -139.21010143 53.15638139 -129.765625 33.8515625 C-118.41098845 12.07097028 -100.81460352 -3.75797033 -77.515625 -11.7734375 C-72.87940416 -12.99475601 -68.23931238 -13.96082296 -63.515625 -14.7734375 C-62.00935547 -15.04994141 -62.00935547 -15.04994141 -60.47265625 -15.33203125 C-39.84966491 -18.41049627 -16.8490795 -11.87807778 0 0 Z M-99.515625 19.2265625 C-100.43214844 20.00386719 -100.43214844 20.00386719 -101.3671875 20.796875 C-114.58340851 32.80613519 -121.57468136 51.02839509 -122.734375 68.52734375 C-123.29898737 89.67678194 -115.65222447 108.61216531 -101.328125 123.9765625 C-86.27216422 138.22081061 -67.4080417 144.97779464 -46.82421875 144.47265625 C-29.9437515 143.71949889 -15.28351233 137.05596767 -2.515625 126.2265625 C-1.42314453 125.30423828 -1.42314453 125.30423828 -0.30859375 124.36328125 C13.31338994 111.81601028 20.47990275 93.76822992 21.73828125 75.55078125 C22.54406244 55.77251567 15.74717713 37.98076407 2.484375 23.2265625 C1.70707031 22.31003906 1.70707031 22.31003906 0.9140625 21.375 C-7.94869229 11.62151609 -20.05941669 5.81998987 -32.515625 2.2265625 C-33.34191406 1.98164063 -34.16820312 1.73671875 -35.01953125 1.484375 C-58.14903782 -4.22951326 -82.15755367 3.62309766 -99.515625 19.2265625 Z " fill="#010102" transform="translate(355.515625,219.7734375)"/>
<path d="M0 0 C30.92152627 0 51.36672823 6.40295198 73.1171875 28.11328125 C91.23645666 47.39584979 95 69.1514786 95 95 C63.65 95 32.3 95 0 95 C0 63.65 0 32.3 0 0 Z " fill="#000000" transform="translate(116,27)"/>
<path d="M0 0 C19.25467259 16.41336703 31.38461704 35.76285604 36.3125 60.625 C36.50328125 61.5221875 36.6940625 62.419375 36.890625 63.34375 C40.36642486 90.37774889 34.13737726 116.39389803 18.1875 138.5625 C1.75477333 159.73332952 -20.37876473 173.33204381 -46.84765625 178.20703125 C-62.29365573 179.88833536 -77.88809415 179.56191836 -92.6875 174.625 C-93.32300781 174.41601074 -93.95851563 174.20702148 -94.61328125 173.99169922 C-110.71135942 168.52048375 -123.81968039 159.69888735 -135.6875 147.625 C-136.44804687 146.86316406 -137.20859375 146.10132813 -137.9921875 145.31640625 C-157.10198757 125.0540696 -163.31182903 98.47060854 -162.96484375 71.5 C-162.70593543 63.52407799 -161.1684218 56.18753404 -158.6875 48.625 C-158.47851074 47.9865918 -158.26952148 47.34818359 -158.05419922 46.69042969 C-152.57729747 30.58382575 -143.74589375 17.5143311 -131.6875 5.625 C-130.94886719 4.87605469 -130.21023437 4.12710938 -129.44921875 3.35546875 C-94.6978608 -29.82520636 -36.66552011 -29.24087942 0 0 Z M-130.36914062 22.07275391 C-147.61461711 42.37770566 -151.49717203 66.78190081 -149.6875 92.625 C-149.00666472 97.85087083 -147.55854433 102.70280821 -145.6875 107.625 C-145.12675781 109.19701172 -145.12675781 109.19701172 -144.5546875 110.80078125 C-140.08011741 122.46133312 -133.25839969 131.65258068 -124.6875 140.625 C-124.14738281 141.23988281 -123.60726562 141.85476563 -123.05078125 142.48828125 C-109.44902943 157.39196398 -87.42076445 165.60321284 -67.6875 166.625 C-66.91148437 166.66625 -66.13546875 166.7075 -65.3359375 166.75 C-43.37288975 167.32232698 -22.39546046 159.75053826 -5.6875 145.625 C-4.72457031 144.86058594 -3.76164063 144.09617187 -2.76953125 143.30859375 C14.56139986 128.812148 23.22140321 105.47696149 25.3125 83.625 C26.89243424 61.90090417 19.55795824 39.67853972 5.5234375 23.08984375 C4.42902344 21.86974609 4.42902344 21.86974609 3.3125 20.625 C2.50039063 19.71878906 1.68828125 18.81257813 0.8515625 17.87890625 C-15.18522136 0.9250629 -36.39252615 -7.98456701 -59.65234375 -9.578125 C-87.33223809 -10.01460165 -111.86145598 1.68892951 -130.36914062 22.07275391 Z " fill="#658A95" transform="translate(367.6875,213.375)"/>
<path d="M0 0 C10.56 0 21.12 0 32 0 C32 67.65 32 135.3 32 205 C21.44 205 10.88 205 0 205 C0 137.35 0 69.7 0 0 Z " fill="#2EE09F" transform="translate(126,264)"/>
<path d="M0 0 C0.23265722 8.69293899 0.40985321 17.38479206 0.51812172 26.0801754 C0.57011226 30.11886639 0.64050438 34.15541385 0.75439453 38.19287109 C0.86380611 42.09640852 0.92299228 45.99789774 0.94877243 49.9028511 C0.96711903 51.38535419 1.00294962 52.86775663 1.05730057 54.34937668 C1.46486844 65.93028372 1.46486844 65.93028372 -2.1741333 71.07183838 C-4.67118146 73.57321507 -7.25154501 75.78316185 -10 78 C-11.15537148 79.24328561 -12.28795913 80.509049 -13.375 81.8125 C-16.45918504 85.41314056 -19.65175848 88.89937827 -22.875 92.375 C-30.05752251 100.12885953 -37.16410737 107.93715228 -44 116 C-54.43765757 106.79030215 -60.81225149 91.70859735 -62 78 C-62.58031225 67.66903796 -62.73718571 57.78930832 -59 48 C-58.50693359 46.57880859 -58.50693359 46.57880859 -58.00390625 45.12890625 C-51.19246772 27.00435181 -38.11272772 13.44449173 -20.71875 5.1328125 C-14.00596991 2.3358208 -7.31901105 -0.13824026 0 0 Z " fill="#00CFF9" transform="translate(91,69)"/>
<path d="M0 0 C1.48924478 0.01868508 2.97855165 0.03290373 4.46788025 0.0428772 C8.36085055 0.08080069 12.25000321 0.17877773 16.14147949 0.28991699 C20.12309119 0.39279312 24.1053289 0.4380074 28.08789062 0.48828125 C35.88193646 0.59506776 43.67285239 0.76539483 51.46484375 0.9765625 C49.24306219 19.69444262 40.54517894 35.34711726 26.27734375 47.7265625 C9.52477835 60.73306814 -9.41420277 64.87889066 -30.15625 62.57421875 C-40.09541426 60.84812098 -52.46321949 56.5142675 -59.53515625 48.9765625 C-59.08712646 48.50347656 -58.63909668 48.03039062 -58.17749023 47.54296875 C-56.1076667 45.35562337 -54.04015395 43.16610632 -51.97265625 40.9765625 C-51.26818359 40.23277344 -50.56371094 39.48898438 -49.83789062 38.72265625 C-45.85554188 34.50173362 -41.96532739 30.22274199 -38.16333008 25.83886719 C-35.71755594 23.04139153 -33.19265884 20.32037999 -30.66015625 17.6015625 C-29.70371095 16.57358251 -28.7480054 15.54491383 -27.79296875 14.515625 C-27.30236465 14.00572021 -26.81176056 13.49581543 -26.30628967 12.97045898 C-24.45215756 10.9618105 -24.45215756 10.9618105 -22.79441833 8.4777832 C-16.33394148 -0.15393608 -10.03658154 -0.37248886 0 0 Z " fill="#F7D540" transform="translate(117.53515625,146.0234375)"/>
<path d="M0 0 C10.23 0 20.46 0 31 0 C31 46.53 31 93.06 31 141 C20.77 141 10.54 141 0 141 C0 94.47 0 47.94 0 0 Z " fill="#F8D540" transform="translate(47,328)"/>
<path d="M0 0 C3.81792811 1.58069587 6.25289998 3.99309829 9.1640625 6.8894043 C9.6654071 7.38563797 10.16675171 7.88187164 10.68328857 8.3931427 C12.33572142 10.03170044 13.98064426 11.67755816 15.625 13.32421875 C16.77533414 14.47066375 17.92589092 15.61688541 19.07666016 16.76289368 C21.48747271 19.16624769 23.89437723 21.57343641 26.29882812 23.9831543 C29.37027838 27.06038711 32.45291449 30.12613165 35.53884888 33.18883038 C37.91881246 35.55400895 40.29175624 37.92613539 42.66278076 40.30027199 C43.79586143 41.43284146 44.93128843 42.56306886 46.06915283 43.69083214 C47.66539682 45.27464186 49.25168281 46.86783221 50.8359375 48.46362305 C51.73876465 49.36582077 52.6415918 50.26801849 53.57177734 51.19755554 C58.03200586 56.34516532 60.68020932 60.95102293 60.31640625 67.86328125 C59.59496333 72.73524761 57.6324134 75.39508284 54.125 78.75 C48.9926236 82.44531101 45.37111194 83.55886947 39 83 C28.20203526 78.32196918 20.13097425 68.27372591 11.9609375 60.05859375 C10.9441197 59.0399047 9.92707633 58.02144078 8.90982056 57.00318909 C6.2674752 54.35707413 3.62814982 51.70796784 0.98950195 49.0581665 C-1.71737464 46.34095442 -4.42717944 43.6266658 -7.13671875 40.91210938 C-12.42730416 35.61088503 -17.71469373 30.30648822 -23 25 C-21.26239853 21.28286264 -19.14323122 18.91258988 -16.2109375 16.015625 C-15.74765045 15.55516785 -15.2843634 15.09471069 -14.80703735 14.62030029 C-13.33434102 13.15874922 -11.85482597 11.70432832 -10.375 10.25 C-9.37193678 9.25697389 -8.36932743 8.26348911 -7.3671875 7.26953125 C-4.91669165 4.84102059 -2.4600333 2.41885325 0 0 Z " fill="#658A95" transform="translate(423,386)"/>
<path d="M0 0 C4 5 4 5 5.9375 7.47265625 C10.11429643 12.71738359 14.4493564 17.63611698 19.1875 22.375 C19.91743164 23.10601929 19.91743164 23.10601929 20.66210938 23.85180664 C23.05736971 26.21100843 25.36145978 28.24863387 28.13833618 30.15873718 C30.8809681 32.44911834 30.99082565 32.95228917 31.7215271 36.75227356 C31.738814 38.23039841 31.72319615 39.70913967 31.68115234 41.18676758 C31.6820285 41.99704407 31.68290466 42.80732056 31.68380737 43.64215088 C31.67963932 46.3106044 31.63302822 48.97651903 31.5859375 51.64453125 C31.57474248 53.49825162 31.56620374 55.35198977 31.56021118 57.20573425 C31.53733677 62.0773141 31.47842574 66.94781519 31.4119873 71.81896973 C31.35053468 76.79257616 31.32318982 81.76635746 31.29296875 86.74023438 C31.22868047 96.49403905 31.1231669 106.24676092 31 116 C20.77 116 10.54 116 0 116 C0 77.72 0 39.44 0 0 Z " fill="#00CFF9" transform="translate(206,353)"/>
<path d="M0 0 C18.61756827 1.86175683 33.25651271 9.24512483 46 23 C55.66981457 34.8939063 60.46397288 46.63972882 62 62 C41.54 62 21.08 62 0 62 C0 41.54 0 21.08 0 0 Z " fill="#EF603E" transform="translate(132,44)"/>
<path d="M0 0 C1.24638748 -0.0112793 2.49277496 -0.02255859 3.77693176 -0.03417969 C5.15031667 -0.02640324 6.52369927 -0.01821061 7.89707947 -0.00964355 C9.34944358 -0.01506613 10.80180218 -0.02218955 12.25415039 -0.03088379 C16.19215129 -0.0491027 20.12973254 -0.04205619 24.06774068 -0.02936745 C28.18985572 -0.0192342 32.31193505 -0.02863384 36.43405151 -0.03491211 C43.35506131 -0.04218677 50.2759003 -0.03260479 57.19688416 -0.0135498 C65.1989885 0.00822728 73.20068532 0.00116094 81.20277983 -0.02085543 C88.07425935 -0.03900442 94.94561617 -0.0415705 101.81711191 -0.03110075 C105.92077627 -0.02486413 110.02424902 -0.02403488 114.12790108 -0.0372467 C117.98499965 -0.04879772 121.84157238 -0.04079382 125.69861412 -0.01766968 C127.11436718 -0.01237886 128.53016447 -0.01390282 129.94589996 -0.02272034 C131.87757288 -0.03364249 133.80934246 -0.01752005 135.7409668 0 C137.36279924 0.00226215 137.36279924 0.00226215 139.01739597 0.00457001 C142.47687982 0.62881159 143.65378993 1.78664655 145.80699158 4.50793457 C146.37339783 6.50793457 146.37339783 6.50793457 146.36949158 8.50793457 C146.39140564 9.16793457 146.4133197 9.82793457 146.43589783 10.50793457 C145.44918866 13.64579229 143.49258948 14.70760108 140.80699158 16.50793457 C137.90996552 17.01409245 137.90996552 17.01409245 134.65867615 17.02259827 C133.42214798 17.03532272 132.18561981 17.04804718 130.91162109 17.06115723 C129.54926871 17.05497539 128.18691819 17.04836941 126.8245697 17.04138184 C125.38367836 17.04844242 123.94279443 17.05718803 122.50192261 17.06748962 C118.59486106 17.08997674 114.68820472 17.08704586 110.78110313 17.07816815 C107.51805961 17.07305581 104.25509207 17.08035271 100.99205637 17.08764023 C93.29439551 17.10463665 85.5969329 17.10107556 77.89927673 17.08435059 C69.95961232 17.06742284 62.02049745 17.083273 54.08089304 17.11557347 C47.26119625 17.14226607 40.44167057 17.1495465 33.62192678 17.14105839 C29.5500325 17.13612895 25.47846899 17.13834557 21.40661621 17.1588459 C17.57815806 17.1771986 13.75049088 17.17125049 9.92207527 17.1466465 C8.51802528 17.14163746 7.11391506 17.14513101 5.70991325 17.15779495 C-6.2229206 17.25690504 -6.2229206 17.25690504 -9.52784729 14.19114685 C-11.73727896 10.63090629 -11.94079231 8.62074596 -11.19300842 4.50793457 C-7.56915261 0.83171071 -5.09936709 0.00711019 0 0 Z " fill="#030303" transform="translate(308.19300842285156,133.4920654296875)"/>
<path d="M0 0 C2.97 0.33 5.94 0.66 9 1 C16.26 1.33 23.52 1.66 31 2 C31 22.13 31 42.26 31 63 C20.77 63 10.54 63 0 63 C0 42.21 0 21.42 0 0 Z " fill="#F3613F" transform="translate(285,406)"/>
<path d="M0 0 C0.84082123 -0.0065712 1.68164246 -0.0131424 2.54794312 -0.01991272 C5.33754561 -0.03966437 8.12709424 -0.05131231 10.91674805 -0.0612793 C11.86850607 -0.06535482 12.82026409 -0.06943035 13.80086327 -0.07362938 C18.83810587 -0.09449785 23.87532116 -0.10879633 28.91259766 -0.11816406 C34.11817781 -0.12923156 39.32333086 -0.16363318 44.52875996 -0.20333576 C48.52905579 -0.22946842 52.52924934 -0.23785291 56.52962303 -0.24144554 C58.44857862 -0.24631999 60.36752939 -0.25795834 62.28640175 -0.27648354 C64.97252973 -0.30080438 67.65754586 -0.29992302 70.34375 -0.29296875 C71.53234367 -0.31218384 71.53234367 -0.31218384 72.74494934 -0.33178711 C76.5048934 -0.29631448 78.6539083 0.04199014 81.85710144 2.08137512 C84.01075113 4.32803942 84.55066915 5.12024153 84.4909668 8.17700195 C84.51030273 9.16700195 84.51030273 9.16700195 84.5300293 10.17700195 C83.46778584 13.3762293 81.68098622 14.38267958 78.8659668 16.17700195 C75.88563869 16.56945107 73.27660214 16.73482437 70.29956055 16.71044922 C69.44854767 16.71906479 68.59753479 16.72768036 67.72073364 16.73655701 C64.91466647 16.75921385 62.10959812 16.75247921 59.3034668 16.7434082 C57.34960636 16.74864364 55.39574845 16.75491983 53.44189453 16.76219177 C49.34973241 16.77259524 45.25791804 16.76803481 41.16577148 16.75341797 C35.92307134 16.73622378 30.68146649 16.75973359 25.43888855 16.79490757 C21.40507757 16.8168721 17.3715291 16.81544248 13.337677 16.80714226 C11.4047831 16.80632235 9.47187001 16.81319336 7.53903198 16.82791328 C4.83612794 16.84534341 2.13519782 16.83083078 -0.56762695 16.80810547 C-1.36466034 16.81979767 -2.16169373 16.83148987 -2.98287964 16.84353638 C-7.02341942 16.77445205 -8.91374217 16.34940514 -12.13427734 13.82896423 C-14.1340332 11.17700195 -14.1340332 11.17700195 -14.6965332 8.11450195 C-14.01581805 4.55965615 -12.93330861 3.39995595 -10.1340332 1.17700195 C-6.94855335 -0.41573797 -3.49953789 0.01178496 0 0 Z " fill="#020202" transform="translate(370.134033203125,172.822998046875)"/>
<path d="M0 0 C1.30775139 -0.01029488 1.30775139 -0.01029488 2.641922 -0.02079773 C5.52845472 -0.03912291 8.41444688 -0.03522004 11.30102539 -0.02954102 C13.30497923 -0.03410018 15.30893149 -0.03940495 17.31288147 -0.04542542 C21.51529283 -0.05436784 25.71751428 -0.05192064 29.91992188 -0.04199219 C35.30834977 -0.030503 40.6961223 -0.05070761 46.08446407 -0.07990932 C50.22372104 -0.09824603 54.36282024 -0.09798388 58.50210762 -0.0922718 C60.48885581 -0.09211827 62.47561448 -0.09818909 64.46232414 -0.11056328 C67.23962507 -0.12542314 70.01570628 -0.11483315 72.79296875 -0.09765625 C73.61544098 -0.10732422 74.43791321 -0.11699219 75.28530884 -0.12695312 C78.90333471 -0.08004065 81.01567465 0.06693784 83.9443512 2.2830658 C85.7494117 4.80708538 86.38530211 6.29299179 86.46118164 9.40405273 C84.26715179 14.00106766 84.26715179 14.00106766 81.46118164 15.40405273 C78.64510923 15.52343381 75.85302008 15.58243167 73.03588867 15.59692383 C72.16420044 15.60510132 71.29251221 15.61327881 70.39440918 15.6217041 C67.50261121 15.64656797 64.6108623 15.66307511 61.71899414 15.67749023 C60.23983835 15.68547575 60.23983835 15.68547575 58.73080063 15.69362259 C53.51316861 15.72035628 48.29556055 15.73973199 43.07788086 15.75415039 C37.68154459 15.77081453 32.28581712 15.81560651 26.88971138 15.86652184 C22.74619827 15.9001291 18.60283096 15.91172056 14.45919418 15.91737747 C12.46961683 15.92410616 10.4800496 15.93936998 8.4906044 15.96326828 C5.70831456 15.9947882 2.92768419 15.99497681 0.14526367 15.98754883 C-0.6787796 16.00395416 -1.50282288 16.0203595 -2.35183716 16.03726196 C-6.27728766 15.99428979 -8.13068452 15.77424361 -11.08547974 13.09414673 C-13.06794761 9.42464753 -12.63928554 7.36573457 -11.53881836 3.40405273 C-8.4126926 -0.5779237 -4.7175288 -0.02575712 0 0 Z " fill="#000000" transform="translate(368.538818359375,94.595947265625)"/>
<path d="M0 0 C3.5 0.8125 3.5 0.8125 5.4375 1.875 C7.20690164 5.10155592 7.21661809 8.29165566 6.5 11.8125 C4.69392938 14.70785353 2.38600355 16.95267465 -0.0625 19.3125 C-1.36659988 20.63471237 -2.66999494 21.9576203 -3.97265625 23.28125 C-4.90489014 24.209375 -4.90489014 24.209375 -5.85595703 25.15625 C-7.65923249 26.97291479 -9.34888267 28.85689091 -11 30.8125 C-12.16519289 32.14712145 -13.33218547 33.48017192 -14.5 34.8125 C-15.0053125 35.39628418 -15.510625 35.98006836 -16.03125 36.58154297 C-17.83685278 38.65365353 -19.66659392 40.7024735 -21.5 42.75 C-22.08201172 43.42611328 -22.66402344 44.10222656 -23.26367188 44.79882812 C-26.21835457 48.05928226 -27.90260025 49.63453776 -32.2109375 50.91796875 C-35.75312867 50.80438305 -36.6795639 50.6329361 -39.125 48.1875 C-39.77855469 47.54554688 -40.43210937 46.90359375 -41.10546875 46.2421875 C-42.29076172 45.03949219 -42.29076172 45.03949219 -43.5 43.8125 C-44.6180503 42.7701634 -45.73939364 41.73135242 -46.86328125 40.6953125 C-48.05603364 39.56913234 -49.24743488 38.44151949 -50.4375 37.3125 C-51.30785889 36.51271729 -51.30785889 36.51271729 -52.19580078 35.69677734 C-55.1614737 32.80509211 -56.39587298 31.19712423 -57.5078125 27.08984375 C-57.5 23.8125 -57.5 23.8125 -55.4375 20.875 C-52.5 18.8125 -52.5 18.8125 -49.6875 18.0625 C-44.8123391 19.20959668 -41.98664978 22.34810543 -38.5 25.8125 C-37.2625 27.0190625 -37.2625 27.0190625 -36 28.25 C-35.505 28.765625 -35.01 29.28125 -34.5 29.8125 C-31.41625125 28.4499818 -29.42531716 26.94024154 -27.14453125 24.46875 C-26.52610352 23.80375488 -25.90767578 23.13875977 -25.27050781 22.45361328 C-24.30129395 21.39376221 -24.30129395 21.39376221 -23.3125 20.3125 C-22.64702148 19.59433105 -21.98154297 18.87616211 -21.29589844 18.13623047 C-16.87887505 13.35773626 -12.51831612 8.53111727 -8.234375 3.6328125 C-5.41798077 0.6768672 -4.15174345 -0.22241483 0 0 Z " fill="#020202" transform="translate(335.5,271.1875)"/>
<path d="M0 0 C0.76171509 -0.00145523 1.52343018 -0.00291046 2.30822754 -0.00440979 C3.9153222 -0.00275314 5.5224331 0.00878215 7.12939453 0.02954102 C9.58564826 0.05849824 12.03974269 0.05014629 14.49609375 0.03710938 C16.0599063 0.04334724 17.62371204 0.05173857 19.1875 0.0625 C19.91988892 0.05956436 20.65227783 0.05662872 21.40686035 0.05360413 C24.50747292 0.1108084 26.78569195 0.3358657 29.55664062 1.77709961 C31.67378207 4.14476049 31.57741112 6.37360887 31.625 9.4609375 C30.83290929 12.49534382 29.57095081 13.5774919 27.09375 15.49609375 C24.32233117 15.89415662 21.95570576 16.05794764 19.1875 16.02734375 C18.42578491 16.03117065 17.66406982 16.03499756 16.87927246 16.03894043 C15.27220332 16.04165688 13.66508976 16.03431419 12.05810547 16.01757812 C9.60153413 15.99616161 7.14788689 16.01738553 4.69140625 16.04296875 C3.12759773 16.04032542 1.56379102 16.03520033 0 16.02734375 C-0.73238892 16.03544067 -1.46477783 16.0435376 -2.21936035 16.05187988 C-5.64293749 15.98909324 -7.58068952 15.73593965 -10.36914062 13.68164062 C-12.62237604 10.47786626 -12.45182424 8.31511346 -11.90625 4.49609375 C-8.69889779 -0.06888134 -5.19928733 -0.07975091 0 0 Z " fill="#000101" transform="translate(422.90625,212.50390625)"/>
<path d="M0 0 C0 10.56 0 21.12 0 32 C-10.56 32 -21.12 32 -32 32 C-28.08794426 27.43593497 -24.22148312 23.07192764 -19.98046875 18.84765625 C-19.43642899 18.30265976 -18.89238922 17.75766327 -18.3318634 17.19615173 C-17.19618322 16.05979763 -16.05926575 14.92467879 -14.92114258 13.79077148 C-13.17085124 12.04590282 -11.42604674 10.29567217 -9.68164062 8.54492188 C-8.57323772 7.43717867 -7.46452524 6.3297451 -6.35546875 5.22265625 C-5.83260788 4.69777115 -5.30974701 4.17288605 -4.77104187 3.63209534 C-1.114991 0 -1.114991 0 0 0 Z " fill="#C2D0CF" transform="translate(307,56)"/>
<path d="M0 0 C4.15151338 1.44202476 7.29978445 3.5010438 10.8125 6.125 C11.78832031 6.84945313 12.76414062 7.57390625 13.76953125 8.3203125 C14.50558594 8.87460937 15.24164063 9.42890625 16 10 C14.51346494 13.46629835 12.54277649 15.69022036 9.8671875 18.328125 C9.06152344 19.12734375 8.25585938 19.9265625 7.42578125 20.75 C6.58402344 21.575 5.74226563 22.4 4.875 23.25 C4.02550781 24.09046875 3.17601562 24.9309375 2.30078125 25.796875 C0.20495077 27.86915683 -1.89540713 29.93662393 -4 32 C-8.02085376 30.65971541 -8.8642945 28.68711922 -11.1875 25.1875 C-11.90292969 24.12917969 -12.61835938 23.07085937 -13.35546875 21.98046875 C-15 19 -15 19 -15 15 C-13.49609375 13.359375 -13.49609375 13.359375 -11.4375 11.75 C-7.12529834 8.20646173 -3.56104424 4.28438136 0 0 Z " fill="#A5D0D5" transform="translate(395,365)"/>
<path d="M0 0 C0.75990234 -0.02900391 1.51980469 -0.05800781 2.30273438 -0.08789062 C6.21265021 -0.13205127 8.24726396 0.0531672 11.69140625 2.08203125 C13.77823415 4.41388786 14.37244542 5.24329472 14.3125 8.3125 C14.32539063 8.9725 14.33828125 9.6325 14.3515625 10.3125 C13.2667444 13.57971686 11.62478661 14.57821062 8.6875 16.3125 C5.67114037 16.90321289 2.75345283 16.91730617 -0.3125 16.875 C-1.1065625 16.89884766 -1.900625 16.92269531 -2.71875 16.94726562 C-7.04513766 16.93644966 -8.8136925 16.69867355 -12.33984375 13.96875 C-14.3125 11.3125 -14.3125 11.3125 -14.875 8.25 C-14.19428485 4.69515419 -13.11177541 3.535454 -10.3125 1.3125 C-7.07124994 -0.30812503 -3.55800138 0.04458648 0 0 Z " fill="#030303" transform="translate(440.3125,290.6875)"/>
<path d="M0 0 C1.27520508 -0.01643555 1.27520508 -0.01643555 2.57617188 -0.03320312 C6.4771583 0.01269083 8.74075582 0.07563136 11.9921875 2.34765625 C13.50090592 4.65966528 14.00533732 5.82979011 14 8.5625 C14.02191406 9.2225 14.04382813 9.8825 14.06640625 10.5625 C13.03802896 13.83286754 11.34728734 14.83256124 8.4375 16.5625 C5.58508039 17.12436765 2.83666085 17.12258624 -0.0625 17.0625 C-0.80886719 17.07796875 -1.55523437 17.0934375 -2.32421875 17.109375 C-6.17918622 17.08208319 -8.16561046 16.80597445 -11.5234375 14.74609375 C-13.5625 12.5625 -13.5625 12.5625 -14.6875 9.125 C-14.5625 5.5625 -14.5625 5.5625 -12.65234375 2.875 C-8.39087011 -0.31437091 -5.18193079 -0.14602547 0 0 Z " fill="#050505" transform="translate(440.5625,251.4375)"/>
</svg>
