<?xml version="1.0" encoding="UTF-8"?>
<svg version="1.1" xmlns="http://www.w3.org/2000/svg" width="512" height="512">
<path d="M0 0 C1.02744317 -0.00913666 1.02744317 -0.00913666 2.07564276 -0.01845789 C4.35241474 -0.03499983 6.62862202 -0.03032494 8.90544128 -0.0255127 C10.54540585 -0.03285825 12.18536525 -0.04144589 13.82531738 -0.05117798 C18.26762737 -0.07335346 22.70975165 -0.07632659 27.15210938 -0.07443047 C30.86710042 -0.07431056 34.5820524 -0.08288294 38.29703254 -0.09120798 C47.06594281 -0.11042841 55.8347579 -0.1133311 64.60368347 -0.10656738 C73.63388233 -0.09992995 82.66367238 -0.12278203 91.69378835 -0.15988111 C99.46049972 -0.19062564 107.22707992 -0.20193292 114.99385089 -0.1980443 C119.62646632 -0.19598143 124.25876366 -0.20138422 128.89132118 -0.22593689 C133.25080506 -0.24827977 137.60962679 -0.24626404 141.9691143 -0.22600937 C143.56296941 -0.22261241 145.15686974 -0.22763144 146.75066376 -0.24199295 C156.64522786 -0.32495253 165.03600644 0.24025915 172.74183369 7.07437897 C177.70569433 12.12439032 179.84757996 18.40286456 179.84757996 25.39440918 C181.14695496 25.47690918 182.44632996 25.55940918 183.78507996 25.64440918 C193.7912426 26.80499858 201.32564176 31.81969158 207.60929871 39.56628418 C212.21165807 46.029646 213.84757996 51.38129135 213.84757996 59.39440918 C219.12757996 59.39440918 224.40757996 59.39440918 229.84757996 59.39440918 C230.50757996 57.41440918 231.16757996 55.43440918 231.84757996 53.39440918 C235.52147958 50.94514276 238.57966832 50.56407618 242.84757996 51.39440918 C245.84757996 53.70690918 245.84757996 53.70690918 247.84757996 56.39440918 C247.84757996 57.38440918 247.84757996 58.37440918 247.84757996 59.39440918 C248.77570496 59.62128418 249.70382996 59.84815918 250.66007996 60.08190918 C253.84757996 61.39440918 253.84757996 61.39440918 255.78507996 63.58190918 C257.19970354 67.32650103 256.8951854 69.55318921 255.84757996 73.39440918 C254.03507996 75.83190918 254.03507996 75.83190918 251.84757996 77.39440918 C250.52757996 77.39440918 249.20757996 77.39440918 247.84757996 77.39440918 C247.78570496 78.13690918 247.72382996 78.87940918 247.66007996 79.64440918 C246.54782349 83.40896951 245.2702537 84.5010152 241.84757996 86.39440918 C238.96512634 86.68608603 236.56904202 86.38868029 233.84757996 85.39440918 C231.34757996 83.01940918 231.34757996 83.01940918 229.84757996 80.39440918 C229.84757996 79.40440918 229.84757996 78.41440918 229.84757996 77.39440918 C224.56757996 77.39440918 219.28757996 77.39440918 213.84757996 77.39440918 C213.80632996 78.79690918 213.76507996 80.19940918 213.72257996 81.64440918 C212.85550943 90.01817251 209.18670626 97.67054925 202.97257996 103.39440918 C197.38994496 107.78765361 190.90749635 111.57571928 183.66007996 111.45690918 C182.40195496 111.43628418 181.14382996 111.41565918 179.84757996 111.39440918 C179.86852722 112.00848633 179.88947449 112.62256348 179.91105652 113.25524902 C179.99526029 116.09312935 180.04656418 118.9307457 180.09757996 121.76940918 C180.13109558 122.73491699 180.16461121 123.7004248 180.19914246 124.69519043 C180.31548619 133.36279848 178.54142587 140.69646224 172.66007996 147.26940918 C163.79417736 155.15021148 154.16831117 155.13446128 142.84757996 155.39440918 C143.58814636 156.49849121 143.58814636 156.49849121 144.34367371 157.62487793 C144.98433777 158.60069824 145.62500183 159.57651855 146.28507996 160.58190918 C146.92316589 161.54483887 147.56125183 162.50776855 148.21867371 163.49987793 C149.78175506 166.27743977 150.31601208 168.2985396 150.84757996 171.39440918 C151.43711677 171.2707196 152.02665358 171.14703003 152.63405514 171.01959229 C167.00549941 168.00499556 181.37900737 165.00038957 195.75483608 162.0067749 C202.70694453 160.55882265 209.65832744 159.10754661 216.608078 157.64831543 C223.31721889 156.23961469 230.02827292 154.84035096 236.74057198 153.44677734 C239.29880299 152.91405247 241.85638253 152.37818905 244.41328239 151.83911133 C247.99964254 151.08355398 251.58817431 150.33927388 255.17741394 149.59753418 C256.22974213 149.37311646 257.28207031 149.14869873 258.36628723 148.91748047 C269.79558334 146.58239725 278.56004677 146.85994408 288.66007996 153.14440918 C294.75585445 159.41434865 297.7018802 167.36283534 300.84757996 175.39440918 C302.08121277 175.30739746 302.08121277 175.30739746 303.33976746 175.21862793 C312.484437 174.84903967 319.08728982 176.00574021 325.94914246 182.33190918 C332.19714327 189.11986068 333.14432744 194.52427056 333.12173462 203.5332489 C333.1269713 204.56360411 333.13220798 205.59395933 333.13760334 206.65553743 C333.15262216 210.11304877 333.15330892 213.57041236 333.15397644 217.0279541 C333.16159672 219.50504812 333.17002399 221.98213977 333.17919922 224.45922852 C333.20116574 231.19287101 333.20996804 237.92645399 333.21502566 244.66012359 C333.21828513 248.86723979 333.22480916 253.07434686 333.23202705 257.2814579 C333.2515915 268.93705418 333.26799633 280.59264198 333.27090359 292.24825573 C333.27109116 292.99387015 333.27127873 293.73948457 333.27147198 294.50769337 C333.27183822 296.01914553 333.27220192 297.53059769 333.27256309 299.04204985 C333.2727459 299.79230548 333.27292871 300.54256111 333.27311707 301.31555176 C333.27338789 302.44231415 333.27338789 302.44231415 333.27366418 303.59183941 C333.27720431 315.75808146 333.30421717 327.92414635 333.34161495 340.09032699 C333.37973158 352.59074022 333.39906131 365.09106563 333.3993631 377.59153825 C333.39994696 384.60623625 333.40839228 391.62072295 333.43736076 398.63536644 C333.46449228 405.23541722 333.46575094 411.8351232 333.44970512 418.43523407 C333.44788989 420.8547208 333.45458792 423.27423152 333.47052383 425.69366646 C333.49098927 429.0031547 333.48042809 432.31118085 333.46231079 435.62065125 C333.47551076 436.57252215 333.48871073 437.52439306 333.50231069 438.50510854 C333.39942273 446.76405373 330.65749793 453.79346668 324.84757996 459.76940918 C315.08636415 467.17751337 298.95655041 468.65571409 287.2730751 471.45463181 C283.75099651 472.29849041 280.23025637 473.14775929 276.70973206 473.99807739 C265.07588794 476.80508169 253.43687346 479.58998094 241.79399109 482.35920715 C235.81880687 483.78042906 229.84443857 485.20506421 223.8705349 486.63165855 C222.54616713 486.94787392 221.22176134 487.26393007 219.89731789 487.57982826 C204.10647205 491.34684984 188.36526613 495.22838729 172.72280312 499.57519341 C90.08380433 522.53537825 20.26287842 510.90380727 -61.56256104 489.09277344 C-77.03328199 484.96976816 -92.53104645 481.04148461 -108.11726379 477.37878418 C-109.06350176 477.15592554 -110.00973972 476.9330669 -110.98465157 476.70345497 C-116.36125697 475.43798208 -121.73946929 474.17946935 -127.11834335 472.92367935 C-133.48362042 471.43722824 -139.8473161 469.94502502 -146.20413399 468.42275238 C-148.22260033 467.94224242 -150.24341432 467.4728111 -152.2645874 467.00384521 C-168.61035219 463.08209777 -168.61035219 463.08209777 -173.46492004 457.08190918 C-173.91480286 456.54952637 -174.36468567 456.01714355 -174.82820129 455.46862793 C-178.36786582 449.92419765 -179.52787946 445.4343531 -179.54682922 438.8666687 C-179.55596588 437.77880583 -179.55596588 437.77880583 -179.56528711 436.66896594 C-179.5818414 434.25615826 -179.57715242 431.84388269 -179.57234192 429.43103027 C-179.57968641 427.69428462 -179.58827375 425.95754384 -179.5980072 424.22080994 C-179.6201854 419.51644991 -179.62315595 414.81226522 -179.62125969 410.10786009 C-179.62113988 406.17866039 -179.62970768 402.24949771 -179.6380372 398.32030833 C-179.65725581 389.05299122 -179.66015979 379.78576419 -179.65339661 370.51843262 C-179.64674787 360.95759702 -179.66965714 351.39714644 -179.70671034 341.83638895 C-179.73738342 333.62390078 -179.74877024 325.41153668 -179.74487352 317.19899237 C-179.74280455 312.29547048 -179.74830907 307.39224862 -179.77276611 302.48878098 C-179.79499286 297.8806286 -179.79318963 293.2731044 -179.77283859 288.66494942 C-179.76942195 286.97385357 -179.77454579 285.28271574 -179.78882217 283.59167671 C-179.80696802 281.28310942 -179.79430399 278.97668428 -179.77388 276.66818237 C-179.77459251 275.3766242 -179.77530502 274.08506603 -179.77603912 272.75436974 C-178.98894571 268.51363544 -177.527246 267.00057068 -174.15242004 264.39440918 C-173.16242004 264.39440918 -172.17242004 264.39440918 -171.15242004 264.39440918 C-171.15242004 256.14440918 -171.15242004 247.89440918 -171.15242004 239.39440918 C-172.80242004 239.06440918 -174.45242004 238.73440918 -176.15242004 238.39440918 C-178.23732821 236.86835302 -179.02201563 236.03398977 -179.5401001 233.49299622 C-179.54550308 232.7776622 -179.55090607 232.06232819 -179.55647278 231.32531738 C-179.56915695 230.51049393 -179.58184113 229.69567047 -179.59490967 228.8561554 C-179.59197403 227.97803696 -179.58903839 227.09991852 -179.58601379 226.19519043 C-179.59125565 225.28617477 -179.5964975 224.37715912 -179.60189819 223.44059753 C-179.60832412 221.51481141 -179.60697403 219.58898606 -179.59846497 217.66320801 C-179.59000122 214.7349923 -179.61863256 211.8087579 -179.65046692 208.8807373 C-179.65208034 207.00638893 -179.6514987 205.13203712 -179.64851379 203.25769043 C-179.65974777 202.38969315 -179.67098175 201.52169586 -179.68255615 200.62739563 C-179.60428901 193.69766569 -177.79792547 188.47628664 -173.25788879 183.18737793 C-164.73289868 176.05138825 -158.14444158 174.94811658 -147.15242004 175.39440918 C-146.70511536 174.30901855 -146.25781067 173.22362793 -145.79695129 172.10534668 C-145.18681959 170.65980387 -144.5761117 169.21450415 -143.96492004 167.76940918 C-143.67294739 167.05655762 -143.38097473 166.34370605 -143.08015442 165.60925293 C-140.30807354 159.11125688 -137.06083348 153.94678416 -130.58992004 150.58190918 C-129.84613098 150.18358887 -129.10234192 149.78526855 -128.33601379 149.37487793 C-119.64201798 145.47113384 -110.42401289 147.69062985 -101.48225403 149.59753418 C-100.3495256 149.83161987 -99.21679718 150.06570557 -98.04974365 150.30688477 C-94.33085076 151.07760125 -90.61473252 151.8609093 -86.89851379 152.64440918 C-84.31079064 153.18327548 -81.7229025 153.7213501 -79.13485718 154.25866699 C-73.03501488 155.52647109 -66.93711237 156.80335996 -60.83986765 158.08359146 C-53.89326432 159.54169439 -46.94453865 160.98955382 -39.99562347 162.4365921 C-25.71218154 165.41120567 -11.43142271 168.39855931 2.84757996 171.39440918 C2.98422058 170.62387207 3.12086121 169.85333496 3.26164246 169.05944824 C3.94445786 165.95377616 5.17064443 163.83718064 6.84757996 161.14440918 C7.38382996 160.27300293 7.92007996 159.40159668 8.47257996 158.50378418 C9.84757996 156.39440918 9.84757996 156.39440918 10.84757996 155.39440918 C9.73640808 155.38022949 8.62523621 155.3660498 7.48039246 155.35144043 C-3.60168721 155.06098772 -12.092059 153.99373819 -20.08992004 145.58190918 C-26.25799671 138.47422379 -26.56900733 130.84643559 -26.33992004 121.89440918 C-26.32638489 120.88120605 -26.31284973 119.86800293 -26.29890442 118.82409668 C-26.26385067 116.34696514 -26.21471768 113.8709799 -26.15242004 111.39440918 C-27.37960754 111.4279248 -28.60679504 111.46144043 -29.87117004 111.49597168 C-38.03379197 111.48519357 -45.33399101 106.91823422 -51.15242004 101.39440918 C-57.23517058 94.10061329 -60.15242004 86.8608363 -60.15242004 77.39440918 C-65.43242004 77.39440918 -70.71242004 77.39440918 -76.15242004 77.39440918 C-76.48242004 79.04440918 -76.81242004 80.69440918 -77.15242004 82.39440918 C-78.96587838 85.38128174 -80.50721235 85.48746946 -83.96492004 86.39440918 C-87.29157435 86.70801245 -89.00417009 86.25128266 -91.65242004 84.20690918 C-94.15242004 81.39440918 -94.15242004 81.39440918 -94.15242004 77.39440918 C-94.91554504 77.29128418 -95.67867004 77.18815918 -96.46492004 77.08190918 C-99.46558195 76.314298 -100.44582728 75.95429832 -102.15242004 73.39440918 C-103.37811775 69.06361061 -103.49846104 67.1131097 -101.52742004 63.01940918 C-98.97387796 60.19707319 -97.88007929 59.60150136 -94.15242004 59.39440918 C-94.06992004 58.63128418 -93.98742004 57.86815918 -93.90242004 57.08190918 C-93.15242004 54.39440918 -93.15242004 54.39440918 -91.58992004 52.58190918 C-88.08909903 50.87638099 -84.97412018 50.68029273 -81.15242004 51.39440918 C-77.65851294 53.90285531 -77.21809431 55.1317121 -76.15242004 59.39440918 C-70.87242004 59.39440918 -65.59242004 59.39440918 -60.15242004 59.39440918 C-60.09054504 57.95065918 -60.02867004 56.50690918 -59.96492004 55.01940918 C-59.02001532 45.97896942 -54.8435812 39.21831131 -48.26179504 33.08190918 C-42.06314624 28.12299014 -34.16723244 24.90866297 -26.15242004 25.39440918 C-26.06992004 24.23940918 -25.98742004 23.08440918 -25.90242004 21.89440918 C-24.94028136 14.53534845 -21.85318403 9.47326301 -16.22663879 4.71862793 C-10.83111462 1.27402775 -6.38707096 0.01952977 0 0 Z " fill="#373738" transform="translate(179.1524200439453,-0.3944091796875)"/>
<path d="M0 0 C2.23825277 0.54568973 4.47653485 1.0912593 6.71484375 1.63671875 C7.8529248 1.91563965 8.99100586 2.19456055 10.16357422 2.48193359 C15.45910773 3.7759578 20.76090435 5.043588 26.0625 6.3125 C28.14586735 6.81235822 30.22920061 7.31235861 32.3125 7.8125 C33.34375 8.06 34.375 8.3075 35.4375 8.5625 C77.625 18.6875 77.625 18.6875 119.8125 28.8125 C121.36155029 29.1842334 121.36155029 29.1842334 122.94189453 29.56347656 C125.01062678 30.06002409 127.07931224 30.55676665 129.14794922 31.05371094 C134.57929761 32.35819449 140.01158623 33.65857912 145.4453125 34.953125 C146.57388672 35.22253906 147.70246094 35.49195313 148.86523438 35.76953125 C151.01988257 36.28380942 153.17481406 36.79690272 155.33007812 37.30859375 C156.30654297 37.54191406 157.28300781 37.77523437 158.2890625 38.015625 C159.56644287 38.31968262 159.56644287 38.31968262 160.86962891 38.62988281 C164.11926289 39.45363409 167.33907257 40.39152073 170.5625 41.3125 C170.5625 125.4625 170.5625 209.6125 170.5625 296.3125 C164.6099802 295.65110891 159.25983303 294.91154038 153.546875 293.421875 C152.81810654 293.23719666 152.08933807 293.05251831 151.33848572 292.86224365 C149.79273793 292.46990947 148.24765632 292.07494227 146.70321655 291.67749023 C143.44936163 290.84046545 140.19202722 290.01738357 136.93486023 289.19335938 C135.32199075 288.7851687 133.70928743 288.37632088 132.09675598 287.96679688 C126.49028483 286.54312761 120.87853784 285.14667193 115.25 283.8125 C114.47825439 283.62945312 113.70650879 283.44640625 112.91137695 283.2578125 C107.2433162 281.92375878 101.56710504 280.62574776 95.890625 279.328125 C92.59358433 278.57363855 89.29673378 277.81832627 86 277.0625 C84.74272598 276.77442474 84.74272598 276.77442474 83.46005249 276.48052979 C70.54022992 273.51528407 57.67173956 270.37950236 44.82342529 267.11935425 C34.9434504 264.61451661 25.04544745 262.25504931 15.09216309 260.05957031 C5.45745761 257.93114639 -4.15933881 255.75601895 -13.6875 253.1875 C-14.54529053 252.97005127 -15.40308105 252.75260254 -16.28686523 252.52856445 C-17.06360596 252.31031006 -17.84034668 252.09205566 -18.640625 251.8671875 C-19.30739258 251.68655762 -19.97416016 251.50592773 -20.66113281 251.31982422 C-23.32034328 249.81186622 -24.09756206 248.04384733 -25.4375 245.3125 C-25.81108761 242.03786373 -25.81108761 242.03786373 -25.80931091 238.24632263 C-25.81313548 237.54658532 -25.81696004 236.846848 -25.8209005 236.12590653 C-25.83016671 233.78742778 -25.81820649 231.44954403 -25.80639648 229.11108398 C-25.80886499 227.43212641 -25.81270392 225.75317037 -25.81781006 224.07421875 C-25.82614339 220.46196292 -25.82534456 216.84986475 -25.81762505 213.23760796 C-25.80604331 207.52739539 -25.81820287 201.81738577 -25.83424377 196.10719299 C-25.87043702 181.92641416 -25.87666522 167.74564015 -25.87414551 153.56481934 C-25.87243566 142.53985474 -25.87951052 131.51505575 -25.91412407 120.49013764 C-25.93094402 114.81187387 -25.9291016 109.13401362 -25.91330135 103.4557513 C-25.9075151 99.92646209 -25.91822484 96.39736536 -25.93354797 92.86811066 C-25.93728225 91.22981675 -25.93414297 89.59149082 -25.92367744 87.95322609 C-25.91035334 85.71889309 -25.92147404 83.48596935 -25.93870544 81.25169373 C-25.93849616 80.00086219 -25.93828688 78.75003065 -25.93807125 77.46129513 C-26.53647774 73.68846578 -27.43654701 72.59997747 -30.4375 70.3125 C-31.7575 69.6525 -33.0775 68.9925 -34.4375 68.3125 C-34.4375 60.0625 -34.4375 51.8125 -34.4375 43.3125 C-32.4575 42.3225 -30.4775 41.3325 -28.4375 40.3125 C-25.97756367 36.6225955 -26.15826991 33.80598032 -26.1640625 29.5390625 C-26.14377127 27.97655537 -26.12292045 26.41405542 -26.1015625 24.8515625 C-26.07897836 22.39381849 -26.06249728 19.93635858 -26.05664062 17.47851562 C-26.04709777 15.10234496 -26.01329991 12.7274469 -25.9765625 10.3515625 C-25.98160797 9.62119781 -25.98665344 8.89083313 -25.99185181 8.13833618 C-25.89807377 3.2549712 -24.91656385 0.73957691 -21.4375 -2.6875 C-15.7528754 -5.5298123 -5.85867562 -1.44998551 0 0 Z " fill="#467391" transform="translate(42.4375,195.6875)"/>
<path d="M0 0 C1.21429688 -0.05994141 1.21429688 -0.05994141 2.453125 -0.12109375 C6.00183599 0.74194311 6.85408735 2.34708742 8.75 5.4375 C9.33543925 8.7017882 9.28547312 11.92122338 9.25120544 15.23034668 C9.25950704 16.71991796 9.25950704 16.71991796 9.26797634 18.23958158 C9.2816015 21.57078208 9.26660301 24.90123578 9.25170898 28.23242188 C9.25549147 30.61910826 9.26099092 33.00579246 9.26808167 35.39247131 C9.28061025 41.20420632 9.27445892 47.01570149 9.25940608 52.82742608 C9.24254341 59.59560822 9.24575657 66.36373626 9.24950016 73.13193291 C9.25537854 85.20827914 9.2412081 97.28452109 9.21655273 109.36083984 C9.192632 121.07865304 9.18554849 132.79632693 9.19604492 144.51416016 C9.20745481 157.27459554 9.20938333 170.03496649 9.19494683 182.7954011 C9.19342099 184.15612697 9.19190063 185.51685285 9.19038582 186.87757874 C9.189628 187.54707903 9.18887019 188.21657933 9.18808941 188.90636751 C9.18334712 193.62394367 9.18519763 198.34149105 9.18945122 203.05906677 C9.19421741 209.4087471 9.18413389 215.75823418 9.16249657 222.10787773 C9.15692369 224.44075811 9.15646796 226.77365705 9.16144943 229.10653877 C9.1673883 232.28612601 9.15492344 235.46511963 9.13768005 238.64465332 C9.14669512 240.03594177 9.14669512 240.03594177 9.15589231 241.45533705 C9.10842007 246.25511162 8.91856172 249.56212926 5.75 253.4375 C3.81494141 254.4765625 3.81494141 254.4765625 1.6015625 255.0625 C0.77237305 255.29130859 -0.05681641 255.52011719 -0.91113281 255.75585938 C-2.25449707 256.09327148 -2.25449707 256.09327148 -3.625 256.4375 C-5.03023926 256.81358398 -5.03023926 256.81358398 -6.46386719 257.19726562 C-9.38667149 257.96976994 -12.31578409 258.70963249 -15.25 259.4375 C-16.12108398 259.6540625 -16.99216797 259.870625 -17.88964844 260.09375 C-23.06897344 261.36817061 -28.26103459 262.58342361 -33.45751953 263.78564453 C-38.45784103 264.95288167 -43.44648723 266.16870588 -48.4375 267.375 C-56.88344783 269.41074655 -65.34219974 271.38085994 -73.8125 273.3125 C-85.14853222 275.90324742 -96.4259468 278.70329038 -107.70166016 281.54199219 C-117.64774821 284.04510667 -127.61220174 286.45771927 -137.59521484 288.80908203 C-141.64574223 289.76788813 -145.69252838 290.7421398 -149.73950195 291.71582031 C-152.93001389 292.4831677 -156.12119818 293.24766401 -159.3125 294.01171875 C-163.02322726 294.90064779 -166.73150903 295.79857279 -170.4375 296.70703125 C-171.95831545 297.07559461 -173.47914751 297.4440895 -175 297.8125 C-176.00885254 298.06398804 -176.00885254 298.06398804 -177.03808594 298.32055664 C-180.64395954 299.18744305 -183.46513093 299.4375 -187.25 299.4375 C-187.25 215.2875 -187.25 131.1375 -187.25 44.4375 C-176.27272458 41.38825683 -165.47506368 38.47393108 -154.375 36.0625 C-144.27327011 33.83326431 -134.2155447 31.48195054 -124.1875 28.9375 C-114.73121409 26.53844226 -105.25702283 24.25188965 -95.75 22.0625 C-84.56889964 19.48573731 -73.43638815 16.74989377 -62.3125 13.9375 C-47.00131245 10.06700553 -31.63683154 6.51747735 -16.21582031 3.11206055 C-13.70316613 2.5405703 -11.21142819 1.92515806 -8.71875 1.2734375 C-5.72656377 0.55234758 -3.06679849 0.08408964 0 0 Z " fill="#467391" transform="translate(486.25,192.5625)"/>
<path d="M0 0 C7.59270881 7.26884919 9.86832294 16.06322754 10.19848633 26.19189453 C10.24014189 28.62836148 10.24860992 31.06318639 10.25 33.5 C10.26424825 35.4414068 10.27857375 37.38281303 10.29296875 39.32421875 C10.31745233 44.38345577 10.29490301 49.44092776 10.25 54.5 C15.53 53.51 20.81 52.52 26.25 51.5 C26.3325 49.458125 26.415 47.41625 26.5 45.3125 C26.7122985 40.05811223 27.39509287 37.20427133 31.25 33.5 C36.13418807 32.72473205 38.06360118 32.75850074 42.25 35.375 C45.05122464 39.7519135 44.69196249 43.44198488 44.25 48.5 C45.178125 48.7475 46.10625 48.995 47.0625 49.25 C50.50528099 50.60011019 51.71678117 51.16299432 53.25 54.5 C53.12655181 58.01827355 52.98585873 60.49655627 50.875 63.375 C49.25 64.5 49.25 64.5 46.25 65.5 C46.23598145 66.96469727 46.23598145 66.96469727 46.22167969 68.45898438 C46.18108824 72.16464993 46.11516011 75.86954378 46.04248047 79.57470703 C46.0146637 81.16282052 45.99325909 82.75106236 45.97900391 84.33935547 C45.84583798 98.35728824 44.31389902 112.12803795 37.6875 124.75 C37.35234375 125.40347412 37.0171875 126.05694824 36.671875 126.73022461 C32.9234712 133.65952794 27.89793473 139.07632151 22.25 144.5 C21.5590625 145.18707031 20.868125 145.87414062 20.15625 146.58203125 C9.12703733 156.95581939 -6.01005261 162.33814105 -20.75 164.5 C-20.75 171.1 -20.75 177.7 -20.75 184.5 C-14.57120748 183.19364987 -14.57120748 183.19364987 -8.39672852 181.8671875 C-2.93488404 180.7437227 2.67286539 179.6829584 8.25 180.5 C11.75811779 182.93420418 13.02376734 184.29342584 13.8125 188.5 C13.11362259 192.22734617 11.85191633 193.76776604 9.25 196.5 C6.87695312 197.46435547 6.87695312 197.46435547 4.03125 197.9921875 C2.87882812 198.22131836 1.72640625 198.45044922 0.5390625 198.68652344 C-0.12770508 198.81136108 -0.79447266 198.93619873 -1.48144531 199.06481934 C-5.07488726 199.75415535 -8.65028654 200.52716625 -12.22949219 201.28643799 C-17.56628123 202.415527 -22.90862808 203.51783598 -28.25 204.625 C-30.46096368 205.08450947 -32.67190139 205.54414392 -34.8828125 206.00390625 C-38.91586337 206.84204349 -42.94896552 207.6799294 -46.98242188 208.51611328 C-47.784823 208.68249298 -48.58722412 208.84887268 -49.41394043 209.02029419 C-50.18484009 209.17859711 -50.95573975 209.33690002 -51.75 209.5 C-53.0576532 209.76947952 -53.0576532 209.76947952 -54.39172363 210.04440308 C-58.53993183 210.84579808 -62.55849628 211.10467595 -66.75 210.5 C-70.31781839 208.07388349 -71.4963865 206.7173448 -72.375 202.5 C-71.53242281 198.45562948 -69.88429976 197.14444063 -66.75 194.5 C-63.61206055 193.3815918 -63.61206055 193.3815918 -60.13671875 192.69921875 C-58.88955078 192.44462891 -57.64238281 192.19003906 -56.35742188 191.92773438 C-55.06384766 191.68345703 -53.77027344 191.43917969 -52.4375 191.1875 C-51.11097811 190.92297317 -49.78480054 190.65671341 -48.45898438 190.38867188 C-45.22601686 189.74207837 -41.98840912 189.11876366 -38.75 188.5 C-38.75 181.9 -38.75 175.3 -38.75 168.5 C-40.420625 168.83 -42.09125 169.16 -43.8125 169.5 C-59.69815968 172.07908357 -73.71539766 170.74258941 -87.1875 161.4609375 C-97.9736287 153.20691828 -105.59068872 142.10366106 -107.75 128.5 C-109.09739349 117.54440773 -108.84884835 106.51609985 -108.75 95.5 C-109.53761719 95.35691406 -110.32523437 95.21382813 -111.13671875 95.06640625 C-113.75 94.5 -113.75 94.5 -115.5625 93.4375 C-117.49247853 90.28858766 -117.39592135 87.0277243 -116.75 83.5 C-115 81 -115 81 -112.75 79.5 C-111.43 79.5 -110.11 79.5 -108.75 79.5 C-108.79640625 78.46359375 -108.8428125 77.4271875 -108.890625 76.359375 C-108.92815275 74.98961221 -108.96455184 73.61981818 -109 72.25 C-109.05027344 71.22712891 -109.05027344 71.22712891 -109.1015625 70.18359375 C-109.16845011 66.73888205 -109.01274405 64.85792465 -106.94921875 62.046875 C-103.72403971 59.77836541 -101.60244954 59.95930533 -97.75 60.5 C-94.9375 61.875 -94.9375 61.875 -92.75 64.5 C-91.75743312 67.79821703 -91.18639427 71.08700601 -90.75 74.5 C-90.01394531 74.355625 -89.27789062 74.21125 -88.51953125 74.0625 C-87.05580078 73.7840625 -87.05580078 73.7840625 -85.5625 73.5 C-84.59957031 73.314375 -83.63664062 73.12875 -82.64453125 72.9375 C-79.95131375 72.53042799 -77.46612318 72.46797497 -74.75 72.5 C-74.78029297 71.82122803 -74.81058594 71.14245605 -74.84179688 70.44311523 C-76.97725338 21.92307956 -76.97725338 21.92307956 -65.51953125 8.98046875 C-49.97017603 -5.92614682 -18.41400021 -13.58937133 0 0 Z " fill="#373838" transform="translate(432.75,238.5)"/>
<path d="M0 0 C0.65002912 -0.00638882 1.30005824 -0.01277764 1.96978521 -0.01936007 C4.14052398 -0.03457954 6.30942835 -0.01417269 8.48010254 0.00622559 C10.03921614 0.00272342 11.59832617 -0.00293625 13.15742493 -0.0105896 C17.38690607 -0.02483371 21.61573677 -0.0077801 25.84515572 0.01569557 C30.27241901 0.03580773 34.69965538 0.02992483 39.12695312 0.02758789 C46.5616732 0.02764146 53.99613911 0.04739598 61.43078613 0.07946777 C70.02471429 0.11636045 78.61830949 0.12514329 87.2123065 0.11817026 C95.48141187 0.11186369 103.75040313 0.12262241 112.01948547 0.14213562 C115.53772101 0.15030762 119.05589822 0.15301953 122.57414246 0.15144348 C126.71763386 0.15056414 130.86080915 0.16479396 135.00421715 0.19067001 C136.52435969 0.19782843 138.04453587 0.19991699 139.56469154 0.19655228 C141.64088204 0.19283359 143.71615199 0.20759681 145.79223633 0.22705078 C146.95365395 0.2307795 148.11507156 0.23450821 149.31168365 0.23834991 C152.74469605 0.66475597 154.63736077 1.56775109 157.39611816 3.62145996 C158.57024376 5.96971115 158.5343373 7.38588711 158.55674744 10.00434875 C158.57181587 11.38596947 158.57181587 11.38596947 158.58718872 12.79550171 C158.59301971 13.80903717 158.59885071 14.82257263 158.6048584 15.86682129 C158.61464218 16.93197464 158.62442596 17.99712799 158.63450623 19.09455872 C158.6645007 22.63085673 158.6858555 26.16711688 158.70471191 29.70349121 C158.71128374 30.90899817 158.71785557 32.11450512 158.72462654 33.35654259 C158.75723603 39.73593345 158.78168447 46.11530747 158.80114746 52.49475098 C158.81897577 57.78243203 158.85381932 63.06958134 158.90368652 68.35705566 C158.96375653 74.73308861 158.99460527 81.10862758 159.00432014 87.48493004 C159.01289763 89.91747467 159.03177157 92.3500053 159.06106377 94.78238869 C159.09983548 98.18482064 159.10103082 101.58531588 159.09313965 104.98791504 C159.12314056 106.49910919 159.12314056 106.49910919 159.15374756 108.04083252 C159.10683159 112.53991562 158.84535206 114.9532794 156.29566956 118.74562073 C150.89354724 122.29650242 143.52826603 121.31403911 137.30627441 121.26843262 C135.75848361 121.27521221 134.21070087 121.28411726 132.66293335 121.29498291 C128.4686028 121.31774267 124.2748884 121.30895396 120.08054733 121.29308748 C115.68710443 121.28041113 111.29371358 121.29217341 106.90026855 121.30001831 C99.52281237 121.30910984 92.14560662 121.29714008 84.76818848 121.27331543 C76.24401181 121.24610499 67.72043312 121.25491951 59.19627094 121.28244746 C51.87207331 121.30515176 44.5480555 121.30833219 37.22383404 121.29525411 C32.85181059 121.28746682 28.48006804 121.28639801 24.10806274 121.30293655 C19.99723504 121.31740143 15.88717679 121.30732355 11.77643204 121.27846527 C10.26960654 121.27186512 8.76271607 121.27373393 7.2559166 121.28477859 C-5.51168928 121.36972148 -5.51168928 121.36972148 -9.49946594 118.74264526 C-12.56734621 114.19248822 -12.43799403 110.41713851 -12.36437988 105.03552246 C-12.37328751 103.96993103 -12.38219513 102.9043396 -12.39137268 101.80645752 C-12.4126743 98.28583461 -12.39033637 94.76703821 -12.36560059 91.24645996 C-12.36710275 88.79935519 -12.37053214 86.35225091 -12.37580872 83.90515137 C-12.38014212 78.77714095 -12.36328605 73.64975894 -12.33117676 68.52185059 C-12.29139649 61.94742437 -12.30069424 55.37417671 -12.3254118 48.79971313 C-12.33959136 43.74676853 -12.32951069 38.69409941 -12.31189919 33.64117432 C-12.30604722 31.21706805 -12.30735487 28.79293363 -12.31592369 26.36883545 C-12.32391061 22.9810517 -12.29968398 19.59499735 -12.26672363 16.20739746 C-12.27527374 15.20464783 -12.28382385 14.20189819 -12.29263306 13.16876221 C-12.27708878 12.24355774 -12.26154449 11.31835327 -12.24552917 10.3651123 C-12.24234523 9.56503754 -12.23916128 8.76496277 -12.23588085 7.94064331 C-10.51204311 1.61484899 -6.02460778 -0.00369599 0 0 Z " fill="#CDD0D8" transform="translate(182.6038818359375,16.3785400390625)"/>
<path d="M0 0 C1.35773026 -0.0131424 1.35773026 -0.0131424 2.7428894 -0.02655029 C5.71320574 -0.0484258 8.68201422 -0.0340337 11.65234375 -0.01708984 C13.72925093 -0.02046138 15.80615618 -0.02531681 17.88305664 -0.03158569 C22.22724264 -0.03894099 26.57091318 -0.02829459 30.91503906 -0.00488281 C36.47012872 0.02360378 42.02401039 0.00719265 47.57905579 -0.02274513 C51.86520409 -0.04085425 56.15106826 -0.03504344 60.43722534 -0.02210617 C62.48485458 -0.01878216 64.53251002 -0.02282368 66.58010864 -0.03450394 C69.44732522 -0.04727212 72.31261373 -0.02775236 75.1796875 0 C76.01732635 -0.01012115 76.85496521 -0.02024231 77.71798706 -0.03067017 C84.6679859 0.09330887 89.57503772 2.61332409 94.46484375 7.53369141 C97.82231183 12.9079719 98.5716982 17.38533482 97.58984375 23.64697266 C95.18557729 33.66003532 90.34130218 41.59728651 81.52734375 47.08447266 C75.74750493 50.37251711 70.56577072 51.8933101 63.90112305 51.9375 C62.58923508 51.9502597 61.27734711 51.96301941 59.92570496 51.97616577 C58.50515898 51.97922399 57.08461102 51.98145145 55.6640625 51.98291016 C54.19204074 51.98934568 52.72002024 51.99607459 51.2480011 52.00308228 C48.16733844 52.01502987 45.08678769 52.01876576 42.00610352 52.01757812 C38.07886952 52.01737519 34.15236121 52.04466161 30.22529888 52.07912254 C27.18560051 52.10147677 24.14607437 52.10541306 21.10630226 52.10435867 C19.65955928 52.10670243 18.21281065 52.11545618 16.76614952 52.13102341 C3.9417285 52.25609757 -4.98153331 49.61700499 -14.41015625 40.64697266 C-20.0844495 33.85758198 -23.19172887 24.66239362 -22.81640625 15.81103516 C-21.73583081 10.05489288 -18.61104184 6.31013159 -13.88110352 3.06729126 C-9.21919627 0.21452809 -5.37257922 -0.06491665 0 0 Z " fill="#383939" transform="translate(218.41015625,67.35302734375)"/>
<path d="M0 0 C3.26226509 0.68849263 6.51267381 1.40777895 9.75991821 2.16287231 C13.33877414 2.99469818 16.92463192 3.79535604 20.50976562 4.59960938 C21.21642868 4.75896469 21.92309174 4.91832001 22.65116882 5.08250427 C28.22055648 6.33224419 33.80487536 7.44136077 39.41992188 8.46289062 C48.53609383 10.13327902 57.56156288 12.14734973 66.60083008 14.18969727 C73.41677091 15.71986559 80.23714899 17.13757604 87.10742188 18.40039062 C96.19739977 20.0717765 105.19911798 22.0652262 114.21069336 24.11474609 C123.38257798 26.18075009 132.59166249 27.97516651 141.85620117 29.57592773 C154.50346513 31.87108531 164.71714537 35.99516459 172.34570312 46.88085938 C175.60742188 52.51306668 175.60742188 52.51306668 175.60742188 56.40039062 C171.60768544 56.5194304 167.60841913 56.58856506 163.60742188 56.65039062 C161.94839844 56.70066406 161.94839844 56.70066406 160.25585938 56.75195312 C151.64244783 56.85095786 144.0132347 55.29714614 135.79534912 53.00054932 C131.89239422 51.92995051 127.96105779 50.97242741 124.03320312 49.99804688 C122.37041911 49.5814735 120.70774117 49.16447647 119.04516602 48.74707031 C104.41464406 45.08025167 89.78270844 41.43307647 75.09814453 37.98779297 C70.18091771 36.82813332 65.26961558 35.64365218 60.35742188 34.46289062 C58.23763328 33.95376326 56.1178416 33.44464871 53.99804688 32.93554688 C52.94166016 32.6817627 51.88527344 32.42797852 50.796875 32.16650391 C47.64526616 31.4094809 44.49355477 30.65288656 41.34179688 29.89648438 C40.31223877 29.64938721 39.28268066 29.40229004 38.22192383 29.14770508 C36.14758369 28.64997402 34.07320225 28.15241509 31.9987793 27.6550293 C26.70183302 26.38467581 21.40581253 25.11065625 16.11132812 23.83007812 C3.96881375 20.89713899 -8.18511135 18.05079848 -20.39257812 15.40039062 C-19.79394736 11.94910102 -18.92274864 8.92081865 -17.51757812 5.71289062 C-17.02644531 4.56240234 -17.02644531 4.56240234 -16.52539062 3.38867188 C-13.05812969 -2.69696888 -5.85547904 -1.0349062 0 0 Z " fill="#D6DAE0" transform="translate(70.392578125,165.599609375)"/>
<path d="M0 0 C2.99280108 4.38231587 5.75 9.17780821 5.75 14.5625 C3.08789062 15.20507812 3.08789062 15.20507812 0.42578125 15.84765625 C-0.7334082 16.12746338 -1.89259766 16.40727051 -3.08691406 16.69555664 C-5.6891225 17.32367023 -8.29133532 17.95176568 -10.89355469 18.57983398 C-17.51379473 20.17771443 -24.13395994 21.77590292 -30.75390625 23.375 C-44.2318583 26.63032555 -57.71142761 29.87870532 -71.1953125 33.109375 C-75.12884877 34.05221687 -79.06107974 35.00021052 -82.9921875 35.953125 C-92.52314614 38.25918246 -102.06200103 40.52693986 -111.6171875 42.73046875 C-112.44021866 42.9203537 -113.26324982 43.11023865 -114.11122131 43.30587769 C-118.36017266 44.28502417 -122.61024076 45.25896951 -126.86206055 46.22558594 C-134.09280671 47.87421337 -141.30385902 49.53811392 -148.46484375 51.47265625 C-162.62092038 55.26186001 -175.60230763 56.33457731 -190.25 55.5625 C-188.6053142 46.51719559 -182.63685989 39.7847938 -175.25 34.5625 C-167.7045342 30.5836839 -159.37676591 29.16376879 -151.08062744 27.61196899 C-147.18394301 26.8827235 -143.29352193 26.12126288 -139.40234375 25.36328125 C-138.62262207 25.2122142 -137.84290039 25.06114716 -137.03955078 24.90550232 C-129.95411284 23.52485386 -122.91397965 21.97649632 -115.875 20.375 C-107.28013572 18.42869463 -98.67823697 16.63747082 -90.01464844 15.02612305 C-74.79292511 12.18844636 -59.66849539 8.89417343 -44.5625 5.5 C-36.24644153 3.639696 -27.92524519 1.8267391 -19.5625 0.1875 C-18.73210205 0.01984131 -17.9017041 -0.14781738 -17.04614258 -0.32055664 C-4.31037461 -2.75385045 -4.31037461 -2.75385045 0 0 Z " fill="#D6DAE0" transform="translate(456.25,166.4375)"/>
<path d="M0 0 C3.15460932 4.1069442 3.33052551 7.21125663 3.1875 12.3125 C3.14689453 14.19388672 3.14689453 14.19388672 3.10546875 16.11328125 C3.07066406 17.06589844 3.03585937 18.01851563 3 19 C-0.05111888 20.02980581 -3.08139152 21.02234277 -6.1875 21.875 C-9.40731218 23.16292487 -10.55241296 23.84936937 -12 27 C-11.9462356 31.85267763 -11.9462356 31.85267763 -9.30078125 35.703125 C-6.42070906 37.32652732 -4.53318043 37.30475644 -1.25 37.1875 C0.4825 37.125625 2.215 37.06375 4 37 C4 43.6 4 50.2 4 57 C-0.54101562 58.02539062 -0.54101562 58.02539062 -5.08203125 59.05078125 C-7.98695568 59.99575667 -9.28072782 60.51266808 -11 63 C-11.4714296 64.94457312 -11.4714296 64.94457312 -11.375 67 C-11.38273437 67.680625 -11.39046875 68.36125 -11.3984375 69.0625 C-10.85832329 71.68893772 -10.24000427 72.50820334 -8 74 C-4.79861932 74.3636162 -4.79861932 74.3636162 -1.3125 74.1875 C-0.13300781 74.16042969 1.04648437 74.13335937 2.26171875 74.10546875 C3.61716797 74.05326172 3.61716797 74.05326172 5 74 C5.6608185 81.13683981 3.93154963 86.01496383 0 92 C-7.67101885 100.63760835 -19.54659719 102.21141472 -30.43359375 103.36328125 C-35.18262338 103.57079191 -38.8360987 103.70838585 -42.6875 100.6875 C-45.8578481 97.0030414 -46.12349726 94.50928898 -46.0625 89.8125 C-46.05347656 88.91144531 -46.04445313 88.01039063 -46.03515625 87.08203125 C-46.02355469 86.39496094 -46.01195312 85.70789063 -46 85 C-45.00097656 84.81824219 -44.00195312 84.63648438 -42.97265625 84.44921875 C-41.68230469 84.19785156 -40.39195312 83.94648438 -39.0625 83.6875 C-37.77472656 83.44386719 -36.48695313 83.20023437 -35.16015625 82.94921875 C-34.11730469 82.63597656 -33.07445312 82.32273437 -32 82 C-31.12890838 79.38672515 -30.81120201 77.69288829 -30.75 75 C-30.72421875 74.319375 -30.6984375 73.63875 -30.671875 72.9375 C-30.88234587 70.93909555 -30.88234587 70.93909555 -32.09765625 69.26171875 C-36.20823232 66.53540238 -42.32643144 67.86118113 -47 68 C-47 61.4 -47 54.8 -47 48 C-41 46 -41 46 -37.3125 45.125 C-34.03265635 44.23574178 -34.03265635 44.23574178 -32 42.3125 C-30.50697813 38.85988693 -31.02436768 36.5773185 -32 33 C-33.51894806 30.90235835 -33.51894806 30.90235835 -36 30 C-40.21488833 29.69346267 -43.89243441 30.12634969 -48 31 C-48.61668707 22.25674776 -48.41499897 15.19830392 -43 8 C-36.92325036 2.10702303 -30.40013213 -0.11072352 -22.1875 -1.625 C-21.17719727 -1.82609375 -21.17719727 -1.82609375 -20.14648438 -2.03125 C-13.03008869 -3.36599981 -6.30036526 -4.24908355 0 0 Z " fill="#EEF0F2" transform="translate(422,252)"/>
<path d="M0 0 C17.16 0 34.32 0 52 0 C52 22.77 52 45.54 52 69 C34.84 69 17.68 69 0 69 C0 46.23 0 23.46 0 0 Z " fill="#375972" transform="translate(230,341)"/>
<path d="M0 0 C0.12587742 4.28254337 0.2153775 8.56403933 0.2746582 12.84790039 C0.29943045 14.29763595 0.33325955 15.74725189 0.37719727 17.1965332 C0.81460918 32.02222397 -2.26222923 44.66299204 -11 57 C-11.41507812 57.60972656 -11.83015625 58.21945312 -12.2578125 58.84765625 C-23.17747028 73.20014057 -40.4733618 77.44148686 -57.18505859 80.71972656 C-59.86506646 81.24804178 -62.53978891 81.79878002 -65.21484375 82.3515625 C-80.07783264 85.35519424 -91.4884558 86.77104387 -105.1875 79.25 C-112.62579001 73.29936799 -118.16069194 66.43090807 -119.25683594 56.72607422 C-120.12925372 45.85842022 -120.16481623 34.89618442 -120 24 C-117.91798472 23.49453964 -115.83432933 22.99583165 -113.75 22.5 C-112.58984375 22.2215625 -111.4296875 21.943125 -110.234375 21.65625 C-107 21 -107 21 -103 21 C-102.98582031 22.22074219 -102.97164063 23.44148438 -102.95703125 24.69921875 C-102.67665408 36.46547452 -102.05308479 47.80888824 -93.8125 57.0625 C-85.71969778 64.0140096 -76.57504992 64.97968434 -66.22216797 64.23632812 C-51.15491883 62.63392237 -35.6820078 58.48481031 -25.75 46.3125 C-22.42990307 41.62636864 -20.71312461 36.43807249 -19 31 C-18.505 29.515 -18.505 29.515 -18 28 C-17.85110253 26.15533558 -17.7520899 24.30642725 -17.68359375 22.45703125 C-17.64169922 21.38388672 -17.59980469 20.31074219 -17.55664062 19.20507812 C-17.51732422 18.08552734 -17.47800781 16.96597656 -17.4375 15.8125 C-17.37272461 14.11577148 -17.37272461 14.11577148 -17.30664062 12.38476562 C-17.20050901 9.58996646 -17.09845615 6.79507838 -17 4 C-14.5424552 3.33030409 -12.08405076 2.6641232 -9.625 2 C-8.57699219 1.71382813 -8.57699219 1.71382813 -7.5078125 1.421875 C-2.2265625 0 -2.2265625 0 0 0 Z " fill="#467290" transform="translate(461,307)"/>
<path d="M0 0 C0.96726517 -0.01489471 0.96726517 -0.01489471 1.95407104 -0.03009033 C4.07147626 -0.05911486 6.18858149 -0.07290303 8.30615234 -0.08398438 C9.40075335 -0.09246651 9.40075335 -0.09246651 10.5174675 -0.10112 C14.38275324 -0.13102326 18.24789138 -0.14953034 22.11328125 -0.15820312 C26.07415781 -0.16913415 30.03364589 -0.21712565 33.99408913 -0.27414703 C37.06736987 -0.31170225 40.14032695 -0.32182691 43.2138176 -0.32487488 C44.67208789 -0.3308659 46.13035683 -0.34670957 47.58839798 -0.37324524 C59.67319799 -0.57740767 68.88232969 1.91065185 77.82958984 10.38476562 C84.26708984 17.39775939 84.26708984 17.39775939 84.26708984 22.32226562 C83.39084961 22.50289551 82.51460938 22.68352539 81.61181641 22.86962891 C78.29869868 23.56099001 74.98947316 24.26733939 71.68164062 24.98339844 C70.26133666 25.28777217 68.8398022 25.58647099 67.41699219 25.87890625 C55.73771853 28.28564436 44.55186579 31.47423993 35.70458984 39.94726562 C34.91955078 40.68203125 34.13451172 41.41679687 33.32568359 42.17382812 C31.4507606 44.13057888 29.83146229 46.11315183 28.26708984 48.32226562 C24.89681355 47.19884019 24.33520176 46.40895352 22.20458984 43.69726562 C11.83682375 31.56893548 -1.85956747 28.25493427 -16.92041016 25.07226562 C-18.15855469 24.80414063 -19.39669922 24.53601563 -20.67236328 24.25976562 C-23.69113927 23.6070573 -26.71123129 22.96137456 -29.73291016 22.32226562 C-28.52541142 15.50539924 -24.82064742 10.84810963 -19.47900391 6.47851562 C-13.20879398 2.14984278 -7.69786364 0.09074024 0 0 Z " fill="#ACB3BD" transform="translate(228.73291015625,153.677734375)"/>
<path d="M0 0 C17.16 0 34.32 0 52 0 C52 14.19 52 28.38 52 43 C34.84 43 17.68 43 0 43 C0 28.81 0 14.62 0 0 Z " fill="#375972" transform="translate(230,239)"/>
<path d="M0 0 C17.16 0 34.32 0 52 0 C52 8.58 52 17.16 52 26 C34.84 26 17.68 26 0 26 C0 17.42 0 8.84 0 0 Z " fill="#375872" transform="translate(230,469)"/>
<path d="M0 0 C16.5 0 33 0 50 0 C50 8.25 50 16.5 50 25 C33.5 25 17 25 0 25 C0 16.75 0 8.5 0 0 Z " fill="#355263" transform="translate(231,427)"/>
<path d="M0 0 C16.5 0 33 0 50 0 C50 8.25 50 16.5 50 25 C33.5 25 17 25 0 25 C0 16.75 0 8.5 0 0 Z " fill="#355263" transform="translate(231,299)"/>
<path d="M0 0 C0 16.83 0 33.66 0 51 C-7.37407604 49.94656057 -10.6303888 49.06020827 -15.14453125 43.23046875 C-18.23335908 37.59682217 -17.5772868 31.18162957 -17.5 24.9375 C-17.51546875 23.68388672 -17.5309375 22.43027344 -17.546875 21.13867188 C-17.49863076 9.79524377 -17.49863076 9.79524377 -13 5 C-8.14148362 0.71987842 -6.76206611 0 0 0 Z " fill="#A9B0BA" transform="translate(154,43)"/>
<path d="M0 0 C9.03574034 1.12946754 9.03574034 1.12946754 11.875 3.8125 C12.42929687 4.31394531 12.98359375 4.81539062 13.5546875 5.33203125 C18.43834907 10.96804069 17.36782864 17.74512127 17.375 24.8125 C17.39949219 26.07126953 17.42398437 27.33003906 17.44921875 28.62695312 C17.47131718 35.6137401 17.36075344 40.40462309 13 46 C8.36857466 49.9109814 6.38757457 50.08748935 0 51 C0 34.17 0 17.34 0 0 Z " fill="#A9B0BA" transform="translate(358,43)"/>
<path d="M0 0 C3.29550775 0.6179077 5.31712904 1.56951015 8 3.5625 C10.24035124 8.04320248 9.2685735 14.12802613 9.29516602 19.1105957 C9.31235651 21.35625573 9.35624 23.60043433 9.40039062 25.84570312 C9.41052001 27.27863503 9.41903535 28.71157943 9.42578125 30.14453125 C9.44036377 31.44624268 9.45494629 32.7479541 9.4699707 34.08911133 C8.92230655 38.13670505 7.92107663 39.75548974 5 42.5625 C1.5625 43.625 1.5625 43.625 -2 43.5625 C-5.42741629 41.47624661 -6.72481037 40.3880689 -8 36.5625 C-8.27235801 32.3271606 -8.31322877 28.09179876 -8.35009766 23.84838867 C-8.3666375 22.45466389 -8.39390263 21.06102325 -8.43212891 19.66772461 C-8.78823574 6.60170023 -8.78823574 6.60170023 -5.6640625 2.6484375 C-3 0.5625 -3 0.5625 0 0 Z " fill="#373838" transform="translate(42,383.4375)"/>
<path d="M0 0 C2.92905146 2.88738707 3.36312684 5.33083299 3.44248962 9.38195801 C3.43955399 10.07059937 3.43661835 10.75924072 3.43359375 11.46875 C3.4388356 12.186073 3.44407745 12.903396 3.44947815 13.64245605 C3.45588642 15.15534168 3.45457678 16.66827721 3.44604492 18.18115234 C3.43752666 20.4927652 3.46632027 22.80191189 3.49804688 25.11328125 C3.49965891 26.58593676 3.49908132 28.05859664 3.49609375 29.53125 C3.51294472 30.56421204 3.51294472 30.56421204 3.53013611 31.61804199 C3.48092237 35.01476768 3.21509497 36.72536613 1.09399414 39.43359375 C-1.8001203 41.59852768 -3.59569206 41.56799256 -7.09765625 41.3984375 C-9.99766139 40.79104423 -11.28308671 39.33500208 -13 37 C-15.14068035 32.7186393 -14.26806725 27.05863536 -14.29516602 22.30639648 C-14.31235234 20.20554948 -14.35623599 18.10628799 -14.40039062 16.00585938 C-14.41052052 14.66407405 -14.4190357 13.32227536 -14.42578125 11.98046875 C-14.44036377 10.76254639 -14.45494629 9.54462402 -14.4699707 8.28979492 C-13.91312892 4.39190247 -12.73695135 2.77325298 -10 0 C-6.82503506 -1.58748247 -3.30053472 -1.07839253 0 0 Z " fill="#373838" transform="translate(82,395)"/>
<path d="M0 0 C11.55 0 23.1 0 35 0 C33.8338161 6.99710342 32.67447593 10.97704513 27.09765625 15.1953125 C22.02420727 17.94497372 16.68121692 17.43136144 11.0625 17.25 C9.46438477 17.22292969 9.46438477 17.22292969 7.83398438 17.1953125 C5.22226492 17.14846551 2.61101232 17.07673179 0 17 C0 11.39 0 5.78 0 0 Z " fill="#48A8D2" transform="translate(264,85)"/>
<path d="M0 0 C11.55 0 23.1 0 35 0 C35 5.61 35 11.22 35 17 C31.31170398 17.10839074 27.62662349 17.18751031 23.9375 17.25 C22.89916016 17.28351563 21.86082031 17.31703125 20.79101562 17.3515625 C14.26595908 17.43442036 10.25891169 16.977804 5 13 C1.58527794 9.16500445 0.84119435 5.0471661 0 0 Z " fill="#48A8D2" transform="translate(213,85)"/>
<path d="M0 0 C1.03253906 -0.01095703 2.06507813 -0.02191406 3.12890625 -0.03320312 C7.6748145 0.01078954 10.66957454 0.085185 14.66015625 2.37890625 C17.20693477 5.401516 17.43022124 7.65488965 17.5 11.5625 C16.39791992 14.96058026 15.57902124 15.50981917 12.5 17.5625 C8.5578318 18.05263484 4.59436806 17.97901039 0.625 18 C-1.00888672 18.04930664 -1.00888672 18.04930664 -2.67578125 18.09960938 C-10.67604639 18.15346673 -10.67604639 18.15346673 -14.71875 15.25390625 C-17.08291423 11.68173705 -17.2507196 9.76652978 -16.5 5.5625 C-12.19064385 -0.79056368 -7.00338299 -0.16175104 0 0 Z " fill="#3A3A3A" transform="translate(221.5,33.4375)"/>
<path d="M0 0 C1.00675781 -0.01224609 2.01351563 -0.02449219 3.05078125 -0.03710938 C4.02144531 -0.03904297 4.99210937 -0.04097656 5.9921875 -0.04296875 C6.88019043 -0.04707764 7.76819336 -0.05118652 8.68310547 -0.05541992 C11.33654599 0.20854462 12.89623808 0.73835236 15.125 2.1875 C17.62531654 5.93797482 17.66103554 7.74606266 17.125 12.1875 C15.3515625 14.87890625 15.3515625 14.87890625 12.125 17.1875 C8.09149949 17.90658951 4.14867212 17.83983266 0.0625 17.75 C-1.02611328 17.76095703 -2.11472656 17.77191406 -3.23632812 17.78320312 C-11.22154571 17.70949342 -11.22154571 17.70949342 -14.15405273 15.36694336 C-16.58484438 12.28853834 -16.875 10.08086946 -16.875 6.1875 C-12.37849844 -0.94488178 -7.7337277 0.00491342 0 0 Z " fill="#393939" transform="translate(289.875,33.8125)"/>
</svg>
