<?xml version="1.0" encoding="UTF-8"?>
<svg version="1.1" xmlns="http://www.w3.org/2000/svg" width="295" height="271">
<path d="M0 0 C97.35 0 194.7 0 295 0 C295 89.43 295 178.86 295 271 C197.65 271 100.3 271 0 271 C0 181.57 0 92.14 0 0 Z " fill="#FDFDFD" transform="translate(0,0)"/>
<path d="M0 0 C1.01271973 0.00346436 2.02543945 0.00692871 3.06884766 0.01049805 C10.70639101 0.12121368 17.44535209 0.98238234 24.75 3.3125 C25.89855469 3.61994141 25.89855469 3.61994141 27.0703125 3.93359375 C36.03521928 6.52024248 44.63930013 11.32107696 51.75 17.3125 C50.11100572 22.30799753 47.19067149 26.25095455 44.1875 30.5 C43.18516658 31.93026738 42.18381678 33.36122473 41.18359375 34.79296875 C40.51928345 35.73499146 40.51928345 35.73499146 39.84155273 36.69604492 C38.6868193 38.33059218 38.6868193 38.33059218 37.75 40.3125 C32.63491193 38.40855055 28.03955352 35.74428449 23.296875 33.06640625 C15.64849643 29.28433359 9.02581284 27.80437956 0.5 27.875 C-0.37140625 27.85501953 -1.2428125 27.83503906 -2.140625 27.81445312 C-6.36033014 27.81766936 -8.64754736 27.93635329 -12.296875 30.21484375 C-15.89346438 34.07758074 -15.66646299 37.50485908 -15.56640625 42.62109375 C-15.41375728 45.47479369 -15.41375728 45.47479369 -13.5625 48.1875 C-2.68238698 55.16719514 11.22259102 58.05368383 23.69921875 61.01171875 C31.04855253 62.86976288 36.6749823 66.88151748 42.75 71.3125 C43.38292969 71.7353125 44.01585938 72.158125 44.66796875 72.59375 C50.14573397 76.53661443 52.67748676 83.09496028 54.75 89.3125 C55.64504866 99.51605474 56.1036832 110.28031834 50.75 119.3125 C50.32976562 120.05886719 49.90953125 120.80523437 49.4765625 121.57421875 C47.50331483 124.90482164 45.49208734 127.58560428 42.75 130.3125 C42.42 130.9725 42.09 131.6325 41.75 132.3125 C62.54 131.9825 83.33 131.6525 104.75 131.3125 C100.79 128.3425 100.79 128.3425 96.75 125.3125 C83.86352244 114.12219128 76.09743105 99.17231295 73.75 82.3125 C73.49561532 78.66066659 73.4622793 75.03454704 73.5 71.375 C73.50821777 70.40498047 73.51643555 69.43496094 73.52490234 68.43554688 C73.83470403 48.64821351 81.02615357 33.3789121 94.6875 19 C101.49724205 12.50101999 108.99895494 7.72096864 117.75 4.3125 C118.4409375 4.02503906 119.131875 3.73757812 119.84375 3.44140625 C136.25667458 -3.1553269 159.87979659 -2.30077683 176.0546875 4.4609375 C181.49056408 7.03788362 186.13517694 10.48716166 190.75 14.3125 C192.72290581 15.69469233 194.72892403 17.00153181 196.75 18.3125 C195.47757412 20.95224945 194.1016767 23.40881441 192.47265625 25.84375 C192.04146484 26.48957031 191.61027344 27.13539062 191.16601562 27.80078125 C190.49602539 28.79658203 190.49602539 28.79658203 189.8125 29.8125 C189.36970703 30.47636719 188.92691406 31.14023438 188.47070312 31.82421875 C186.30931873 35.05180022 184.12682146 38.23753627 181.75 41.3125 C178.15197119 40.69639918 176.00747072 39.19236779 173.125 37 C164.3786292 30.86618152 157.78379179 28.96992914 147.125 28.875 C146.22998779 28.86476807 145.33497559 28.85453613 144.4128418 28.84399414 C132.59923257 29.00025592 124.06359469 34.21376958 115.75 42.3125 C106.69584649 52.67959103 105.82363638 64.0767984 106.59228516 77.21875 C107.54975419 89.92967019 112.4375398 98.59891184 121.75 107.3125 C129.62269726 113.15697695 137.94830065 113.49981267 147.4375 113.625 C148.15099609 113.65400391 148.86449219 113.68300781 149.59960938 113.71289062 C157.2959214 113.80073264 161.66922117 111.79889349 169.75 109.3125 C170.08 96.4425 170.41 83.5725 170.75 70.3125 C180.98 70.3125 191.21 70.3125 201.75 70.3125 C201.86483146 77.34273733 201.96436294 84.36971826 202.0246582 91.40014648 C202.04979315 93.79120919 202.08390633 96.18219514 202.12719727 98.57299805 C202.18789061 102.01109764 202.21622072 105.44818096 202.23828125 108.88671875 C202.26408768 109.95460129 202.2898941 111.02248383 202.31648254 112.12272644 C202.31960711 120.40178452 202.31960711 120.40178452 199.34448242 123.52661133 C196.75 125.3125 196.75 125.3125 194.75 125.3125 C194.75 125.9725 194.75 126.6325 194.75 127.3125 C192.95963542 128.2890625 191.16927083 129.265625 189.37890625 130.2421875 C187.58381685 131.22660024 187.58381685 131.22660024 186.75 133.3125 C195.33 133.3125 203.91 133.3125 212.75 133.3125 C212.75 135.9525 212.75 138.5925 212.75 141.3125 C122.33 141.3125 31.91 141.3125 -61.25 141.3125 C-61.25 138.3425 -61.25 135.3725 -61.25 132.3125 C-53.66 131.9825 -46.07 131.6525 -38.25 131.3125 C-41.22 129.3325 -44.19 127.3525 -47.25 125.3125 C-49.61386161 123.34867651 -51.95846348 121.36025604 -54.25 119.3125 C-52.73722749 114.4843099 -49.97346422 111.34011703 -46.6875 107.625 C-43.10080297 103.72644767 -43.10080297 103.72644767 -40.25 99.3125 C-39.59 99.3125 -38.93 99.3125 -38.25 99.3125 C-37.755 97.8275 -37.755 97.8275 -37.25 96.3125 C-33.88791308 97.33131422 -31.62731487 98.74079554 -29.0625 101.0625 C-19.34499373 109.66763514 -8.34919663 114.61982875 4.625 114.75 C5.71373413 114.76522705 5.71373413 114.76522705 6.82446289 114.78076172 C11.34313127 114.70635016 14.06256233 113.87737823 17.75 111.3125 C18.41 111.3125 19.07 111.3125 19.75 111.3125 C22.05349125 106.24481925 23.32233027 101.69720946 22 96.1875 C16.6280255 89.32331036 7.41122691 87.86870543 -0.69848633 85.96557617 C-17.3179928 81.97743907 -34.01481268 76.93803566 -44.25 62.3125 C-47.85247147 55.43877524 -48.93477064 49.13311979 -48.8125 41.4375 C-48.79932739 39.99503906 -48.79932739 39.99503906 -48.78588867 38.5234375 C-48.49228304 28.2688928 -45.6871456 19.57668872 -38.25 12.3125 C-27.3488042 2.63341135 -14.21869565 -0.07911083 0 0 Z " fill="#050505" transform="translate(75.25,63.6875)"/>
<path d="M0 0 C0.66 0.33 1.32 0.66 2 1 C3.59262066 1.15175549 5.19064856 1.24900325 6.7890625 1.31640625 C7.73007812 1.35830078 8.67109375 1.40019531 9.640625 1.44335938 C10.62546875 1.48267578 11.6103125 1.52199219 12.625 1.5625 C13.61757813 1.60568359 14.61015625 1.64886719 15.6328125 1.69335938 C18.08839838 1.79961069 20.54408703 1.90164964 23 2 C23 2.66 23 3.32 23 4 C14.42 4 5.84 4 -3 4 C-2.67 3.01 -2.34 2.02 -2 1 C-1.34 0.67 -0.68 0.34 0 0 Z " fill="#A9A9A9" transform="translate(265,193)"/>
<path d="M0 0 C1.32 0 2.64 0 4 0 C3.67 1.32 3.34 2.64 3 4 C1.68 4 0.36 4 -1 4 C-0.67 2.68 -0.34 1.36 0 0 Z " fill="#FDF2F2" transform="translate(87,206)"/>
</svg>
